# Converted from COLLADA
v -0.003223955 0.004699945 0.004455983
v -0.003223955 0.003699958 0.004455983
v -0.001505494 0.003699958 0.005289912
v -0.001505494 0.004699945 0.005289912
v 0.00039455 0.003699958 0.005485773
v 0.00039455 0.004699945 0.005485773
v 0.002246975 0.003699958 0.005020022
v 0.002246975 0.004699945 0.005020022
v 0.003828406 0.003699958 0.003948748
v 0.003828406 0.004699945 0.003948748
v 0.004948139 0.003699958 0.002401173
v 0.004948139 0.004699945 0.002401173
v 0.005470991 0.003699958 0.000564049
v 0.005470991 0.004699945 0.000564049
v 0.00533396 0.003699958 -0.001341104
v 0.00533396 0.004699945 -0.001341104
v 0.004553556 0.003699958 -0.003084599
v 0.004553556 0.004699945 -0.003084599
v 0.003223955 0.003699958 -0.004455983
v 0.003223955 0.004699945 -0.004455983
v 0.001505494 0.003699958 -0.005289912
v 0.001505494 0.004699945 -0.005289912
v -0.000394549 0.003699958 -0.005485773
v -0.000394549 0.004699945 -0.005485773
v -0.002246975 0.003699958 -0.005020022
v -0.002246975 0.004699945 -0.005020022
v -0.003828406 0.003699958 -0.003948748
v -0.003828406 0.004699945 -0.003948748
v -0.004948139 0.003699958 -0.002401173
v -0.004948139 0.004699945 -0.002401173
v -0.005470991 0.003699958 -0.000564051
v -0.005470991 0.004699945 -0.000564051
v -0.00533396 0.003699958 0.001341104
v -0.00533396 0.004699945 0.001341104
v -0.004553556 0.003699958 0.003084599
v -0.004553556 0.004699945 0.003084599
v -0.003002285 -0.005499958 -0.004608273
v -0.004397332 -0.005499958 -0.003303468
v 0.004016876 -0.005499958 -0.00375688
v 0.004397332 -0.005499958 0.003303468
v 0.005262017 -0.005499958 0.001600265
v -0.005059599 -0.005499958 0.002156436
v -0.004016876 -0.005499958 0.00375688
v -0.002489686 -0.005499958 0.00490415
v -0.005262017 -0.005499958 -0.001600265
v -0.005492031 -0.005499958 0.000295917
v -0.00066226 -0.005499958 0.005459964
v 0.001245081 -0.005499958 0.005357205
v 0.003002285 -0.005499958 0.004608273
v 0.005492031 -0.005499958 -0.000295919
v 0.005059599 -0.005499958 -0.002156436
v 0.002489686 -0.005499958 -0.00490415
v 0.000662261 -0.005499958 -0.005459964
v -0.001245081 -0.005499958 -0.005357205
v -0.003002285 -0.006299972 -0.004608273
v -0.001245081 -0.006299972 -0.005357205
v 0.000662261 -0.006299972 -0.005459964
v 0.002489686 -0.006299972 -0.00490415
v 0.004016876 -0.006299972 -0.00375688
v 0.005059599 -0.006299972 -0.002156436
v 0.005492031 -0.006299972 -0.000295919
v 0.005262017 -0.006299972 0.001600265
v 0.004397332 -0.006299972 0.003303468
v 0.003002285 -0.006299972 0.004608273
v 0.001245081 -0.006299972 0.005357205
v -0.00066226 -0.006299972 0.005459964
v -0.002489686 -0.006299972 0.00490415
v -0.004016876 -0.006299972 0.00375688
v -0.005059599 -0.006299972 0.002156436
v -0.005492031 -0.006299972 0.000295917
v -0.005262017 -0.006299972 -0.001600265
v -0.004397332 -0.006299972 -0.003303468
v -0.002299308 -0.01229995 -5.62354e-05
v -0.002399265 -0.01219999 -5.86804e-05
v -0.002048492 -0.01219999 -0.001250445
v -0.001963138 -0.01229995 -0.001198351
v -0.001148819 -0.01219999 -0.002107143
v -0.001100897 -0.01229995 -0.002019345
v 5.86816e-05 -0.01219999 -0.002399265
v 5.62366e-05 -0.01229995 -0.002299308
v 0.001250445 -0.01219999 -0.002048492
v 0.001198351 -0.01229995 -0.001963138
v 0.002107143 -0.01219999 -0.001148819
v 0.002019345 -0.01229995 -0.001100897
v 0.002399265 -0.01219999 5.8682e-05
v 0.002299308 -0.01229995 5.62369e-05
v 0.002048492 -0.01219999 0.001250445
v 0.001963138 -0.01229995 0.001198351
v 0.001148819 -0.01219999 0.002107143
v 0.001100897 -0.01229995 0.002019345
v -5.86808e-05 -0.01219999 0.002399265
v -5.62357e-05 -0.01229995 0.002299308
v -0.001250445 -0.01219999 0.002048492
v -0.001198351 -0.01229995 0.001963138
v -0.002107143 -0.01219999 0.001148819
v -0.002019345 -0.01229995 0.001100897
v 0.001013815 -0.01279997 -0.000552729
v 0.000985583 -0.01279997 0.000601628
v 2.82334e-05 -0.01279997 -0.001154303
v -2.82326e-05 -0.01279997 0.001154303
v -0.000985586 -0.01279997 -0.00060163
v -0.001013815 -0.01279997 0.000552727
v -0.001013815 -0.01429998 0.000552727
v -2.82326e-05 -0.01429998 0.001154303
v -0.000985586 -0.01429998 -0.00060163
v 2.82334e-05 -0.01429998 -0.001154303
v 0.001013815 -0.01429998 -0.000552729
v 0.000985583 -0.01429998 0.000601628
v 0.000486613 -0.01429998 0.002401173
v -5.99034e-05 -0.01429998 0.002449214
v 0.00223267 -0.01429998 -0.001008689
v 0.002401173 -0.01429998 -0.000486612
v 0.002180695 -0.01429998 0.001116633
v 0.00237447 -0.01429998 0.000603413
v 0.002449214 -0.01429998 5.99045e-05
v -0.00195223 -0.01429998 0.001480221
v -0.00223267 -0.01429998 0.001008689
v 5.99041e-05 -0.01429998 -0.002449214
v 0.000603417 -0.01429998 -0.002374529
v -0.002180695 -0.01429998 -0.001116633
v -0.001877546 -0.01429998 -0.00157392
v 0.001116633 -0.01429998 -0.002180695
v 0.00157392 -0.01429998 -0.001877546
v 0.00195223 -0.01429998 -0.001480221
v -0.001480221 -0.01429998 -0.00195223
v -0.001008689 -0.01429998 -0.00223267
v -0.000486612 -0.01429998 -0.002401173
v -0.002401173 -0.01429998 0.00048661
v -0.002449214 -0.01429998 -5.99029e-05
v -0.002374529 -0.01429998 -0.000603416
v 0.001877546 -0.01429998 0.00157392
v 0.001480221 -0.01429998 0.00195223
v 0.001008689 -0.01429998 0.00223267
v -0.000603416 -0.01429998 0.002374529
v -0.001116633 -0.01429998 0.002180695
v -0.00157392 -0.01429998 0.001877546
v 0.002749145 -0.01399999 6.72396e-05
v 0.002708971 -0.01414996 6.6257e-05
v 0.002655804 -0.01414996 -0.000538214
v 0.002599179 -0.01425975 6.35722e-05
v 0.002548158 -0.01425975 -0.000516405
v 0.002369344 -0.01425975 -0.001070439
v 0.002071738 -0.01425975 -0.00157088
v 0.001670241 -0.01425975 -0.001992464
v 0.001184999 -0.01425975 -0.002314209
v 0.000640361 -0.01425975 -0.002519905
v 6.35716e-05 -0.01425975 -0.002599179
v -0.000516405 -0.01425975 -0.002548158
v -0.001070439 -0.01425975 -0.002369344
v -0.00157088 -0.01425975 -0.002071738
v -0.001992464 -0.01425975 -0.001670241
v -0.002314209 -0.01425975 -0.001184999
v -0.002519905 -0.01425975 -0.00064036
v -0.002599179 -0.01425975 -6.35705e-05
v 0.00246942 -0.01414996 -0.001115679
v 0.002159237 -0.01414996 -0.00163722
v 0.001740813 -0.01414996 -0.002076625
v 0.001235067 -0.01414996 -0.002411961
v 0.000667402 -0.01414996 -0.002626299
v 6.62566e-05 -0.01414996 -0.002708971
v -0.000538215 -0.01414996 -0.002655804
v -0.001115679 -0.01414996 -0.00246942
v -0.00163722 -0.01414996 -0.002159237
v -0.002076625 -0.01414996 -0.001740813
v -0.002411961 -0.01414996 -0.001235067
v -0.002626299 -0.01414996 -0.000667404
v -0.002708971 -0.01414996 -6.62553e-05
v 0.002695202 -0.01399999 -0.000546198
v 0.002506077 -0.01399999 -0.00113219
v 0.002191305 -0.01399999 -0.001661479
v 0.001766622 -0.01399999 -0.002107441
v 0.001253366 -0.01399999 -0.002447724
v 0.000677305 -0.01399999 -0.002665281
v 6.72393e-05 -0.01399999 -0.002749145
v -0.000546195 -0.01399999 -0.002695202
v -0.00113219 -0.01399999 -0.002506077
v -0.001661479 -0.01399999 -0.002191305
v -0.002107441 -0.01399999 -0.001766622
v -0.002447724 -0.01399999 -0.001253366
v -0.002665281 -0.01399999 -0.000677304
v -0.002749145 -0.01399999 -6.72381e-05
v -0.002655804 -0.01414996 0.000538212
v -0.002548158 -0.01425975 0.000516403
v -0.002369344 -0.01425975 0.001070439
v -0.002071738 -0.01425975 0.00157088
v -0.001670241 -0.01425975 0.001992464
v -0.001184999 -0.01425975 0.002314209
v -0.00064036 -0.01425975 0.002519905
v -6.35709e-05 -0.01425975 0.002599179
v 0.000516406 -0.01425975 0.002548158
v 0.001070439 -0.01425975 0.002369344
v 0.00157088 -0.01425975 0.002071738
v 0.001992464 -0.01425975 0.001670241
v 0.002314209 -0.01425975 0.001184999
v 0.002519905 -0.01425975 0.000640358
v -0.00246942 -0.01414996 0.001115679
v -0.002159237 -0.01414996 0.00163722
v -0.001740813 -0.01414996 0.002076625
v -0.001235067 -0.01414996 0.002411961
v -0.000667405 -0.01414996 0.002626299
v -6.62557e-05 -0.01414996 0.002708971
v 0.000538212 -0.01414996 0.002655804
v 0.001115679 -0.01414996 0.00246942
v 0.00163722 -0.01414996 0.002159237
v 0.002076625 -0.01414996 0.001740813
v 0.002411961 -0.01414996 0.001235067
v 0.002626299 -0.01414996 0.000667402
v -0.002695202 -0.01399999 0.000546196
v -0.002506077 -0.01399999 0.00113219
v -0.002191305 -0.01399999 0.001661479
v -0.001766622 -0.01399999 0.002107441
v -0.001253366 -0.01399999 0.002447724
v -0.000677301 -0.01399999 0.002665281
v -6.72384e-05 -0.01399999 0.002749145
v 0.000546199 -0.01399999 0.002695202
v 0.00113219 -0.01399999 0.002506077
v 0.001661479 -0.01399999 0.002191305
v 0.002107441 -0.01399999 0.001766622
v 0.002447724 -0.01399999 0.001253366
v 0.002665281 -0.01399999 0.000677302
v 0.002749145 -0.01229995 6.72396e-05
v 0.002506077 -0.01229995 -0.00113219
v 0.001766622 -0.01229995 -0.002107441
v 0.000677305 -0.01229995 -0.002665281
v -0.000546195 -0.01229995 -0.002695202
v -0.001661479 -0.01229995 -0.002191305
v -0.002447724 -0.01229995 -0.001253366
v -0.002749145 -0.01229995 -6.72381e-05
v -0.002506077 -0.01229995 0.00113219
v -0.001766622 -0.01229995 0.002107441
v -0.000677301 -0.01229995 0.002665281
v 0.000546199 -0.01229995 0.002695202
v 0.001661479 -0.01229995 0.002191305
v 0.002447724 -0.01229995 0.001253366
v 0.005335032 0.01249998 0.04470276
v 0.005299508 0.01279997 0.04440486
v 0.004287302 0.01249998 0.04507714
v 0.004126071 0.01279997 0.04482418
v 0.003505766 0.01249998 0.04586899
v 0.003250718 0.01279997 0.0457111
v 0.003145217 0.01249998 0.04692155
v 0.002846896 0.01279997 0.04688996
v 0.003277063 0.01249998 0.04802632
v 0.002994596 0.01279997 0.04812729
v 0.003875195 0.01249998 0.0489645
v 0.003664493 0.01279997 0.049178
v 0.004821181 0.01249998 0.04955023
v 0.004723966 0.01279997 0.04983401
v 0.005927562 0.01249998 0.04966753
v 0.005963146 0.01279997 0.04996538
v 0.007387399 0.01249998 0.04540574
v 0.006441473 0.01249998 0.04482001
v 0.007985532 0.01249998 0.04634392
v 0.008117377 0.01249998 0.04744869
v 0.007756829 0.01249998 0.04850125
v 0.006975293 0.01249998 0.04929316
v 0.001250445 0.01059997 -0.002048492
v 0.000972169 0.01059997 -0.002838075
v 5.86816e-05 0.01059997 -0.002399265
v -0.000355512 0.01059997 -0.002978861
v -0.001148819 0.01059997 -0.002107143
v -0.001612782 0.01059997 -0.002529561
v -0.002048492 0.01059997 -0.001250445
v -0.002550601 0.01059997 -0.001579284
v -0.002399265 0.01059997 -5.86804e-05
v -0.002983272 0.01059997 -0.000316257
v -0.002107143 0.01059997 0.001148819
v -0.002825021 0.01059997 0.001009404
v -0.001250445 0.01059997 0.002048492
v -0.002107262 0.01059997 0.002135217
v -0.000972172 0.01059997 0.002838075
v -5.86808e-05 0.01059997 0.002399265
v 0.000355513 0.01059997 0.002978801
v 0.001148819 0.01059997 0.002107143
v 0.001612782 0.01059997 0.002529561
v 0.002048492 0.01059997 0.001250445
v 0.002550601 0.01059997 0.001579284
v 0.002399265 0.01059997 5.8682e-05
v 0.002983272 0.01059997 0.000316259
v 0.002107143 0.01059997 -0.001148819
v 0.002825021 0.01059997 -0.001009404
v 0.002107262 0.01059997 -0.002135217
v -0.000355512 0.01279997 -0.002978861
v -0.001612782 0.01279997 -0.002529561
v -0.002550601 0.01279997 -0.001579284
v -0.002983272 0.01279997 -0.000316257
v -0.002825021 0.01279997 0.001009404
v -0.002107262 0.01279997 0.002135217
v -0.000972172 0.01279997 0.002838075
v 0.000355513 0.01279997 0.002978801
v 0.002107262 -0.01219999 -0.002135217
v 0.002825021 -0.01219999 -0.001009404
v 0.002983272 -0.01219999 0.000316259
v 0.002550601 -0.01219999 0.001579284
v 0.001612782 -0.01219999 0.002529561
v 0.000355513 -0.01219999 0.002978801
v -0.000972172 -0.01219999 0.002838075
v -0.002107262 -0.01219999 0.002135217
v -0.002825021 -0.01219999 0.001009404
v -0.002983272 -0.01219999 -0.000316257
v -0.002550601 -0.01219999 -0.001579284
v -0.001612782 -0.01219999 -0.002529561
v -0.000355512 -0.01219999 -0.002978861
v 0.000972169 -0.01219999 -0.002838075
v 0.000355513 -0.01439994 0.002978801
v -0.000972172 -0.01439994 0.002838075
v -0.002107262 -0.01439994 0.002135217
v -0.002825021 -0.01439994 0.001009404
v -0.002983272 -0.01439994 -0.000316257
v -0.002550601 -0.01439994 -0.001579284
v -0.001612782 -0.01439994 -0.002529561
v -0.000355512 -0.01439994 -0.002978861
v 0.005927562 -0.01409995 0.04966753
v 0.005963146 -0.01439994 0.04996538
v 0.004821181 -0.01409995 0.04955023
v 0.004723966 -0.01439994 0.04983401
v 0.003875195 -0.01409995 0.0489645
v 0.003664493 -0.01439994 0.049178
v 0.003277063 -0.01409995 0.04802632
v 0.002994596 -0.01439994 0.04812729
v 0.003145217 -0.01409995 0.04692155
v 0.002846896 -0.01439994 0.04688996
v 0.003505766 -0.01409995 0.04586899
v 0.003250718 -0.01439994 0.0457111
v 0.004287302 -0.01409995 0.04507714
v 0.004126071 -0.01439994 0.04482418
v 0.005335032 -0.01409995 0.04470276
v 0.005299508 -0.01439994 0.04440486
v 0.007985532 -0.01409995 0.04634392
v 0.008117377 -0.01409995 0.04744869
v 0.007387399 -0.01409995 0.04540574
v 0.007756829 -0.01409995 0.04850125
v 0.006975293 -0.01409995 0.04929316
v 0.006441473 -0.01409995 0.04482001
v -0.008794605 0.004799962 0.002788007
v -0.008794605 0.01059997 0.002788007
v -0.009996116 0.004799962 0.003268718
v -0.009996116 0.01059997 0.003268718
v -0.0107963 0.004799962 0.004285752
v -0.0107963 0.01059997 0.004285752
v -0.01098072 0.004799962 0.005566656
v -0.01098072 0.01059997 0.005566656
v -0.01050007 0.004799962 0.006768167
v -0.01050007 0.01059997 0.006768167
v -0.009482979 0.004799962 0.007568359
v -0.009482979 0.01059997 0.007568359
v -0.008202075 0.004799962 0.007752776
v -0.008202075 0.01059997 0.007752776
v -0.01132345 0.01059997 0.006279826
v -0.01060569 0.01059997 0.007405638
v -0.009470522 0.01059997 0.008108496
v -0.008142828 0.01059997 0.008249223
v -0.007000625 0.01059997 0.007272064
v -0.006885588 0.01059997 0.007799983
v -0.006200432 0.01059997 0.00625503
v -0.005947709 0.01059997 0.006849706
v -0.006015956 0.01059997 0.004974126
v -0.005515098 0.01059997 0.005586624
v -0.005673289 0.01059997 0.004260957
v -0.006496667 0.01059997 0.003772616
v -0.006391048 0.01059997 0.003135144
v -0.007513761 0.01059997 0.002972424
v -0.007526218 0.01059997 0.002432286
v -0.008853852 0.01059997 0.0022915
v -0.01011115 0.01059997 0.0027408
v -0.01104897 0.01059997 0.003691077
v -0.01148164 0.01059997 0.004954159
v -0.008853852 0.01279997 0.0022915
v -0.01011115 0.01279997 0.0027408
v -0.01104897 0.01279997 0.003691077
v -0.01148164 0.01279997 0.004954159
v -0.01132345 0.01279997 0.006279826
v -0.01060569 0.01279997 0.007405638
v -0.009470522 0.01279997 0.008108496
v -0.008142828 0.01279997 0.008249223
v -0.008794605 -0.01219999 0.002788007
v -0.008794605 -0.006399989 0.002788007
v -0.009996116 -0.01219999 0.003268718
v -0.009996116 -0.006399989 0.003268718
v -0.0107963 -0.01219999 0.004285752
v -0.0107963 -0.006399989 0.004285752
v -0.01098072 -0.01219999 0.005566656
v -0.01098072 -0.006399989 0.005566656
v -0.01050007 -0.01219999 0.006768167
v -0.01050007 -0.006399989 0.006768167
v -0.009482979 -0.01219999 0.007568359
v -0.009482979 -0.006399989 0.007568359
v -0.008202075 -0.01219999 0.007752776
v -0.008202075 -0.006399989 0.007752776
v -0.01148164 -0.01219999 0.004954159
v -0.01104897 -0.01219999 0.003691077
v -0.01011115 -0.01219999 0.0027408
v -0.008853852 -0.01219999 0.0022915
v -0.007513761 -0.01219999 0.002972424
v -0.007526218 -0.01219999 0.002432286
v -0.006496667 -0.01219999 0.003772616
v -0.006391048 -0.01219999 0.003135144
v -0.006015956 -0.01219999 0.004974126
v -0.005673289 -0.01219999 0.004260957
v -0.005515098 -0.01219999 0.005586624
v -0.006200432 -0.01219999 0.00625503
v -0.005947709 -0.01219999 0.006849706
v -0.007000625 -0.01219999 0.007272064
v -0.006885588 -0.01219999 0.007799983
v -0.008142828 -0.01219999 0.008249223
v -0.009470522 -0.01219999 0.008108496
v -0.01060569 -0.01219999 0.007405638
v -0.01132345 -0.01219999 0.006279826
v -0.008142828 -0.01439994 0.008249223
v -0.009470522 -0.01439994 0.008108496
v -0.01060569 -0.01439994 0.007405638
v -0.01132345 -0.01439994 0.006279826
v -0.01148164 -0.01439994 0.004954159
v -0.01104897 -0.01439994 0.003691077
v -0.01011115 -0.01439994 0.0027408
v -0.008853852 -0.01439994 0.0022915
v -0.005021512 0.004699945 0.008555352
v -0.004028558 0.004699945 0.008436799
v -0.004948973 0.004578173 0.00916332
v -0.003956019 0.004578173 0.009044826
v -0.004887461 0.004231333 0.009678721
v -0.003894507 0.004231333 0.009560227
v -0.004846334 0.003712236 0.01002311
v -0.00385338 0.003712236 0.009904623
v -0.00483191 0.003099977 0.01014405
v -0.003838956 0.003099977 0.01002556
v -0.00483191 -0.004699945 0.01014405
v -0.003838956 -0.004699945 0.01002556
v -0.004857301 -0.005499958 0.009931206
v -0.003864347 -0.005499958 0.009812712
v -0.004926681 -0.006085634 0.009349703
v -0.003933727 -0.006085634 0.009231209
v -0.005021512 -0.006299972 0.008555352
v -0.004028558 -0.006299972 0.008436799
v -0.004073023 -0.006056368 0.008064031
v -0.004218161 -0.006299972 0.006848096
v -0.003949999 -0.005362689 0.009094893
v -0.003867805 -0.004324555 0.009783685
v -0.003838956 -0.003099977 0.01002556
v -0.003867805 0.002724528 0.009783685
v -0.003838956 0.00149995 0.01002556
v -0.004218161 0.004699945 0.006848096
v -0.004073023 0.0044564 0.008064031
v -0.003949999 0.003762722 0.009094893
v 0.01168507 -0.009899973 0.05149811
v 0.01199948 -0.009899973 0.05146062
v 0.01168507 0.008299946 0.05149811
v 0.01199948 0.008299946 0.05146062
v 0.004868686 0.004699945 -0.005616486
v 0.0051831 0.004699945 -0.005654036
v 0.004868686 -0.006299972 -0.005616486
v 0.0051831 -0.006299972 -0.005654036
v 0.008929669 -0.007049977 0.01575279
v 0.009474813 -0.007049977 0.02032035
v 0.009854018 0.002249956 0.02349781
v 0.008661508 0.004512727 0.01350599
v 0.008579313 0.003474533 0.0128172
v 0.008784532 0.005206406 0.01453679
v 0.008550465 0.002249956 0.01257532
v 0.008929669 0.00544995 0.01575279
v 0.009474813 0.00544995 0.02032035
v 0.009619891 -0.006806373 0.02153629
v 0.009742915 -0.006112694 0.02256715
v 0.008550465 -0.003849983 0.01257532
v 0.008579313 -0.00507456 0.0128172
v 0.008661508 -0.006112694 0.01350599
v 0.009854018 -0.003849983 0.02349781
v 0.00982517 -0.00507456 0.02325594
v 0.009742915 0.004512727 0.02256715
v 0.009619891 0.005206406 0.02153629
v 0.00982517 0.003474533 0.02325594
v 0.008784532 -0.006806373 0.01453679
v 0.003647148 -0.01239997 -0.006182074
v 0.004426717 -0.01239997 -0.005972445
v 0.004377365 -0.01316535 -0.00582844
v 0.007447123 -0.01413202 -0.000888786
v 0.007214128 -0.01424771 -0.00086098
v 0.006969869 -0.01424771 -0.001899719
v 0.002984702 -0.01424771 -0.005035042
v 0.002904057 -0.01439994 -0.004273951
v 0.002008318 -0.01439994 -0.00426805
v 0.006454169 -0.01439994 -0.000770279
v 0.006249129 -0.01439994 -0.001642167
v 0.005855143 -0.01439994 -0.002446591
v 0.006500542 -0.01424771 -0.002858042
v 0.005292117 -0.01439994 -0.003143191
v 0.005829691 -0.01424771 -0.003687977
v 0.004588127 -0.01439994 -0.003697037
v 0.004991054 -0.01424771 -0.004347801
v 0.008174002 -0.01339995 -0.000975537
v 0.007858395 -0.01381421 -0.000937872
v 0.007580876 -0.01381421 -0.002118051
v 0.007047653 -0.01381421 -0.003206908
v 0.006285488 -0.01381421 -0.004149794
v 0.005332648 -0.01381421 -0.004899442
v 0.00191766 -0.01424771 -0.005028009
v 0.001889824 -0.01413202 -0.005261003
v 0.003053128 -0.01381421 -0.005680263
v 0.007989108 -0.01316535 -0.002263903
v 0.007413208 -0.01316535 -0.003439962
v 0.006590008 -0.01316535 -0.004458367
v 0.005560874 -0.01316535 -0.005268037
v 0.008132457 -0.01239997 -0.002315163
v 0.008440077 -0.01239997 -0.001007258
v 0.008288919 -0.01316535 -0.000989246
v 0.005409002 -0.01239997 -0.005534052
v 0.005641043 -0.01239997 -0.005397498
v 0.006696999 -0.01239997 -0.004566729
v 0.006884336 -0.01239997 -0.004373311
v 0.007541596 -0.01239997 -0.0035218
v 0.007928788 -0.01239997 -0.002813518
v 0.004236876 -0.01381421 -0.0054183
v 0.004026591 -0.01424771 -0.004804432
v 0.003778576 -0.01439994 -0.004080355
v 0.003114879 -0.01239997 -0.006262779
v 0.003098845 -0.01316535 -0.006111383
v 0.00184077 -0.01381421 -0.005672276
v 0.0018031 -0.01339995 -0.005987882
v 0.001789391 -0.01316535 -0.0061028
v 0.00177133 -0.01239997 -0.006253957
v 0.0140714 -0.01239997 0.0461778
v 0.01392024 -0.01316535 0.04619586
v 0.01380532 -0.01339995 0.04620957
v 0.01348978 -0.01381421 0.04624724
v 0.01307845 -0.01413202 0.04629635
v 0.01284551 -0.01424771 0.04632413
v 0.01208549 -0.01439994 0.04641485
v -0.000711028 -0.01239997 -0.005957663
v -0.000692985 -0.01316535 -0.005806505
v -0.000679273 -0.01339995 -0.005691647
v -0.000641608 -0.01381421 -0.00537604
v -0.000592522 -0.01413202 -0.004964709
v -0.000564719 -0.01424771 -0.004731774
v -0.000474019 -0.01439994 -0.003971755
v 0.01399952 -0.01239997 0.04805368
v 0.01378995 -0.01239997 0.04883319
v 0.01364588 -0.01316535 0.04878389
v 0.008706212 -0.01413202 0.05185365
v 0.008678436 -0.01424771 0.05162066
v 0.009717166 -0.01424771 0.05137634
v 0.01285248 -0.01424771 0.04739123
v 0.01209139 -0.01439994 0.04731053
v 0.008587718 -0.01439994 0.0508607
v 0.009459614 -0.01439994 0.0506556
v 0.01026409 -0.01439994 0.05026167
v 0.01067554 -0.01424771 0.05090701
v 0.01096069 -0.01439994 0.04969859
v 0.01150542 -0.01424771 0.05023622
v 0.01151454 -0.01439994 0.04899466
v 0.01216524 -0.01424771 0.04939758
v 0.008792996 -0.01339995 0.05258053
v 0.008755326 -0.01381421 0.05226492
v 0.009935498 -0.01381421 0.05198734
v 0.01102435 -0.01381421 0.05145412
v 0.01196724 -0.01381421 0.05069202
v 0.01271688 -0.01381421 0.04973918
v 0.01349771 -0.01381421 0.0474596
v 0.01008141 -0.01316535 0.05239564
v 0.01125741 -0.01316535 0.05181968
v 0.01227581 -0.01316535 0.05099654
v 0.01308548 -0.01316535 0.0499674
v 0.01013261 -0.01239997 0.05253899
v 0.008824706 -0.01239997 0.05284661
v 0.008806705 -0.01316535 0.05269539
v 0.0133515 -0.01239997 0.04981547
v 0.01321494 -0.01239997 0.05004751
v 0.01238417 -0.01239997 0.05110347
v 0.01219081 -0.01239997 0.05129081
v 0.01133924 -0.01239997 0.05194807
v 0.01063096 -0.01239997 0.05233526
v 0.01323574 -0.01381421 0.04864341
v 0.01262193 -0.01424771 0.04843312
v 0.01189786 -0.01439994 0.04818511
v 0.01408028 -0.01239997 0.04752135
v 0.01392889 -0.01316535 0.04750531
v -0.001575469 -0.01424771 -0.004497349
v -0.001322388 -0.01439994 -0.00377506
v -0.002108156 -0.01439994 -0.003399312
v -0.001789987 -0.01381421 -0.005109727
v -0.002511501 -0.01424771 -0.004049777
v -0.00263518 -0.01413202 -0.004249155
v -0.001933276 -0.01316535 -0.005518913
v -0.001983642 -0.01239997 -0.00566256
v -0.002853512 -0.01381421 -0.00460118
v -0.003021001 -0.01339995 -0.004871308
v -0.003081977 -0.01316535 -0.004969656
v -0.003162205 -0.01239997 -0.005098998
v 0.006105303 -0.01439994 0.05115693
v 0.006196022 -0.01424771 0.05191689
v 0.006223857 -0.01413202 0.05214989
v 0.006272912 -0.01381421 0.05256116
v 0.006310582 -0.01339995 0.05287677
v 0.006324291 -0.01316535 0.05299168
v 0.006342351 -0.01239997 0.05314284
v -0.01060652 -0.01439994 0.001871049
v -0.01100993 -0.01424771 0.001220583
v -0.01113355 -0.01413202 0.001021206
v -0.01135188 -0.01381421 0.000669207
v -0.01151937 -0.01339995 0.000399097
v -0.0115804 -0.01316535 0.000300764
v -0.01166063 -0.01239997 0.000171385
v 0.004466474 -0.01239997 0.05307096
v 0.003686964 -0.01239997 0.05286133
v 0.003736317 -0.01316535 0.05271732
v 0.000666572 -0.01413202 0.04777765
v 0.000899549 -0.01424771 0.04774981
v 0.001143813 -0.01424771 0.0487886
v 0.005128979 -0.01424771 0.05192393
v 0.005209624 -0.01439994 0.05116283
v 0.001659512 -0.01439994 0.04765915
v 0.001864552 -0.01439994 0.04853105
v 0.002258479 -0.01439994 0.04933547
v 0.00161314 -0.01424771 0.04974699
v 0.002821564 -0.01439994 0.05003213
v 0.00228393 -0.01424771 0.05057686
v 0.003525555 -0.01439994 0.05058598
v 0.003122627 -0.01424771 0.05123668
v -6.03206e-05 -0.01339995 0.04786437
v 0.000255273 -0.01381421 0.0478267
v 0.000532838 -0.01381421 0.04900693
v 0.001066029 -0.01381421 0.05009579
v 0.001828193 -0.01381421 0.05103868
v 0.002781033 -0.01381421 0.05178833
v 0.005060553 -0.01381421 0.05256915
v 0.000124575 -0.01316535 0.04915279
v 0.000700488 -0.01316535 0.05032885
v 0.001523613 -0.01316535 0.05134725
v 0.002552807 -0.01316535 0.05215692
v -1.87883e-05 -0.01239997 0.04920405
v -0.00032638 -0.01239997 0.04789614
v -0.000175213 -0.01316535 0.04787808
v 0.002704679 -0.01239997 0.05242294
v 0.002472639 -0.01239997 0.05228638
v 0.001416683 -0.01239997 0.05145561
v 0.001229345 -0.01239997 0.05126219
v 0.000572124 -0.01239997 0.05041068
v 0.000184931 -0.01239997 0.0497024
v 0.003876805 -0.01381421 0.05230718
v 0.00408709 -0.01424771 0.05169332
v 0.004335105 -0.01439994 0.0509693
v 0.004998803 -0.01239997 0.05315166
v 0.005014836 -0.01316535 0.05300027
v -0.01315945 -0.01239997 0.001492202
v -0.01271003 -0.01239997 0.000997056
v -0.01260322 -0.01316535 0.001105487
v -0.01130616 -0.01439994 0.002421498
v -0.01184344 -0.01424771 0.001876354
v -0.01229888 -0.01381421 0.001414239
v -0.01226043 -0.01439994 0.003911435
v -0.01246786 -0.01439994 0.004777133
v -0.01298028 -0.01424771 0.00365144
v -0.01322734 -0.01424771 0.004682779
v -0.01359057 -0.01381421 0.003430962
v -0.01387125 -0.01381421 0.004602789
v -0.01399832 -0.01316535 0.003283679
v -0.01430147 -0.01316535 0.004549324
v -0.01414149 -0.01239997 0.003231942
v -0.01247864 -0.01439994 0.005667328
v -0.01229226 -0.01439994 0.006537795
v -0.01324021 -0.01424771 0.005743265
v -0.01301819 -0.01424771 0.006780266
v -0.01388585 -0.01381421 0.005807638
v -0.0136336 -0.01381421 0.006985902
v -0.01431727 -0.01316535 0.005850672
v -0.01404482 -0.01316535 0.007123231
v -0.011918 -0.01439994 0.007345497
v -0.01257234 -0.01424771 0.007742524
v -0.01312702 -0.01381421 0.008079171
v -0.01349765 -0.01316535 0.008304059
v -0.01137435 -0.01439994 0.008050441
v -0.0106883 -0.01439994 0.008617639
v -0.01192468 -0.01424771 0.008582353
v -0.01110732 -0.01424771 0.009258151
v -0.0123912 -0.01381421 0.009033322
v -0.0114625 -0.01381421 0.009801089
v -0.01270288 -0.01316535 0.009334623
v -0.01169991 -0.01316535 0.0101639
v -0.01355087 -0.01239997 0.002034366
v -0.01342272 -0.01316535 0.002116441
v -0.01305758 -0.01381421 0.00235027
v -0.01251125 -0.01424771 0.002700269
v -0.01186674 -0.01439994 0.003113031
v -0.01446872 -0.01239997 0.005865752
v -0.01449793 -0.01239997 0.005197703
v -0.01445257 -0.01239997 0.004530549
v -0.01418924 -0.01239997 0.007171511
v -0.01281237 -0.01239997 0.009440422
v -0.01324957 -0.01239997 0.008934497
v -0.01362782 -0.01239997 0.008383035
v -0.01178324 -0.01239997 0.01029133
v -0.000573389 -0.01239997 0.04582649
v -0.000422214 -0.01316535 0.04580849
v -0.000307322 -0.01339995 0.04579472
v 8.27184e-06 -0.01381421 0.04575711
v 0.000419571 -0.01413202 0.045708
v 0.000652547 -0.01424771 0.04568022
v 0.00141251 -0.01439994 0.0455895
v -0.002895534 -0.01439994 0.01371598
v -0.003314554 -0.01424771 0.01435643
v -0.003669798 -0.01381421 0.01489943
v -0.003907144 -0.01316535 0.01526218
v -0.00399053 -0.01239997 0.01538962
v 0.000621513 -0.01424771 0.0449599
v 0.001386463 -0.01439994 0.04498487
v -2.69894e-05 -0.01381421 0.04493868
v 0.001451909 -0.01439994 0.04438322
v 0.0006995 -0.01424771 0.04424309
v 6.16128e-05 -0.01381421 0.04412436
v -0.000364602 -0.01316535 0.04404497
v -0.000460307 -0.01316535 0.04492455
v -0.000514274 -0.01239997 0.04401707
v -0.000612461 -0.01239997 0.04491955
v -0.000146542 -0.01413202 0.01986831
v -0.000557837 -0.01381421 0.01991742
v -0.000806973 -0.01381421 0.01872545
v -0.001221954 -0.01316535 0.0188508
v -0.001367688 -0.01239997 0.01889485
v -0.00164622 -0.01316535 0.01779037
v -0.001623988 -0.01239997 0.01819604
v -0.001782119 -0.01239997 0.01785904
v -0.002370059 -0.01239997 0.01691097
v -0.002248167 -0.01316535 0.01681977
v -0.002601683 -0.01239997 0.0166195
v -0.003009557 -0.01316535 0.01596844
v -0.003113746 -0.01239997 0.01607942
v -0.001139461 -0.01239997 0.0199868
v -0.000988327 -0.01316535 0.01996874
v -0.000873435 -0.01339995 0.01995509
v -0.001259267 -0.01381421 0.01759487
v -0.00190103 -0.01381421 0.01656001
v -0.002712786 -0.01381421 0.01565235
v 0.000846413 -0.01439994 0.01974982
v 8.64381e-05 -0.01424771 0.01984053
v -0.00018584 -0.01424771 0.01853787
v -0.000680182 -0.01424771 0.01730227
v -0.001381516 -0.01424771 0.01617127
v -0.002268671 -0.01424771 0.01517933
v 0.000546836 -0.01439994 0.01831656
v 2.93986e-06 -0.01439994 0.0169571
v -0.000768764 -0.01439994 0.01571279
v -0.001744806 -0.01439994 0.01462131
v 0.00263983 -0.01439994 0.03800374
v 0.001887381 -0.01424771 0.03786361
v 0.001249492 -0.01381421 0.03774482
v 0.00082332 -0.01316535 0.03766548
v 0.000673648 -0.01239997 0.03763759
v 0.000736705 -0.01239997 0.03570759
v 0.000887871 -0.01316535 0.03568953
v 0.001002728 -0.01339995 0.03567582
v 0.001318335 -0.01381421 0.03563815
v 0.001729607 -0.01413202 0.03558909
v 0.001962602 -0.01424771 0.03556126
v 0.002722561 -0.01439994 0.03547054
v 0.000930552 -0.01316535 0.03667998
v 0.00077839 -0.01239997 0.03667497
v 0.001363813 -0.01381421 0.0366941
v 0.002012312 -0.01424771 0.03671532
v 0.002777278 -0.01439994 0.0367403
v 0.008174002 0.01179999 -0.000975537
v 0.008288919 0.01156532 -0.000989246
v 0.007989108 0.01156532 -0.002263903
v 0.003098845 0.01156532 -0.006111383
v 0.003114879 0.0108 -0.006262779
v 0.00177133 0.0108 -0.006253957
v 0.008440077 0.0108 -0.001007258
v 0.008132457 0.0108 -0.002315163
v 0.007928788 0.0108 -0.002813518
v 0.007413208 0.01156532 -0.003439962
v 0.007541596 0.0108 -0.0035218
v 0.006884336 0.0108 -0.004373311
v 0.006590008 0.01156532 -0.004458367
v 0.006696999 0.0108 -0.004566729
v 0.005641043 0.0108 -0.005397498
v 0.005560874 0.01156532 -0.005268037
v 0.005409002 0.0108 -0.005534052
v 0.004377365 0.01156532 -0.00582844
v 0.004426717 0.0108 -0.005972445
v 0.003647148 0.0108 -0.006182074
v 0.007447123 0.01253205 -0.000888786
v 0.007858395 0.01221418 -0.000937872
v 0.007580876 0.01221418 -0.002118051
v 0.007047653 0.01221418 -0.003206908
v 0.006285488 0.01221418 -0.004149794
v 0.005332648 0.01221418 -0.004899442
v 0.004236876 0.01221418 -0.0054183
v 0.003053128 0.01221418 -0.005680263
v 0.006454169 0.01279997 -0.000770279
v 0.007214128 0.01264774 -0.00086098
v 0.006969869 0.01264774 -0.001899719
v 0.001789391 0.01156532 -0.0061028
v 0.0018031 0.01179999 -0.005987882
v 0.00184077 0.01221418 -0.005672276
v 0.001889824 0.01253205 -0.005261003
v 0.006500542 0.01264774 -0.002858042
v 0.005829691 0.01264774 -0.003687977
v 0.004991054 0.01264774 -0.004347801
v 0.004026591 0.01264774 -0.004804432
v 0.002984702 0.01264774 -0.005035042
v 0.00191766 0.01264774 -0.005028009
v 0.006249129 0.01279997 -0.001642167
v 0.005855143 0.01279997 -0.002446591
v 0.005292117 0.01279997 -0.003143191
v 0.004588127 0.01279997 -0.003697037
v 0.003778576 0.01279997 -0.004080355
v 0.002904057 0.01279997 -0.004273951
v 0.002008318 0.01279997 -0.00426805
v 0.01208549 0.01279997 0.04641485
v 0.01284551 0.01264774 0.04632413
v 0.01307845 0.01253205 0.04629635
v 0.01348978 0.01221418 0.04624724
v 0.01380532 0.01179999 0.04620957
v 0.01392024 0.01156532 0.04619586
v 0.0140714 0.0108 0.0461778
v -0.000474019 0.01279997 -0.003971755
v -0.000564719 0.01264774 -0.004731774
v -0.000592522 0.01253205 -0.004964709
v -0.000641608 0.01221418 -0.00537604
v -0.000679273 0.01179999 -0.005691647
v -0.000692985 0.01156532 -0.005806505
v -0.000711028 0.0108 -0.005957663
v 0.008792996 0.01179999 0.05258053
v 0.008806705 0.01156532 0.05269539
v 0.01008141 0.01156532 0.05239564
v 0.01392889 0.01156532 0.04750531
v 0.01408028 0.0108 0.04752135
v 0.008824706 0.0108 0.05284661
v 0.01013261 0.0108 0.05253899
v 0.01063096 0.0108 0.05233526
v 0.01125741 0.01156532 0.05181968
v 0.01133924 0.0108 0.05194807
v 0.01219081 0.0108 0.05129081
v 0.01227581 0.01156532 0.05099654
v 0.01238417 0.0108 0.05110347
v 0.01321494 0.0108 0.05004751
v 0.01308548 0.01156532 0.0499674
v 0.0133515 0.0108 0.04981547
v 0.01364588 0.01156532 0.04878389
v 0.01378995 0.0108 0.04883319
v 0.01399952 0.0108 0.04805368
v 0.008706212 0.01253205 0.05185365
v 0.008755326 0.01221418 0.05226492
v 0.009935498 0.01221418 0.05198734
v 0.01102435 0.01221418 0.05145412
v 0.01196724 0.01221418 0.05069202
v 0.01271688 0.01221418 0.04973918
v 0.01323574 0.01221418 0.04864341
v 0.01349771 0.01221418 0.0474596
v 0.008587718 0.01279997 0.0508607
v 0.008678436 0.01264774 0.05162066
v 0.009717166 0.01264774 0.05137634
v 0.01067554 0.01264774 0.05090701
v 0.01150542 0.01264774 0.05023622
v 0.01216524 0.01264774 0.04939758
v 0.01262193 0.01264774 0.04843312
v 0.01285248 0.01264774 0.04739123
v 0.009459614 0.01279997 0.0506556
v 0.01026409 0.01279997 0.05026167
v 0.01096069 0.01279997 0.04969859
v 0.01151454 0.01279997 0.04899466
v 0.01189786 0.01279997 0.04818511
v 0.01209139 0.01279997 0.04731053
v -0.001933276 0.01156532 -0.005518913
v -0.001983642 0.0108 -0.00566256
v -0.003162205 0.0108 -0.005098998
v -0.001789987 0.01221418 -0.005109727
v -0.003081977 0.01156532 -0.004969656
v -0.003021001 0.01179999 -0.004871308
v -0.001575469 0.01264774 -0.004497349
v -0.001322388 0.01279997 -0.00377506
v -0.002853512 0.01221418 -0.00460118
v -0.00263518 0.01253205 -0.004249155
v -0.002511501 0.01264774 -0.004049777
v -0.002108156 0.01279997 -0.003399312
v 0.006342351 0.0108 0.05314284
v 0.006324291 0.01156532 0.05299168
v 0.006310582 0.01179999 0.05287677
v 0.006272912 0.01221418 0.05256116
v 0.006223857 0.01253205 0.05214989
v 0.006196022 0.01264774 0.05191689
v 0.006105303 0.01279997 0.05115693
v -0.01166063 0.0108 0.000171385
v -0.0115804 0.01156532 0.000300764
v -0.01151937 0.01179999 0.000399097
v -0.01135188 0.01221418 0.000669207
v -0.01113355 0.01253205 0.001021206
v -0.01100993 0.01264774 0.001220583
v -0.01060652 0.01279997 0.001871049
v -6.03206e-05 0.01179999 0.04786437
v -0.000175213 0.01156532 0.04787808
v 0.000124575 0.01156532 0.04915279
v 0.005014836 0.01156532 0.05300027
v 0.004998803 0.0108 0.05315166
v -0.00032638 0.0108 0.04789614
v -1.87883e-05 0.0108 0.04920405
v 0.000184931 0.0108 0.0497024
v 0.000700488 0.01156532 0.05032885
v 0.000572124 0.0108 0.05041068
v 0.001229345 0.0108 0.05126219
v 0.001523613 0.01156532 0.05134725
v 0.001416683 0.0108 0.05145561
v 0.002472639 0.0108 0.05228638
v 0.002552807 0.01156532 0.05215692
v 0.002704679 0.0108 0.05242294
v 0.003736317 0.01156532 0.05271732
v 0.003686964 0.0108 0.05286133
v 0.004466474 0.0108 0.05307096
v 0.000666572 0.01253205 0.04777765
v 0.000255273 0.01221418 0.0478267
v 0.000532838 0.01221418 0.04900693
v 0.001066029 0.01221418 0.05009579
v 0.001828193 0.01221418 0.05103868
v 0.002781033 0.01221418 0.05178833
v 0.003876805 0.01221418 0.05230718
v 0.005060553 0.01221418 0.05256915
v 0.001659512 0.01279997 0.04765915
v 0.000899549 0.01264774 0.04774981
v 0.001143813 0.01264774 0.0487886
v 0.00161314 0.01264774 0.04974699
v 0.00228393 0.01264774 0.05057686
v 0.003122627 0.01264774 0.05123668
v 0.00408709 0.01264774 0.05169332
v 0.005128979 0.01264774 0.05192393
v 0.001864552 0.01279997 0.04853105
v 0.002258479 0.01279997 0.04933547
v 0.002821564 0.01279997 0.05003213
v 0.003525555 0.01279997 0.05058598
v 0.004335105 0.01279997 0.0509693
v 0.005209624 0.01279997 0.05116283
v -0.01260322 0.01156532 0.001105487
v -0.01271003 0.0108 0.000997056
v -0.01315945 0.0108 0.001492202
v -0.01342272 0.01156532 0.002116441
v -0.01355087 0.0108 0.002034366
v -0.01414149 0.0108 0.003231942
v -0.01399832 0.01156532 0.003283679
v -0.01445257 0.0108 0.004530549
v -0.01430147 0.01156532 0.004549324
v -0.01449793 0.0108 0.005197703
v -0.01431727 0.01156532 0.005850672
v -0.01446872 0.0108 0.005865752
v -0.01418924 0.0108 0.007171511
v -0.01404482 0.01156532 0.007123231
v -0.01362782 0.0108 0.008383035
v -0.01349765 0.01156532 0.008304059
v -0.01324957 0.0108 0.008934497
v -0.01270288 0.01156532 0.009334623
v -0.01281237 0.0108 0.009440422
v -0.01178324 0.0108 0.01029133
v -0.01169991 0.01156532 0.0101639
v -0.01229888 0.01221418 0.001414239
v -0.01305758 0.01221418 0.00235027
v -0.01359057 0.01221418 0.003430962
v -0.01387125 0.01221418 0.004602789
v -0.01388585 0.01221418 0.005807638
v -0.0136336 0.01221418 0.006985902
v -0.01312702 0.01221418 0.008079171
v -0.0123912 0.01221418 0.009033322
v -0.0114625 0.01221418 0.009801089
v -0.01184344 0.01264774 0.001876354
v -0.01251125 0.01264774 0.002700269
v -0.01298028 0.01264774 0.00365144
v -0.01322734 0.01264774 0.004682779
v -0.01324021 0.01264774 0.005743265
v -0.01301819 0.01264774 0.006780266
v -0.01257234 0.01264774 0.007742524
v -0.01192468 0.01264774 0.008582353
v -0.01110732 0.01264774 0.009258151
v -0.01130616 0.01279997 0.002421498
v -0.01186674 0.01279997 0.003113031
v -0.01226043 0.01279997 0.003911435
v -0.01246786 0.01279997 0.004777133
v -0.01247864 0.01279997 0.005667328
v -0.01229226 0.01279997 0.006537795
v -0.011918 0.01279997 0.007345497
v -0.01137435 0.01279997 0.008050441
v -0.0106883 0.01279997 0.008617639
v 0.00141251 0.01279997 0.0455895
v 0.000652547 0.01264774 0.04568022
v 0.000419571 0.01253205 0.045708
v 8.27184e-06 0.01221418 0.04575711
v -0.000307322 0.01179999 0.04579472
v -0.000422214 0.01156532 0.04580849
v -0.000573389 0.0108 0.04582649
v -0.002895534 0.01279997 0.01371598
v -0.003314554 0.01264774 0.01435643
v -0.003669798 0.01221418 0.01489943
v -0.003907144 0.01156532 0.01526218
v -0.00399053 0.0108 0.01538962
v -0.000460307 0.01156532 0.04492455
v -0.000612461 0.0108 0.04491955
v -0.000514274 0.0108 0.04401707
v -0.000364602 0.01156532 0.04404497
v -0.000250847 0.01179999 0.04406613
v -2.69894e-05 0.01221418 0.04493868
v 0.000621513 0.01264774 0.0449599
v 0.000468828 0.01253205 0.04420018
v 6.16128e-05 0.01221418 0.04412436
v 0.001386463 0.01279997 0.04498487
v 0.001451909 0.01279997 0.04438322
v 0.0006995 0.01264774 0.04424309
v -0.001623988 0.0108 0.01819604
v -0.001367688 0.0108 0.01889485
v -0.001221954 0.01156532 0.0188508
v 2.93986e-06 0.01279997 0.0169571
v -0.000768764 0.01279997 0.01571279
v -0.000680182 0.01264774 0.01730227
v -0.001381516 0.01264774 0.01617127
v -0.001259267 0.01221418 0.01759487
v -0.00190103 0.01221418 0.01656001
v -0.00164622 0.01156532 0.01779037
v -0.002248167 0.01156532 0.01681977
v -0.001782119 0.0108 0.01785904
v -0.001744806 0.01279997 0.01462131
v -0.002268671 0.01264774 0.01517933
v -0.002712786 0.01221418 0.01565235
v -0.003009557 0.01156532 0.01596844
v 0.000846413 0.01279997 0.01974982
v 0.000546836 0.01279997 0.01831656
v 8.64381e-05 0.01264774 0.01984053
v -0.00018584 0.01264774 0.01853787
v -0.000557837 0.01221418 0.01991742
v -0.000806973 0.01221418 0.01872545
v -0.000988327 0.01156532 0.01996874
v -0.001139461 0.0108 0.0199868
v -0.003113746 0.0108 0.01607942
v -0.002601683 0.0108 0.0166195
v -0.002370059 0.0108 0.01691097
v 0.000673648 0.0108 0.03763759
v 0.00082332 0.01156532 0.03766548
v 0.000937075 0.01179999 0.03768664
v 0.001249492 0.01221418 0.03774482
v 0.001656711 0.01253205 0.03782069
v 0.001887381 0.01264774 0.03786361
v 0.00263983 0.01279997 0.03800374
v 0.002722561 0.01279997 0.03547054
v 0.001962602 0.01264774 0.03556126
v 0.001318335 0.01221418 0.03563815
v 0.000887871 0.01156532 0.03568953
v 0.000736705 0.0108 0.03570759
v 0.002777278 0.01279997 0.0367403
v 0.002012312 0.01264774 0.03671532
v 0.000930552 0.01156532 0.03667998
v 0.001363813 0.01221418 0.0366941
v 0.00077839 0.0108 0.03667497
v 0.01175493 0.008299946 0.04786425
v 0.01225143 0.008299946 0.04780495
v 0.01182746 0.008178174 0.04847222
v 0.01232397 0.008178174 0.04841297
v 0.01188904 0.007831335 0.04898762
v 0.01238548 0.007831335 0.04892838
v 0.0119301 0.007312238 0.04933202
v 0.01242661 0.007312238 0.04927277
v 0.01194453 0.006699979 0.04945296
v 0.01244103 0.006699979 0.04939371
v 0.01194453 -0.008299946 0.04945296
v 0.01244103 -0.008299946 0.04939371
v 0.01191914 -0.00909996 0.04924011
v 0.01241564 -0.00909996 0.04918086
v 0.01184976 -0.009685635 0.0486586
v 0.0123462 -0.009685635 0.04859936
v 0.01175493 -0.009899973 0.04786425
v 0.01225143 -0.009899973 0.04780495
v 0.00628829 0.004699945 -0.00216037
v 0.005791783 0.004699945 -0.002101123
v 0.006215691 0.004578173 -0.002768337
v 0.005719244 0.004578173 -0.00270909
v 0.006154179 0.004231333 -0.003283798
v 0.005657732 0.004231333 -0.003224551
v 0.006113111 0.003712236 -0.003628194
v 0.005616605 0.003712236 -0.003568947
v 0.006098628 0.003099977 -0.003749132
v 0.00560218 0.003099977 -0.003689885
v 0.006098628 -0.004699945 -0.003749132
v 0.00560218 -0.004699945 -0.003689885
v 0.006124079 -0.005499958 -0.003536283
v 0.005627572 -0.005499958 -0.003477036
v 0.006193459 -0.006085634 -0.002954721
v 0.005697011 -0.006085634 -0.002895474
v 0.00628829 -0.006299972 -0.00216037
v 0.005791783 -0.006299972 -0.002101123
v 0.01187342 -0.009899973 0.04885721
v 0.01196825 -0.009685635 0.04965156
v 0.01203763 -0.00909996 0.05023306
v 0.01206302 -0.008299946 0.05044591
v 0.01206302 0.006699979 0.05044591
v 0.01203763 0.007499992 0.05023306
v 0.01196825 0.008085608 0.04965156
v 0.01187342 0.008299946 0.04885721
v 0.005673289 0.004699945 -0.003094077
v 0.005509078 -0.005499958 -0.00446999
v 0.005578458 -0.006085634 -0.003888428
v 0.005673289 -0.006299972 -0.003094077
v 0.005578458 0.004485607 -0.003888428
v 0.005509078 0.003899991 -0.00446999
v 0.005483686 0.003099977 -0.004682838
v 0.005483686 -0.004699945 -0.004682838
v 0.005082011 0.004485607 -0.003829181
v 0.005176782 0.004699945 -0.00303483
v 0.005012571 0.003899991 -0.004410684
v 0.005176782 -0.006299972 -0.00303483
v 0.005082011 -0.006085634 -0.003829181
v 0.005012571 -0.005499958 -0.004410684
v 0.00498718 -0.004699945 -0.004623532
v 0.00498718 0.003099977 -0.004623532
v 0.01137697 0.008299946 0.04891645
v 0.01147174 0.008085608 0.04971081
v 0.01137697 -0.009899973 0.04891645
v 0.01147174 -0.009685635 0.04971081
v 0.01154118 -0.00909996 0.05029231
v 0.01154118 0.007499992 0.05029231
v 0.01156657 0.006699979 0.05050516
v 0.01156657 -0.008299946 0.05050516
v 0.01138633 0.008299946 0.04055643
v 0.00890398 0.008299946 0.04085266
v 0.0112915 0.008085608 0.03976207
v 0.008809149 0.008085608 0.04005831
v 0.01122212 0.007499992 0.03918051
v 0.008739769 0.007499992 0.03947681
v 0.01119673 0.006699979 0.03896766
v 0.008714318 0.006699979 0.03926396
v 0.01119673 -0.008299946 0.03896766
v 0.008714318 -0.008299946 0.03926396
v 0.01122212 -0.00909996 0.03918051
v 0.008739769 -0.00909996 0.03947681
v 0.0112915 -0.009685635 0.03976207
v 0.008809149 -0.009685635 0.04005831
v 0.01138633 -0.009899973 0.04055643
v 0.00890398 -0.009899973 0.04085266
v -0.006410658 -0.006299972 -0.003084421
v -0.006410658 -0.006399989 -0.003084421
v -0.004224121 -0.006399989 0.01523679
v -0.004224121 0.004799962 0.01523679
v -0.004224121 -0.006289303 0.01523679
v -0.006410658 0.004799962 -0.003084421
v -0.006410658 0.004699945 -0.003084421
v -0.00424683 0.004512727 0.01504653
v -0.004224121 0.004689276 0.01523679
v -0.00424683 -0.006112694 0.01504653
v -0.004329025 -0.00507456 0.01435774
v -0.004357874 -0.003849983 0.01411586
v -0.004357874 0.002249956 0.01411586
v -0.004329025 0.003474533 0.01435774
v -0.007513761 -0.006399989 0.002972424
v -0.006200432 -0.006399989 0.00625503
v -0.006015956 -0.006399989 0.004974126
v -0.006496667 -0.006399989 0.003772616
v -0.007000625 -0.006399989 0.007272064
v -0.01178324 -0.006399989 0.01029133
v -0.01324957 -0.006399989 0.008934497
v -0.01418924 -0.006399989 0.007171511
v -0.01166063 -0.006399989 0.000171385
v -0.01315945 -0.006399989 0.001492202
v -0.01414149 -0.006399989 0.003231942
v -0.01449793 -0.006399989 0.005197703
v -0.01178324 0.004799962 0.01029133
v -0.007000625 0.004799962 0.007272064
v -0.006200432 0.004799962 0.00625503
v -0.006015956 0.004799962 0.004974126
v -0.006496667 0.004799962 0.003772616
v -0.007513761 0.004799962 0.002972424
v -0.01166063 0.004799962 0.000171385
v -0.01315945 0.004799962 0.001492202
v -0.01324957 0.004799962 0.008934497
v -0.01418924 0.004799962 0.007171511
v -0.01449793 0.004799962 0.005197703
v -0.01414149 0.004799962 0.003231942
v -0.001623988 0.00544995 0.01819604
v -0.002243518 0.00544995 0.01708626
v -0.000951187 0.00544995 0.02156466
v -0.001139461 0.00544995 0.0199868
v -0.000951187 -0.007049977 0.02156466
v -0.001139461 -0.007049977 0.0199868
v -0.001623988 -0.007049977 0.01819604
v -0.002243518 -0.007049977 0.01708626
v -0.000806069 -0.006806373 0.02278059
v -0.000683045 -0.006112694 0.02381145
v -0.00060084 -0.00507456 0.02450025
v -0.000571973 -0.003849983 0.02474212
v -0.000571973 0.002249956 0.02474212
v -0.00060084 0.003474533 0.02450025
v -0.000683045 0.004512727 0.02381145
v -0.000806069 0.005206406 0.02278059
v 0.008892118 -0.009899973 0.04075336
v -0.000106515 -0.009899973 0.04182732
v -0.000514274 -0.009899973 0.04401707
v -0.000573389 -0.009899973 0.04582649
v -0.00032638 -0.009899973 0.04789614
v 0.000184931 -0.009899973 0.0497024
v 0.001229345 -0.009899973 0.05126219
v 0.002704679 -0.009899973 0.05242294
v 0.004466474 -0.009899973 0.05307096
v 0.006342351 -0.009899973 0.05314284
v 0.008824706 -0.009899973 0.05284661
v 0.01063096 -0.009899973 0.05233526
v -0.000106515 0.008299946 0.04182732
v 0.008892118 0.008299946 0.04075336
v -0.00032638 0.008299946 0.04789614
v -0.000573389 0.008299946 0.04582649
v -0.000514274 0.008299946 0.04401707
v 0.006342351 0.008299946 0.05314284
v 0.004466474 0.008299946 0.05307096
v 0.008824706 0.008299946 0.05284661
v 0.01063096 0.008299946 0.05233526
v 0.002704679 0.008299946 0.05242294
v 0.001229345 0.008299946 0.05126219
v 0.000184931 0.008299946 0.0497024
v 0.000281261 0.008399963 0.03189134
v 0.007728397 0.008399963 0.03100258
v 0.000736705 0.008399963 0.03570759
v 0.008798062 0.008399963 0.03996527
v 0.000673648 0.008399963 0.03763759
v 4.57154e-05 0.008399963 0.04100978
v 0.00758326 0.008156359 0.02978664
v 0.000136143 0.008156359 0.03067541
v 0.007460236 0.007462739 0.02875578
v 1.31107e-05 0.007462739 0.02964454
v 0.007378041 0.006424546 0.02806699
v -6.90909e-05 0.006424546 0.02895581
v 0.007349133 0.005199968 0.02782511
v -9.79575e-05 0.005199968 0.02871394
v 0.007349133 -0.006799995 0.02782511
v -9.79575e-05 -0.006799995 0.02871394
v 0.007378041 -0.008024573 0.02806699
v -6.90909e-05 -0.008024573 0.02895581
v 0.007460236 -0.009062707 0.02875578
v 1.31107e-05 -0.009062707 0.02964454
v 0.00758326 -0.009756386 0.02978664
v 0.000136143 -0.009756386 0.03067541
v 0.007728397 -0.00999999 0.03100258
v 0.000281261 -0.00999999 0.03189134
v 0.000673648 -0.00999999 0.03763759
v 4.57154e-05 -0.00999999 0.04100978
v 0.008798062 -0.00999999 0.03996527
v 0.000736705 -0.00999999 0.03570759
v -3.1004e-05 0.008374869 0.04142183
v -3.1004e-05 -0.009974896 0.04142183
v -0.006885588 -0.01439994 0.007799983
v 0.002107262 -0.01439994 -0.002135217
v 0.002825021 -0.01439994 -0.001009404
v 0.007136583 -0.01439994 0.04954612
v 0.008011877 -0.01439994 0.04865914
v 0.008415699 -0.01439994 0.04748028
v 0.002983272 -0.01439994 0.000316259
v 0.002550601 -0.01439994 0.001579284
v 0.008268058 -0.01439994 0.04624295
v 0.000972169 -0.01439994 -0.002838075
v -0.006391048 -0.01439994 0.003135144
v -0.005673289 -0.01439994 0.004260957
v -0.005515098 -0.01439994 0.005586624
v -0.007526218 -0.01439994 0.002432286
v 0.001612782 -0.01439994 0.002529561
v -0.005947709 -0.01439994 0.006849706
v 0.006538689 -0.01439994 0.04453623
v 0.007598102 -0.01439994 0.04519224
v 0.003647148 -0.006299972 -0.006182074
v 0.003647148 0.004699945 -0.006182074
v 0.00177133 -0.006299972 -0.006253957
v 0.00177133 0.004699945 -0.006253957
v -0.000711028 -0.006299972 -0.005957663
v -0.003162205 -0.006299972 -0.005098998
v -0.001983642 -0.006299972 -0.00566256
v -0.002601683 0.005409717 0.0166195
v -0.003232181 0.005206406 0.01597094
v -0.00399053 0.004830956 0.01538962
v 0.002983272 0.01279997 0.000316259
v 0.002550601 0.01279997 0.001579284
v -0.006391048 0.01279997 0.003135144
v -0.007526218 0.01279997 0.002432286
v -0.005947709 0.01279997 0.006849706
v 0.002825021 0.01279997 -0.001009404
v 0.002107262 0.01279997 -0.002135217
v 0.000972169 0.01279997 -0.002838075
v 0.007136583 0.01279997 0.04954612
v 0.008011877 0.01279997 0.04865914
v 0.001612782 0.01279997 0.002529561
v -0.005515098 0.01279997 0.005586624
v -0.005673289 0.01279997 0.004260957
v -0.006885588 0.01279997 0.007799983
v 0.006538689 0.01279997 0.04453623
v 0.007598102 0.01279997 0.04519224
v 0.008268058 0.01279997 0.04624295
v 0.008415699 0.01279997 0.04748028
v -0.000711028 0.004699945 -0.005957663
v -0.003162205 0.004699945 -0.005098998
v -0.001983642 0.004699945 -0.00566256
v -0.00399053 -0.006430923 0.01538962
v -0.003232181 -0.006806373 0.01597094
v -0.002601683 -0.007009744 0.0166195
v -0.004108965 0.004761755 0.01531213
v -0.004108965 -0.006361722 0.01531213
v 0.007200777 -0.006299972 0.005485296
v 0.007345855 -0.006056368 0.006701231
v 0.007468879 -0.005362689 0.007732093
v 0.007551074 -0.004324555 0.008420884
v 0.007579982 -0.003099977 0.00866276
v 0.007579982 0.00149995 0.00866276
v 0.007551074 0.002724528 0.008420884
v 0.007468879 0.003762722 0.007732093
v 0.007345855 0.0044564 0.006701231
v 0.007200777 0.004699945 0.005485296
v 5.62366e-05 0.01069998 -0.002299308
v 0.000609756 0.01069998 -0.002681493
v 0.001198351 0.01069998 -0.001963138
v 0.001712799 0.01069998 -0.00215137
v 0.002019345 0.01069998 -0.001100897
v 0.002476692 0.01069998 -0.001195132
v 0.002299308 0.01069998 5.62369e-05
v 0.002749979 0.01069998 -2.2303e-06
v 0.001963138 0.01069998 0.001198351
v 0.002478599 0.01069998 0.001191139
v 0.001100897 0.01069998 0.002019345
v 0.001716315 0.01069998 0.002148628
v -5.62357e-05 0.01069998 0.002299308
v 0.00061411 0.01069998 0.00268054
v -0.000609759 0.01069998 0.002681493
v -0.001198351 0.01069998 0.001963138
v -0.001712799 0.01069998 0.00215137
v -0.002019345 0.01069998 0.001100897
v -0.002476692 0.01069998 0.001195132
v -0.002299308 0.01069998 -5.62354e-05
v -0.002749979 0.01069998 2.23185e-06
v -0.001963138 0.01069998 -0.001198351
v -0.002478599 0.01069998 -0.001191139
v -0.001100897 0.01069998 -0.002019345
v -0.001716315 0.01069998 -0.002148628
v -0.000614105 0.01069998 -0.00268054
v 0.002478599 0.01239997 0.001191139
v 0.001921713 0.01239997 0.001967072
v 0.001716315 0.01239997 0.002148628
v 0.001133024 0.01239997 0.002505719
v 0.00061411 0.01239997 0.00268054
v 0.000207734 0.01239997 0.002742111
v -0.000742663 0.01239997 0.002647817
v -0.001603484 0.01239997 0.002234101
v -0.002270877 0.01239997 0.001550972
v -0.002476692 0.01239997 0.001195132
v -0.002664387 0.01239997 0.000680746
v -0.002478599 0.01239997 -0.001191139
v -0.002736508 0.01239997 -0.000271591
v -0.002749979 0.01239997 2.23185e-06
v -0.00215137 0.01239997 -0.001712799
v -0.001716315 0.01239997 -0.002148628
v -0.001195132 0.01239997 -0.002476692
v -0.000614105 0.01239997 -0.00268054
v -2.23066e-06 0.01239997 -0.002749979
v 0.000609756 0.01239997 -0.002681493
v 0.001191139 0.01239997 -0.002478599
v 0.001712799 0.01239997 -0.00215137
v 0.002148628 0.01239997 -0.001716315
v 0.002476692 0.01239997 -0.001195132
v 0.00268054 0.01239997 -0.000614109
v 0.002681493 0.01239997 0.000609756
v 0.002749979 0.01239997 -2.2303e-06
v 0.001792311 0.01267713 0.001834571
v 0.002343416 0.01265978 0.00112617
v 0.002208232 0.01269996 0.001061201
v -0.002208232 0.01269996 -0.001061201
v -0.002552211 0.01267713 -0.000253303
v -0.002438008 0.01269996 -0.000241965
v -0.002484977 0.01267713 0.000634902
v -0.002373695 0.01269996 0.000606481
v -0.002117931 0.01267713 0.001446485
v -0.00202316 0.01269996 0.001381754
v -0.00149548 0.01267713 0.002083659
v -0.001428544 0.01269996 0.001990377
v -0.00069265 0.01267713 0.00246948
v -0.000661644 0.01269996 0.002358913
v 0.000193745 0.01267713 0.002557456
v 0.000185071 0.01269996 0.002442955
v 0.00105673 0.01267713 0.002336919
v 0.001009464 0.01269996 0.002232372
v 0.001712083 0.01269996 0.001752436
v 0.002442359 0.01254999 0.001173734
v 0.002399384 0.0126121 0.001153051
v 0.00186032 0.0126121 0.001904189
v 0.001096844 0.0126121 0.002425611
v 0.000201093 0.0126121 0.002654492
v -0.000718932 0.0126121 0.002563178
v -0.001552224 0.0126121 0.002162694
v -0.002198338 0.0126121 0.001501381
v -0.002579271 0.0126121 0.000658994
v -0.002649068 0.0126121 -0.000262913
v -0.002311706 0.01267713 -0.001110911
v -0.002343416 0.01265978 -0.00112617
v -0.002399384 0.0126121 -0.001153051
v -0.002442359 0.01254999 -0.001173734
v 0.001905739 0.01251477 0.00195074
v 0.001123607 0.01251477 0.002484858
v 0.000206006 0.01251477 0.002719342
v -0.000736495 0.01251477 0.002625823
v -0.001590132 0.01251477 0.002215564
v -0.002251982 0.01251477 0.001538038
v -0.002642273 0.01251477 0.00067509
v -0.002713799 0.01251477 -0.000269336
v -0.002458035 0.01251477 -0.001181244
v 0.002458035 0.01251477 0.001181244
v -0.002034068 0.01265978 -0.001619398
v -0.002119958 0.01254999 -0.001687765
v 0.002535223 0.01265978 0.000576498
v 0.002389013 0.01269996 0.00054324
v 0.002599954 0.01265978 -2.10917e-06
v 0.002449989 0.01269996 -1.98804e-06
v 0.002534329 0.01265978 -0.000580611
v 0.002388119 0.01269996 -0.000547113
v 0.002341568 0.01265978 -0.001129984
v 0.002206504 0.01269996 -0.001064777
v 0.002031445 0.01265978 -0.001622676
v 0.001914203 0.01269996 -0.001529097
v 0.001619398 0.01265978 -0.002034068
v 0.001525938 0.01269996 -0.001916706
v 0.00112617 0.01265978 -0.002343416
v 0.001061201 0.01269996 -0.002208232
v 0.000576501 0.01265978 -0.002535223
v 0.000543239 0.01269996 -0.002389013
v -2.10953e-06 0.01265978 -0.002599954
v -1.9885e-06 0.01269996 -0.002449989
v -0.000580611 0.01265978 -0.002534329
v -0.000547113 0.01269996 -0.002388119
v -0.001129984 0.01265978 -0.002341568
v -0.001064777 0.01269996 -0.002206504
v -0.001622676 0.01265978 -0.002031445
v -0.001529097 0.01269996 -0.001914203
v -0.001916706 0.01269996 -0.001525938
v -0.001691222 0.01254999 -0.002117216
v -0.001177668 0.01254999 -0.002440452
v -0.000605133 0.01254999 -0.00264132
v -2.19631e-06 0.01254999 -0.002709805
v 0.000600845 0.01254999 -0.002642333
v 0.001173734 0.01254999 -0.002442359
v 0.001687765 0.01254999 -0.002119958
v 0.002117216 0.01254999 -0.001691222
v 0.002440452 0.01254999 -0.001177668
v 0.00264132 0.01254999 -0.000605132
v 0.002709805 0.01254999 -2.19958e-06
v 0.002642333 0.01254999 0.000600845
v -0.000651239 0.01269996 -0.000953531
v -0.001151382 0.01269996 8.72245e-05
v 0.000500165 0.01269996 -0.001040697
v 0.001151382 0.01269996 -8.72264e-05
v 0.000651237 0.01269996 0.000953529
v -0.000500161 0.01269996 0.001040756
v -0.000651239 0.01119995 -0.000953531
v -0.00090132 0.01119995 -0.000433152
v -0.001151382 0.01119995 8.72245e-05
v 0.000500165 0.01119995 -0.001040697
v -7.55389e-05 0.01119995 -0.000997143
v 0.001151382 0.01119995 -8.72264e-05
v 0.000825782 0.01119995 -0.000563991
v 0.000651237 0.01119995 0.000953529
v 0.000901321 0.01119995 0.000433153
v -0.000500161 0.01119995 0.001040756
v 7.55398e-05 0.01119995 0.000997141
v -0.000825781 0.01119995 0.000563989
v -0.000900618 0.01119995 0.000434615
v -0.000999987 0.01119995 8.11751e-07
v -0.000563991 0.01119995 -0.00082578
v 0.000433153 0.01119995 -0.00090132
v 0.000997144 0.01119995 -7.55385e-05
v 0.000624124 0.01119995 0.000781325
v 0.00022331 0.01119995 0.000974749
v -0.000221728 0.01119995 0.000975107
v -0.000622856 0.01119995 0.000782337
v 0 0.01062262 0
f 97 98 99
f 99 98 100
f 99 100 101
f 101 100 102
f 102 100 103
f 103 100 104
f 101 102 105
f 105 102 103
f 99 101 106
f 106 101 105
f 97 99 107
f 107 99 106
f 98 97 108
f 108 97 107
f 100 98 104
f 104 98 108
f 109 110 104
f 107 111 112
f 113 108 114
f 114 108 107
f 114 107 115
f 115 107 112
f 116 117 103
f 106 118 119
f 105 120 121
f 119 122 106
f 106 122 123
f 106 123 107
f 107 123 124
f 107 124 111
f 121 125 105
f 105 125 126
f 105 126 106
f 106 126 127
f 106 127 118
f 117 128 103
f 103 128 129
f 103 129 105
f 105 129 130
f 105 130 120
f 113 131 108
f 108 131 132
f 108 132 104
f 104 132 133
f 104 133 109
f 110 134 104
f 104 134 135
f 104 135 103
f 103 135 136
f 103 136 116
f 137 138 139
f 138 140 141
f 140 115 112
f 140 112 141
f 141 112 111
f 141 111 142
f 142 111 124
f 142 124 143
f 143 124 123
f 143 123 144
f 144 123 122
f 144 122 145
f 145 122 119
f 145 119 146
f 146 119 118
f 146 118 147
f 147 118 127
f 147 127 148
f 148 127 126
f 148 126 149
f 149 126 125
f 149 125 150
f 150 125 121
f 150 121 151
f 151 121 120
f 151 120 152
f 152 120 130
f 152 130 153
f 153 130 129
f 153 129 154
f 138 141 139
f 139 141 142
f 139 142 155
f 155 142 143
f 155 143 156
f 156 143 144
f 156 144 157
f 157 144 145
f 157 145 158
f 158 145 146
f 158 146 159
f 159 146 147
f 159 147 160
f 160 147 148
f 160 148 161
f 161 148 149
f 161 149 162
f 162 149 150
f 162 150 163
f 163 150 151
f 163 151 164
f 164 151 152
f 164 152 165
f 165 152 153
f 165 153 166
f 166 153 154
f 166 154 167
f 137 139 168
f 168 139 155
f 168 155 169
f 169 155 156
f 169 156 170
f 170 156 157
f 170 157 171
f 171 157 158
f 171 158 172
f 172 158 159
f 172 159 173
f 173 159 160
f 173 160 174
f 174 160 161
f 174 161 175
f 175 161 162
f 175 162 176
f 176 162 163
f 176 163 177
f 177 163 164
f 177 164 178
f 178 164 165
f 178 165 179
f 179 165 166
f 179 166 180
f 180 166 167
f 180 167 181
f 181 167 182
f 167 154 183
f 154 129 128
f 154 128 183
f 183 128 117
f 183 117 184
f 184 117 116
f 184 116 185
f 185 116 136
f 185 136 186
f 186 136 135
f 186 135 187
f 187 135 134
f 187 134 188
f 188 134 110
f 188 110 189
f 189 110 109
f 189 109 190
f 190 109 133
f 190 133 191
f 191 133 132
f 191 132 192
f 192 132 131
f 192 131 193
f 193 131 113
f 193 113 194
f 194 113 114
f 194 114 195
f 195 114 115
f 195 115 140
f 167 183 182
f 182 183 184
f 182 184 196
f 196 184 185
f 196 185 197
f 197 185 186
f 197 186 198
f 198 186 187
f 198 187 199
f 199 187 188
f 199 188 200
f 200 188 189
f 200 189 201
f 201 189 190
f 201 190 202
f 202 190 191
f 202 191 203
f 203 191 192
f 203 192 204
f 204 192 193
f 204 193 205
f 205 193 194
f 205 194 206
f 206 194 195
f 206 195 207
f 207 195 140
f 207 140 138
f 181 182 208
f 208 182 196
f 208 196 209
f 209 196 197
f 209 197 210
f 210 197 198
f 210 198 211
f 211 198 199
f 211 199 212
f 212 199 200
f 212 200 213
f 213 200 201
f 213 201 214
f 214 201 202
f 214 202 215
f 215 202 203
f 215 203 216
f 216 203 204
f 216 204 217
f 217 204 205
f 217 205 218
f 218 205 206
f 218 206 219
f 219 206 207
f 219 207 220
f 220 207 138
f 220 138 137
f 137 168 221
f 221 168 222
f 168 169 222
f 222 169 170
f 222 170 223
f 170 171 223
f 223 171 172
f 223 172 224
f 172 173 224
f 224 173 174
f 224 174 225
f 174 175 225
f 225 175 176
f 225 176 226
f 176 177 226
f 226 177 178
f 226 178 227
f 181 228 180
f 180 228 227
f 180 227 179
f 179 227 178
f 181 208 228
f 228 208 229
f 208 209 229
f 229 209 210
f 229 210 230
f 210 211 230
f 230 211 212
f 230 212 231
f 212 213 231
f 231 213 214
f 231 214 232
f 214 215 232
f 232 215 216
f 232 216 233
f 216 217 233
f 233 217 218
f 233 218 234
f 137 221 220
f 220 221 234
f 220 234 219
f 219 234 218
f 239 241 249
f 251 252 253
f 253 252 235
f 253 235 254
f 255 254 256
f 256 254 235
f 256 235 249
f 249 235 237
f 249 237 239
f 241 243 249
f 249 243 245
f 249 245 247
f 329 330 331
f 331 330 321
f 330 332 333
f 334 331 327
f 327 331 321
f 327 321 325
f 325 321 323
f 319 321 317
f 317 321 330
f 317 330 315
f 315 330 333
f 315 333 313
f 1327 1328 1310
f 1310 1328 1312
f 1328 1329 1312
f 1312 1329 1330
f 1312 1330 1314
f 1330 1331 1314
f 1314 1331 1332
f 1314 1332 1315
f 1332 1333 1315
f 1315 1333 1334
f 1315 1334 1317
f 1317 1334 1335
f 1317 1335 1319
f 1335 1336 1319
f 1319 1336 1337
f 1319 1337 1321
f 1338 1323 1339
f 1339 1323 1321
f 1339 1321 1340
f 1340 1321 1337
f 1338 1341 1323
f 1323 1341 1325
f 1341 1342 1325
f 1325 1342 1343
f 1325 1343 1326
f 1343 1344 1326
f 1326 1344 1345
f 1326 1345 1302
f 1345 1346 1302
f 1302 1346 1347
f 1302 1347 1304
f 1347 1348 1304
f 1304 1348 1349
f 1304 1349 1306
f 1349 1350 1306
f 1306 1350 1351
f 1306 1351 1308
f 1327 1310 1352
f 1352 1310 1308
f 1352 1308 1353
f 1353 1308 1351
f 1354 1355 1356
f 1357 1358 1359
f 1359 1358 1360
f 1359 1360 1361
f 1361 1360 1362
f 1361 1362 1363
f 1363 1362 1364
f 1363 1364 1365
f 1365 1364 1366
f 1365 1366 1367
f 1367 1366 1368
f 1367 1368 1369
f 1369 1368 1370
f 1369 1370 1371
f 1371 1370 1354
f 1371 1354 1372
f 1372 1354 1356
f 1373 1374 1375
f 1375 1374 1355
f 1355 1354 1375
f 1375 1354 1370
f 1375 1370 1376
f 1376 1370 1368
f 1376 1368 1377
f 1377 1368 1366
f 1377 1366 1378
f 1378 1366 1364
f 1378 1364 1379
f 1379 1364 1362
f 1379 1362 1380
f 1380 1362 1360
f 1380 1360 1381
f 1381 1360 1358
f 1381 1358 1382
f 1357 1383 1358
f 1358 1383 1384
f 1358 1384 1382
f 1382 1384 1385
f 1382 1385 1386
f 1373 1375 1387
f 1387 1375 1376
f 1387 1376 1388
f 1388 1376 1377
f 1388 1377 1389
f 1389 1377 1378
f 1389 1378 1390
f 1390 1378 1379
f 1390 1379 1391
f 1391 1379 1380
f 1391 1380 1392
f 1392 1380 1381
f 1392 1381 1393
f 1393 1381 1382
f 1393 1382 1394
f 1394 1382 1386
f 1394 1386 1395
f 1328 1327 1387
f 1387 1327 1396
f 1387 1396 1373
f 1336 1335 1392
f 1392 1335 1334
f 1392 1334 1391
f 1391 1334 1333
f 1391 1333 1390
f 1390 1333 1332
f 1390 1332 1389
f 1389 1332 1331
f 1389 1331 1388
f 1388 1331 1330
f 1388 1330 1387
f 1387 1330 1329
f 1387 1329 1328
f 1336 1392 1337
f 1337 1392 1393
f 1337 1393 1340
f 1340 1393 1394
f 1340 1394 1339
f 1339 1394 1395
f 1339 1395 1338
f 1385 1384 1397
f 1397 1384 1383
f 1395 1386 1398
f 1398 1386 1385
f 1341 1338 1395
f 1356 1399 1400
f 1400 1399 1401
f 1400 1401 1402
f 1402 1401 1403
f 1402 1403 1404
f 1404 1403 1405
f 1404 1405 1406
f 1406 1405 1407
f 1406 1407 1408
f 1408 1407 1409
f 1408 1409 1410
f 1410 1409 1411
f 1410 1411 1412
f 1412 1411 1413
f 1412 1413 1414
f 1414 1413 1415
f 1414 1415 1416
f 1416 1415 1417
f 1416 1417 1418
f 1418 1417 1419
f 1418 1419 1420
f 1420 1419 1421
f 1420 1421 1422
f 1422 1421 1397
f 1422 1397 1423
f 1423 1397 1383
f 1423 1383 1357
f 1385 1397 1398
f 1398 1397 1421
f 1398 1421 1424
f 1424 1421 1419
f 1424 1419 1425
f 1425 1419 1417
f 1425 1417 1426
f 1426 1417 1415
f 1426 1415 1427
f 1427 1415 1413
f 1427 1413 1428
f 1428 1413 1411
f 1428 1411 1429
f 1429 1411 1409
f 1429 1409 1430
f 1430 1409 1407
f 1430 1407 1431
f 1431 1407 1405
f 1431 1405 1432
f 1432 1405 1403
f 1432 1403 1433
f 1433 1403 1401
f 1433 1401 1434
f 1434 1401 1399
f 1434 1399 1435
f 1356 1355 1399
f 1399 1355 1374
f 1399 1374 1435
f 1435 1374 1373
f 1435 1373 1396
f 1395 1398 1341
f 1341 1398 1424
f 1341 1424 1342
f 1342 1424 1425
f 1342 1425 1343
f 1343 1425 1426
f 1343 1426 1344
f 1344 1426 1427
f 1344 1427 1345
f 1345 1427 1428
f 1345 1428 1346
f 1346 1428 1429
f 1346 1429 1347
f 1347 1429 1430
f 1347 1430 1348
f 1348 1430 1431
f 1348 1431 1349
f 1349 1431 1432
f 1349 1432 1350
f 1350 1432 1433
f 1350 1433 1351
f 1351 1433 1434
f 1351 1434 1353
f 1353 1434 1435
f 1353 1435 1352
f 1352 1435 1396
f 1352 1396 1327
f 1420 1422 1436
f 1436 1422 1423
f 1361 1437 1359
f 1359 1437 1436
f 1359 1436 1357
f 1357 1436 1423
f 1412 1414 1438
f 1438 1414 1416
f 1438 1416 1436
f 1436 1416 1418
f 1436 1418 1420
f 1400 1402 1439
f 1439 1402 1404
f 1400 1439 1356
f 1356 1439 1440
f 1356 1440 1372
f 1361 1363 1437
f 1437 1363 1365
f 1437 1365 1441
f 1404 1406 1439
f 1439 1406 1408
f 1439 1408 1438
f 1438 1408 1410
f 1438 1410 1412
f 1365 1367 1441
f 1441 1367 1369
f 1441 1369 1440
f 1440 1369 1371
f 1440 1371 1372
f 1442 1436 1443
f 1443 1436 1437
f 1443 1437 1444
f 1445 1438 1446
f 1446 1438 1436
f 1446 1436 1442
f 1447 1439 1448
f 1448 1439 1438
f 1448 1438 1445
f 1449 1440 1450
f 1450 1440 1439
f 1450 1439 1447
f 1451 1441 1452
f 1452 1441 1440
f 1452 1440 1449
f 1444 1437 1453
f 1453 1437 1441
f 1453 1441 1451
f 1453 1454 1444
f 1444 1454 1455
f 1444 1455 1443
f 1446 1442 1456
f 1456 1442 1443
f 1448 1445 1457
f 1457 1445 1446
f 1450 1447 1458
f 1458 1447 1448
f 1450 1459 1449
f 1449 1459 1460
f 1449 1460 1452
f 1452 1461 1451
f 1451 1461 1462
f 1451 1462 1453
f 1463 1455 1454
f 1443 1455 1463
f 1463 1462 1461
f 1453 1462 1463
f 1463 1459 1450
f 1460 1459 1463
f 1452 1460 1463
f 1461 1452 1463
f 1454 1453 1463
f 1463 1448 1457
f 1458 1448 1463
f 1450 1458 1463
f 1463 1456 1443
f 1446 1456 1463
f 1457 1446 1463
f 1 2 3
f 1 3 4
f 4 3 5
f 4 5 6
f 6 5 7
f 6 7 8
f 8 7 9
f 8 9 10
f 10 9 11
f 10 11 12
f 12 11 13
f 12 13 14
f 14 13 15
f 14 15 16
f 16 15 17
f 16 17 18
f 18 17 19
f 18 19 20
f 20 19 21
f 20 21 22
f 22 21 23
f 22 23 24
f 24 23 25
f 24 25 26
f 26 25 27
f 26 27 28
f 28 27 29
f 28 29 30
f 30 29 31
f 30 31 32
f 32 31 33
f 32 33 34
f 34 33 35
f 34 35 36
f 36 35 2
f 36 2 1
f 15 33 31
f 33 15 35
f 35 15 3
f 35 3 2
f 31 29 15
f 15 29 27
f 15 27 25
f 15 13 11
f 19 17 21
f 21 17 15
f 21 15 23
f 23 15 25
f 5 3 7
f 7 3 15
f 7 15 9
f 9 15 11
f 37 38 39
f 38 40 41
f 42 43 44
f 38 45 40
f 40 45 46
f 40 46 42
f 44 47 48
f 42 44 40
f 40 44 48
f 40 48 49
f 41 50 38
f 38 50 51
f 38 51 39
f 52 53 39
f 39 53 54
f 39 54 37
f 55 37 54
f 55 54 56
f 56 54 53
f 56 53 57
f 57 53 52
f 57 52 58
f 58 52 39
f 58 39 59
f 59 39 51
f 59 51 60
f 60 51 50
f 60 50 61
f 61 50 41
f 61 41 62
f 62 41 40
f 62 40 63
f 63 40 49
f 63 49 64
f 64 49 48
f 64 48 65
f 65 48 47
f 65 47 66
f 66 47 44
f 66 44 67
f 67 44 43
f 67 43 68
f 68 43 42
f 68 42 69
f 69 42 46
f 69 46 70
f 70 46 45
f 70 45 71
f 71 45 38
f 71 38 72
f 72 38 37
f 72 37 55
f 73 74 75
f 73 75 76
f 76 75 77
f 76 77 78
f 78 77 79
f 78 79 80
f 80 79 81
f 80 81 82
f 82 81 83
f 82 83 84
f 84 83 85
f 84 85 86
f 86 85 87
f 86 87 88
f 88 87 89
f 88 89 90
f 90 89 91
f 90 91 92
f 92 91 93
f 92 93 94
f 94 93 95
f 94 95 96
f 96 95 74
f 96 74 73
f 92 232 90
f 90 232 233
f 90 233 88
f 88 233 234
f 88 234 86
f 86 234 221
f 86 221 84
f 84 221 222
f 84 222 82
f 82 222 223
f 82 223 80
f 223 224 80
f 80 224 225
f 80 225 78
f 78 225 226
f 78 226 76
f 76 226 227
f 76 227 73
f 73 227 228
f 73 228 96
f 96 228 229
f 96 229 94
f 94 229 230
f 94 230 92
f 92 230 231
f 92 231 232
f 235 236 237
f 237 236 238
f 237 238 239
f 239 238 240
f 239 240 241
f 241 240 242
f 241 242 243
f 243 242 244
f 243 244 245
f 245 244 246
f 245 246 247
f 247 246 248
f 247 248 249
f 249 248 250
f 257 258 259
f 259 258 260
f 259 260 261
f 261 260 262
f 261 262 263
f 263 262 264
f 263 264 265
f 265 264 266
f 265 266 267
f 267 266 268
f 267 268 269
f 268 270 269
f 269 270 271
f 269 271 272
f 272 271 273
f 272 273 274
f 274 273 275
f 274 275 276
f 276 275 277
f 276 277 278
f 278 277 279
f 278 279 280
f 280 279 281
f 280 281 257
f 257 281 282
f 257 282 258
f 260 283 262
f 262 283 284
f 262 284 264
f 264 284 285
f 264 285 266
f 266 285 286
f 266 286 268
f 268 286 287
f 268 287 270
f 270 287 288
f 270 288 271
f 271 288 289
f 271 289 273
f 273 289 290
f 81 291 83
f 83 291 292
f 83 292 85
f 85 292 293
f 85 293 87
f 87 293 294
f 87 294 89
f 89 294 295
f 89 295 91
f 91 295 296
f 91 296 93
f 296 297 93
f 93 297 298
f 93 298 95
f 95 298 299
f 95 299 74
f 74 299 300
f 74 300 75
f 75 300 301
f 75 301 77
f 77 301 302
f 77 302 79
f 79 302 303
f 79 303 81
f 81 303 304
f 81 304 291
f 296 305 297
f 297 305 306
f 297 306 298
f 298 306 307
f 298 307 299
f 299 307 308
f 299 308 300
f 300 308 309
f 300 309 301
f 301 309 310
f 301 310 302
f 302 310 311
f 302 311 303
f 303 311 312
f 313 314 315
f 315 314 316
f 315 316 317
f 317 316 318
f 317 318 319
f 319 318 320
f 319 320 321
f 321 320 322
f 321 322 323
f 323 322 324
f 323 324 325
f 325 324 326
f 325 326 327
f 327 326 328
f 335 336 337
f 337 336 338
f 337 338 339
f 339 338 340
f 339 340 341
f 341 340 342
f 341 342 343
f 343 342 344
f 343 344 345
f 345 344 346
f 345 346 347
f 347 346 348
f 342 349 344
f 344 349 350
f 344 350 346
f 346 350 351
f 346 351 348
f 348 351 352
f 348 352 353
f 353 352 354
f 353 354 355
f 355 354 356
f 355 356 357
f 356 358 357
f 357 358 359
f 357 359 360
f 360 359 361
f 360 361 362
f 362 361 363
f 362 363 336
f 336 363 364
f 336 364 338
f 338 364 365
f 338 365 340
f 340 365 366
f 340 366 342
f 342 366 367
f 342 367 349
f 364 368 365
f 365 368 369
f 365 369 366
f 366 369 370
f 366 370 367
f 367 370 371
f 367 371 349
f 349 371 372
f 349 372 350
f 350 372 373
f 350 373 351
f 351 373 374
f 351 374 352
f 352 374 375
f 376 377 378
f 378 377 379
f 378 379 380
f 380 379 381
f 380 381 382
f 382 381 383
f 382 383 384
f 384 383 385
f 384 385 386
f 386 385 387
f 386 387 388
f 388 387 389
f 382 390 380
f 380 390 391
f 380 391 378
f 378 391 392
f 378 392 376
f 376 392 393
f 376 393 394
f 394 393 395
f 394 395 396
f 396 395 397
f 396 397 398
f 397 399 398
f 398 399 400
f 398 400 401
f 401 400 402
f 401 402 403
f 403 402 404
f 403 404 388
f 388 404 405
f 388 405 386
f 386 405 406
f 386 406 384
f 384 406 407
f 384 407 382
f 382 407 408
f 382 408 390
f 405 409 406
f 406 409 410
f 406 410 407
f 407 410 411
f 407 411 408
f 408 411 412
f 408 412 390
f 390 412 413
f 390 413 391
f 391 413 414
f 391 414 392
f 392 414 415
f 392 415 393
f 393 415 416
f 417 418 419
f 419 418 420
f 419 420 421
f 421 420 422
f 421 422 423
f 423 422 424
f 423 424 425
f 425 424 426
f 427 428 429
f 429 428 430
f 429 430 431
f 431 430 432
f 431 432 433
f 433 432 434
f 435 436 434
f 435 434 437
f 434 432 437
f 437 432 430
f 437 430 438
f 438 430 428
f 438 428 439
f 440 441 426
f 418 442 443
f 418 443 420
f 420 443 444
f 420 444 422
f 440 426 444
f 444 426 424
f 444 424 422
f 445 446 447
f 447 446 448
f 449 450 451
f 451 450 452
f 453 454 455
f 456 457 458
f 458 457 459
f 458 459 460
f 460 459 461
f 454 462 463
f 464 465 466
f 455 454 467
f 467 454 463
f 467 463 468
f 469 470 471
f 471 470 461
f 471 461 455
f 455 461 459
f 455 459 453
f 453 459 464
f 453 464 472
f 472 464 466
f 473 474 475
f 476 477 478
f 479 480 481
f 477 482 483
f 477 483 478
f 478 483 484
f 478 484 485
f 485 484 486
f 485 486 487
f 487 486 488
f 487 488 489
f 490 491 492
f 492 491 476
f 476 478 492
f 492 478 485
f 492 485 493
f 493 485 487
f 493 487 494
f 494 487 489
f 494 489 495
f 481 496 479
f 479 496 497
f 479 497 498
f 490 492 499
f 499 492 493
f 499 493 500
f 500 493 494
f 500 494 501
f 501 494 495
f 501 495 502
f 503 504 499
f 499 504 505
f 499 505 490
f 506 507 502
f 502 507 508
f 502 508 501
f 501 508 509
f 501 509 500
f 500 509 510
f 500 510 499
f 499 510 511
f 499 511 503
f 474 506 475
f 475 506 502
f 475 502 512
f 512 502 495
f 512 495 513
f 513 495 489
f 513 489 514
f 514 489 488
f 515 473 516
f 516 473 475
f 516 475 498
f 498 475 512
f 498 512 479
f 479 512 513
f 479 513 480
f 480 513 514
f 497 517 498
f 498 517 518
f 498 518 516
f 516 518 519
f 516 519 515
f 515 519 520
f 504 521 505
f 505 521 522
f 505 522 490
f 490 522 523
f 490 523 491
f 491 523 524
f 491 524 476
f 476 524 525
f 476 525 477
f 477 525 526
f 477 526 482
f 482 526 527
f 528 520 529
f 529 520 519
f 529 519 530
f 530 519 518
f 530 518 531
f 531 518 517
f 531 517 532
f 532 517 497
f 532 497 533
f 533 497 496
f 533 496 534
f 534 496 481
f 535 536 537
f 538 539 540
f 541 542 527
f 539 543 544
f 539 544 540
f 540 544 545
f 540 545 546
f 546 545 547
f 546 547 548
f 548 547 549
f 548 549 550
f 551 552 553
f 553 552 538
f 538 540 553
f 553 540 546
f 553 546 554
f 554 546 548
f 554 548 555
f 555 548 550
f 555 550 556
f 527 526 541
f 541 526 525
f 541 525 557
f 551 553 558
f 558 553 554
f 558 554 559
f 559 554 555
f 559 555 560
f 560 555 556
f 560 556 561
f 562 563 558
f 558 563 564
f 558 564 551
f 565 566 561
f 561 566 567
f 561 567 560
f 560 567 568
f 560 568 559
f 559 568 569
f 559 569 558
f 558 569 570
f 558 570 562
f 536 565 537
f 537 565 561
f 537 561 571
f 571 561 556
f 571 556 572
f 572 556 550
f 572 550 573
f 573 550 549
f 574 535 575
f 575 535 537
f 575 537 557
f 557 537 571
f 557 571 541
f 541 571 572
f 541 572 542
f 542 572 573
f 525 524 557
f 557 524 523
f 557 523 575
f 575 523 522
f 575 522 574
f 574 522 521
f 576 577 578
f 534 577 533
f 533 577 576
f 533 576 532
f 532 576 579
f 578 580 576
f 576 580 581
f 576 581 579
f 582 530 579
f 579 530 531
f 579 531 532
f 583 528 582
f 582 528 529
f 582 529 530
f 581 584 579
f 579 584 585
f 579 585 582
f 582 585 586
f 582 586 583
f 583 586 587
f 588 543 589
f 589 543 539
f 589 539 590
f 590 539 538
f 590 538 591
f 591 538 552
f 591 552 592
f 592 552 551
f 592 551 593
f 593 551 564
f 593 564 594
f 594 564 563
f 578 595 580
f 580 595 596
f 580 596 581
f 581 596 597
f 581 597 584
f 584 597 598
f 584 598 585
f 585 598 599
f 585 599 586
f 586 599 600
f 586 600 587
f 587 600 601
f 602 603 604
f 605 606 607
f 608 609 588
f 606 610 611
f 606 611 607
f 607 611 612
f 607 612 613
f 613 612 614
f 613 614 615
f 615 614 616
f 615 616 617
f 618 619 620
f 620 619 605
f 605 607 620
f 620 607 613
f 620 613 621
f 621 613 615
f 621 615 622
f 622 615 617
f 622 617 623
f 588 589 608
f 608 589 590
f 608 590 624
f 618 620 625
f 625 620 621
f 625 621 626
f 626 621 622
f 626 622 627
f 627 622 623
f 627 623 628
f 629 630 625
f 625 630 631
f 625 631 618
f 632 633 628
f 628 633 634
f 628 634 627
f 627 634 635
f 627 635 626
f 626 635 636
f 626 636 625
f 625 636 637
f 625 637 629
f 603 632 604
f 604 632 628
f 604 628 638
f 638 628 623
f 638 623 639
f 639 623 617
f 639 617 640
f 640 617 616
f 641 602 642
f 642 602 604
f 642 604 624
f 624 604 638
f 624 638 608
f 608 638 639
f 608 639 609
f 609 639 640
f 590 591 624
f 624 591 592
f 624 592 642
f 642 592 593
f 642 593 641
f 641 593 594
f 643 644 645
f 595 646 596
f 596 646 647
f 596 647 597
f 597 647 648
f 645 599 648
f 648 599 598
f 648 598 597
f 649 650 651
f 651 650 652
f 651 652 653
f 653 652 654
f 653 654 655
f 655 654 656
f 655 656 657
f 658 659 660
f 660 659 661
f 660 661 662
f 662 661 663
f 662 663 664
f 664 663 665
f 659 666 661
f 661 666 667
f 661 667 663
f 663 667 668
f 663 668 665
f 665 668 669
f 670 671 672
f 672 671 673
f 672 673 674
f 674 673 675
f 674 675 676
f 676 675 677
f 644 601 645
f 645 601 600
f 645 600 599
f 678 643 679
f 679 643 645
f 679 645 680
f 680 645 648
f 680 648 681
f 681 648 647
f 681 647 682
f 682 647 646
f 682 649 681
f 681 649 651
f 681 651 680
f 680 651 653
f 680 653 679
f 679 653 655
f 679 655 678
f 678 655 657
f 683 684 656
f 656 684 685
f 656 685 657
f 669 686 665
f 665 686 683
f 665 683 664
f 664 683 656
f 664 656 662
f 662 656 654
f 662 654 660
f 660 654 652
f 660 652 658
f 658 652 650
f 687 688 669
f 669 688 689
f 669 689 686
f 666 670 667
f 667 670 672
f 667 672 668
f 668 672 674
f 668 674 669
f 669 674 676
f 669 676 687
f 687 676 677
f 687 677 690
f 630 691 631
f 631 691 692
f 631 692 618
f 618 692 693
f 618 693 619
f 619 693 694
f 619 694 605
f 605 694 695
f 605 695 606
f 606 695 696
f 606 696 610
f 610 696 697
f 671 698 699
f 671 699 673
f 673 699 700
f 673 700 675
f 675 700 701
f 675 701 677
f 677 701 702
f 677 702 690
f 703 704 697
f 697 696 703
f 703 696 695
f 703 695 705
f 706 704 707
f 707 704 703
f 707 703 708
f 708 703 705
f 708 705 709
f 709 705 710
f 709 710 711
f 711 710 712
f 695 694 705
f 705 694 693
f 705 693 710
f 710 693 692
f 710 692 712
f 712 692 691
f 713 714 715
f 716 717 718
f 718 717 719
f 719 720 718
f 718 720 721
f 718 721 722
f 722 721 723
f 722 723 724
f 723 725 724
f 724 725 702
f 724 702 701
f 726 717 727
f 727 717 716
f 727 716 728
f 728 716 714
f 714 716 715
f 715 716 718
f 715 718 729
f 729 718 722
f 729 722 730
f 730 722 724
f 730 724 731
f 731 724 701
f 731 701 700
f 732 733 734
f 734 733 713
f 713 715 734
f 734 715 729
f 734 729 735
f 735 729 730
f 735 730 736
f 736 730 731
f 736 731 737
f 737 731 700
f 737 700 699
f 732 734 738
f 738 734 735
f 738 735 739
f 739 735 736
f 739 736 740
f 740 736 737
f 740 737 741
f 741 737 699
f 741 699 698
f 742 706 707
f 742 707 743
f 743 707 708
f 743 708 744
f 744 708 709
f 744 709 745
f 745 709 711
f 745 711 746
f 747 726 748
f 748 726 727
f 748 727 749
f 749 727 728
f 749 728 750
f 750 728 714
f 750 714 751
f 751 714 713
f 751 713 752
f 752 713 733
f 752 733 753
f 753 733 732
f 754 755 747
f 747 748 754
f 754 748 749
f 754 749 756
f 756 749 750
f 756 750 757
f 746 755 745
f 745 755 754
f 745 754 744
f 744 754 756
f 744 756 743
f 743 756 757
f 743 757 742
f 742 757 758
f 750 751 757
f 757 751 752
f 757 752 758
f 758 752 753
f 759 760 761
f 762 763 764
f 760 765 766
f 760 766 761
f 761 766 767
f 761 767 768
f 767 769 768
f 768 769 770
f 768 770 771
f 770 772 771
f 771 772 773
f 771 773 774
f 774 773 775
f 774 775 776
f 776 775 777
f 776 777 762
f 762 777 778
f 762 778 763
f 779 780 781
f 781 780 759
f 759 761 781
f 781 761 768
f 781 768 782
f 782 768 771
f 782 771 783
f 783 771 774
f 783 774 784
f 784 774 776
f 784 776 785
f 785 776 762
f 785 762 786
f 787 788 789
f 789 788 779
f 764 790 762
f 762 790 791
f 762 791 786
f 786 791 792
f 786 792 793
f 779 781 789
f 789 781 782
f 789 782 794
f 794 782 783
f 794 783 795
f 795 783 784
f 795 784 796
f 796 784 785
f 796 785 797
f 797 785 786
f 797 786 798
f 798 786 793
f 798 793 799
f 787 789 800
f 800 789 794
f 800 794 801
f 801 794 795
f 801 795 802
f 802 795 796
f 802 796 803
f 803 796 797
f 803 797 804
f 804 797 798
f 804 798 805
f 805 798 799
f 805 799 806
f 787 807 788
f 788 807 808
f 788 808 779
f 779 808 809
f 779 809 780
f 780 809 810
f 780 810 759
f 759 810 811
f 759 811 760
f 760 811 812
f 760 812 765
f 765 812 813
f 814 806 815
f 815 806 799
f 815 799 816
f 816 799 793
f 816 793 817
f 817 793 792
f 817 792 818
f 818 792 791
f 818 791 819
f 819 791 790
f 819 790 820
f 820 790 764
f 821 822 823
f 824 825 813
f 822 826 827
f 822 827 823
f 823 827 828
f 823 828 829
f 828 830 829
f 829 830 831
f 829 831 832
f 831 833 832
f 832 833 834
f 832 834 835
f 835 834 836
f 835 836 837
f 837 836 838
f 837 838 824
f 824 838 839
f 824 839 825
f 840 841 842
f 842 841 821
f 821 823 842
f 842 823 829
f 842 829 843
f 843 829 832
f 843 832 844
f 844 832 835
f 844 835 845
f 845 835 837
f 845 837 846
f 846 837 824
f 846 824 847
f 848 849 850
f 850 849 840
f 813 812 824
f 824 812 811
f 824 811 847
f 847 811 810
f 847 810 809
f 840 842 850
f 850 842 843
f 850 843 851
f 851 843 844
f 851 844 852
f 852 844 845
f 852 845 853
f 853 845 846
f 853 846 854
f 854 846 847
f 854 847 855
f 855 847 809
f 855 809 808
f 848 850 856
f 856 850 851
f 856 851 857
f 857 851 852
f 857 852 858
f 858 852 853
f 858 853 859
f 859 853 854
f 859 854 860
f 860 854 855
f 860 855 861
f 861 855 808
f 861 808 807
f 862 863 864
f 820 863 819
f 819 863 862
f 819 862 818
f 818 862 865
f 864 866 862
f 862 866 867
f 862 867 865
f 868 816 865
f 865 816 817
f 865 817 818
f 869 814 868
f 868 814 815
f 868 815 816
f 867 870 865
f 865 870 871
f 865 871 868
f 868 871 872
f 868 872 869
f 869 872 873
f 874 826 875
f 875 826 822
f 875 822 876
f 876 822 821
f 876 821 877
f 877 821 841
f 877 841 878
f 878 841 840
f 878 840 879
f 879 840 849
f 879 849 880
f 880 849 848
f 864 881 866
f 866 881 882
f 866 882 867
f 867 882 883
f 867 883 870
f 870 883 884
f 870 884 871
f 871 884 885
f 871 885 872
f 872 885 886
f 872 886 873
f 873 886 887
f 888 889 890
f 891 892 874
f 889 893 894
f 889 894 890
f 890 894 895
f 890 895 896
f 895 897 896
f 896 897 898
f 896 898 899
f 898 900 899
f 899 900 901
f 899 901 902
f 902 901 903
f 902 903 904
f 904 903 905
f 904 905 891
f 891 905 906
f 891 906 892
f 907 908 909
f 909 908 888
f 888 890 909
f 909 890 896
f 909 896 910
f 910 896 899
f 910 899 911
f 911 899 902
f 911 902 912
f 912 902 904
f 912 904 913
f 913 904 891
f 913 891 914
f 915 916 917
f 917 916 907
f 874 875 891
f 891 875 876
f 891 876 914
f 914 876 877
f 914 877 878
f 907 909 917
f 917 909 910
f 917 910 918
f 918 910 911
f 918 911 919
f 919 911 912
f 919 912 920
f 920 912 913
f 920 913 921
f 921 913 914
f 921 914 922
f 922 914 878
f 922 878 879
f 915 917 923
f 923 917 918
f 923 918 924
f 924 918 919
f 924 919 925
f 925 919 920
f 925 920 926
f 926 920 921
f 926 921 927
f 927 921 922
f 927 922 928
f 928 922 879
f 928 879 880
f 883 882 929
f 882 881 930
f 882 930 929
f 929 930 931
f 929 931 932
f 931 933 932
f 932 933 934
f 932 934 935
f 935 934 936
f 935 936 937
f 937 936 938
f 937 938 939
f 938 940 939
f 939 940 941
f 939 941 942
f 942 941 943
f 942 943 944
f 944 943 945
f 944 945 946
f 945 947 946
f 946 947 948
f 946 948 949
f 885 884 950
f 950 884 883
f 883 929 950
f 950 929 932
f 950 932 951
f 951 932 935
f 951 935 952
f 952 935 937
f 952 937 953
f 953 937 939
f 953 939 954
f 954 939 942
f 954 942 955
f 955 942 944
f 955 944 956
f 956 944 946
f 956 946 957
f 957 946 949
f 957 949 958
f 887 886 959
f 959 886 885
f 885 950 959
f 959 950 951
f 959 951 960
f 960 951 952
f 960 952 961
f 961 952 953
f 961 953 962
f 962 953 954
f 962 954 963
f 963 954 955
f 963 955 964
f 964 955 956
f 964 956 965
f 965 956 957
f 965 957 966
f 966 957 958
f 966 958 967
f 887 959 968
f 968 959 960
f 968 960 969
f 969 960 961
f 969 961 970
f 970 961 962
f 970 962 971
f 971 962 963
f 971 963 972
f 972 963 964
f 972 964 973
f 973 964 965
f 973 965 974
f 974 965 966
f 974 966 975
f 975 966 967
f 975 967 976
f 915 977 916
f 916 977 978
f 916 978 907
f 907 978 979
f 907 979 908
f 908 979 980
f 908 980 888
f 888 980 981
f 888 981 889
f 889 981 982
f 889 982 893
f 893 982 983
f 984 976 967
f 984 967 985
f 985 967 958
f 985 958 986
f 986 958 949
f 986 949 987
f 987 949 948
f 987 948 988
f 989 990 983
f 991 990 992
f 992 990 989
f 992 989 993
f 993 989 994
f 983 982 989
f 989 982 981
f 989 981 994
f 995 996 994
f 994 996 997
f 994 997 993
f 998 999 995
f 995 999 1000
f 995 1000 996
f 981 980 994
f 994 980 979
f 994 979 995
f 995 979 978
f 995 978 998
f 998 978 977
f 1001 1002 1003
f 1004 1005 1006
f 1006 1005 1007
f 1006 1007 1008
f 1008 1007 1009
f 1008 1009 1010
f 1010 1009 1011
f 1010 1011 1012
f 1013 984 1014
f 1014 984 985
f 1014 985 1015
f 1015 985 986
f 1015 986 1016
f 1016 986 987
f 1017 1018 1019
f 1019 1018 1020
f 1019 1020 1021
f 1021 1020 1022
f 1021 1022 1023
f 1023 1022 1003
f 1023 1003 1024
f 1024 1003 1002
f 1012 1001 1010
f 1010 1001 1003
f 1010 1003 1008
f 1008 1003 1022
f 1008 1022 1006
f 1006 1022 1020
f 1006 1020 1004
f 1004 1020 1018
f 1025 1026 1011
f 1011 1026 1027
f 1011 1027 1012
f 1005 1013 1007
f 1007 1013 1014
f 1007 1014 1009
f 1009 1014 1015
f 1009 1015 1011
f 1011 1015 1016
f 1011 1016 1025
f 1025 1016 987
f 1025 987 988
f 1028 991 1029
f 1029 991 992
f 1029 992 1030
f 1030 992 993
f 1030 993 1031
f 1031 993 997
f 1031 997 1032
f 1032 997 996
f 1032 996 1033
f 1033 996 1000
f 1033 1000 1034
f 1034 1000 999
f 1035 1017 1019
f 1035 1019 1036
f 1036 1019 1021
f 1036 1021 1037
f 1037 1021 1023
f 1037 1023 1038
f 1038 1023 1024
f 1038 1024 1039
f 1034 1040 1033
f 1033 1040 1041
f 1042 1030 1043
f 1043 1030 1031
f 1043 1031 1041
f 1041 1031 1032
f 1041 1032 1033
f 1044 1028 1042
f 1042 1028 1029
f 1042 1029 1030
f 1040 1035 1041
f 1041 1035 1036
f 1041 1036 1043
f 1043 1036 1037
f 1043 1037 1042
f 1042 1037 1038
f 1042 1038 1044
f 1044 1038 1039
f 1045 1046 1047
f 1047 1046 1048
f 1047 1048 1049
f 1049 1048 1050
f 1049 1050 1051
f 1051 1050 1052
f 1051 1052 1053
f 1053 1052 1054
f 1055 1056 1057
f 1057 1056 1058
f 1057 1058 1059
f 1059 1058 1060
f 1059 1060 1061
f 1061 1060 1062
f 1063 1064 1065
f 1065 1064 1066
f 1065 1066 1067
f 1067 1066 1068
f 1067 1068 1069
f 1069 1068 1070
f 1069 1070 1071
f 1071 1070 1072
f 1073 1074 1075
f 1075 1074 1076
f 1075 1076 1077
f 1077 1076 1078
f 1077 1078 1079
f 1079 1078 1080
f 1059 1061 1081
f 1059 1081 1057
f 1057 1081 1082
f 1057 1082 1055
f 1082 1083 1055
f 1055 1083 1084
f 1055 1084 1053
f 1053 1084 1085
f 1053 1085 1051
f 1051 1085 1086
f 1051 1086 1049
f 1049 1086 1087
f 1049 1087 1047
f 1047 1087 1088
f 1047 1088 1045
f 1055 1053 1056
f 1056 1053 1054
f 1066 1064 1089
f 1074 1090 1076
f 1076 1090 1091
f 1076 1091 1078
f 1078 1091 1092
f 1078 1092 1080
f 1066 1089 1068
f 1068 1089 1093
f 1068 1093 1070
f 1070 1093 1094
f 1070 1094 1072
f 1072 1094 1095
f 1072 1095 1074
f 1074 1095 1096
f 1074 1096 1090
f 1073 1071 1074
f 1074 1071 1072
f 1097 1098 449
f 1097 449 1099
f 451 1100 1101
f 1101 1102 451
f 451 1102 1103
f 451 1103 449
f 449 1103 1104
f 449 1104 1099
f 447 1105 1106
f 1107 445 1108
f 1108 445 1109
f 1106 1110 447
f 447 1110 1111
f 447 1111 445
f 445 1111 1112
f 445 1112 1109
f 1113 1114 1115
f 1115 1114 1116
f 1115 1116 1117
f 1117 1116 1118
f 1117 1118 1119
f 1119 1118 1120
f 1121 1119 1122
f 1122 1119 1120
f 1121 1122 1123
f 1123 1122 1124
f 1123 1124 1125
f 1125 1124 1126
f 1125 1126 1127
f 1127 1126 1128
f 1129 1130 433
f 433 1130 1131
f 1132 419 421
f 1133 429 1131
f 1131 429 431
f 1131 431 433
f 419 1132 417
f 417 1132 1134
f 417 1134 1135
f 421 423 1132
f 1132 423 1136
f 1132 1136 1137
f 1133 1138 429
f 429 1138 1139
f 429 1139 427
f 427 1139 1140
f 427 1140 425
f 425 1140 1141
f 425 1141 423
f 423 1141 1142
f 423 1142 1136
f 379 377 1130
f 1130 377 1143
f 1144 1131 1145
f 1145 1131 1130
f 1145 1130 1146
f 1146 1130 1143
f 1144 1147 1131
f 1131 1147 389
f 1131 389 1148
f 1148 389 387
f 1148 387 1149
f 1149 387 385
f 1149 385 1150
f 1150 385 383
f 1130 1151 379
f 379 1151 1152
f 379 1152 381
f 381 1152 1153
f 381 1153 383
f 383 1153 1154
f 383 1154 1150
f 343 345 1155
f 1156 1157 1132
f 1132 1157 1158
f 1132 1158 1134
f 1134 1158 1159
f 1155 345 1132
f 1132 345 347
f 1132 347 1156
f 1159 1160 1134
f 1134 1160 335
f 1134 335 1161
f 1161 335 337
f 1161 337 1162
f 1162 337 339
f 1155 1163 343
f 343 1163 1164
f 343 1164 341
f 341 1164 1165
f 341 1165 339
f 339 1165 1166
f 339 1166 1162
f 1167 1168 460
f 461 1169 460
f 460 1169 1170
f 460 1170 1167
f 1171 454 1172
f 1172 454 453
f 1172 453 1173
f 1173 453 1174
f 454 1171 462
f 462 1171 1175
f 462 1175 463
f 463 1175 1176
f 463 1176 468
f 468 1176 1177
f 468 1177 467
f 467 1177 1178
f 467 1178 455
f 455 1178 1179
f 455 1179 471
f 471 1179 1180
f 471 1180 469
f 469 1180 1181
f 469 1181 470
f 470 1181 1182
f 470 1182 461
f 461 1182 1169
f 1183 1184 1185
f 1183 1185 1128
f 1128 1185 1186
f 1128 1186 1187
f 1107 1081 1061
f 1187 1188 1128
f 1128 1188 1189
f 1128 1189 1190
f 1190 1191 1128
f 1128 1191 1192
f 1128 1192 1193
f 1062 1127 1061
f 1061 1127 1128
f 1061 1128 1107
f 1107 1128 1193
f 1107 1193 445
f 445 1193 1194
f 445 1194 446
f 1195 1196 1114
f 1113 1046 1114
f 1114 1046 1045
f 1114 1045 1195
f 1195 1045 1088
f 1195 1088 1105
f 1197 1198 1105
f 1105 1198 1199
f 1105 1199 1195
f 1197 1200 1201
f 1200 1197 1202
f 1202 1197 1105
f 1202 1105 1203
f 1203 1105 447
f 1203 447 448
f 1201 1204 1197
f 1197 1204 1205
f 1197 1205 1206
f 1207 1208 1209
f 1209 1208 1210
f 1209 1210 1211
f 1211 1210 1212
f 1208 1207 1213
f 1213 1207 1214
f 1213 1214 1215
f 1215 1214 1216
f 1215 1216 1217
f 1217 1216 1218
f 1217 1218 1219
f 1219 1218 1220
f 1219 1220 1221
f 1221 1220 1222
f 1221 1222 1223
f 1223 1222 1224
f 1223 1224 1225
f 1225 1224 1226
f 1225 1226 1227
f 1227 1226 1228
f 1227 1228 1229
f 1229 1228 1230
f 1231 1232 1233
f 1229 1230 1233
f 1233 1230 1234
f 1233 1234 1231
f 1212 1210 1235
f 1235 1210 1196
f 1235 1196 1195
f 1184 1183 1236
f 1236 1183 1233
f 1236 1233 1232
f 698 409 1237
f 614 612 318
f 318 612 320
f 1238 514 1239
f 1239 514 488
f 1239 488 486
f 612 611 320
f 320 611 610
f 320 610 322
f 322 610 697
f 322 697 324
f 614 318 616
f 616 318 316
f 616 316 640
f 640 316 609
f 609 316 314
f 609 314 588
f 588 314 543
f 543 314 1240
f 543 1240 544
f 544 1240 1241
f 544 1241 545
f 545 1241 547
f 547 1241 1242
f 547 1242 549
f 486 484 1239
f 1239 484 483
f 1239 483 1243
f 1243 483 482
f 1243 482 1244
f 1244 482 527
f 1244 527 1245
f 1245 527 542
f 1245 542 1242
f 1242 542 573
f 1242 573 549
f 310 578 311
f 311 578 577
f 311 577 312
f 312 577 534
f 312 534 1246
f 1246 534 481
f 1246 481 1238
f 1238 481 480
f 1238 480 514
f 1247 308 1248
f 1248 308 307
f 1248 307 1249
f 1249 307 306
f 1249 306 305
f 414 646 415
f 415 646 595
f 415 595 416
f 416 595 578
f 416 578 1250
f 1250 578 310
f 1250 310 1247
f 1247 310 309
f 1247 309 308
f 413 649 414
f 414 649 682
f 414 682 646
f 412 658 413
f 413 658 650
f 413 650 649
f 697 704 324
f 324 704 706
f 324 706 326
f 326 706 742
f 326 742 328
f 328 742 758
f 753 732 1251
f 1251 732 738
f 1251 738 739
f 305 1251 1249
f 1249 1251 739
f 1249 739 1252
f 1252 739 740
f 1252 740 1237
f 1237 740 741
f 1237 741 698
f 411 666 412
f 412 666 659
f 412 659 658
f 409 698 410
f 410 698 671
f 410 671 411
f 411 671 670
f 411 670 666
f 758 753 328
f 328 753 1251
f 328 1251 1253
f 1253 1251 1244
f 1253 1244 1254
f 1254 1244 1245
f 563 1193 594
f 594 1193 1192
f 448 446 568
f 568 446 569
f 569 446 1194
f 569 1194 570
f 826 1202 827
f 827 1202 1203
f 570 1194 562
f 562 1194 1193
f 562 1193 563
f 521 813 574
f 574 813 825
f 574 825 535
f 535 825 839
f 535 839 536
f 536 839 838
f 536 838 565
f 565 838 836
f 565 836 566
f 566 836 834
f 566 834 567
f 567 834 833
f 567 833 568
f 568 833 831
f 568 831 448
f 448 831 830
f 448 830 1203
f 1203 830 828
f 1203 828 827
f 813 521 765
f 765 521 504
f 506 474 452
f 452 474 1255
f 775 450 777
f 777 450 1256
f 777 1256 778
f 520 1257 515
f 515 1257 1255
f 515 1255 473
f 473 1255 474
f 778 1256 763
f 763 1256 1258
f 763 1258 764
f 452 450 506
f 506 450 775
f 506 775 507
f 507 775 773
f 507 773 508
f 508 773 772
f 508 772 509
f 509 772 770
f 509 770 510
f 510 770 769
f 510 769 511
f 511 769 767
f 511 767 503
f 503 767 766
f 503 766 504
f 504 766 765
f 528 1259 520
f 520 1259 1257
f 587 1260 1261
f 587 1261 583
f 583 1261 1259
f 583 1259 528
f 1024 1002 1170
f 1170 1002 1167
f 1002 1001 1167
f 1167 1001 1012
f 1167 1012 1168
f 1168 1012 1027
f 1168 1027 1262
f 1027 1026 1262
f 1262 1026 1025
f 1262 1025 1263
f 1263 1025 988
f 1263 988 1264
f 1182 1039 1169
f 1169 1039 1024
f 1169 1024 1170
f 747 1175 726
f 726 1175 1171
f 726 1171 1172
f 1220 1218 1181
f 1181 1218 1216
f 1181 1216 1182
f 1182 1216 1214
f 1182 1214 1039
f 1039 1214 1207
f 1039 1207 1209
f 1181 1180 1220
f 1220 1180 1179
f 1220 1179 1222
f 1234 1230 747
f 747 1230 1228
f 747 1228 1175
f 1175 1228 1226
f 1175 1226 1176
f 1176 1226 1224
f 1176 1224 1177
f 1177 1224 1222
f 1177 1222 1178
f 1178 1222 1179
f 1039 1209 1044
f 1044 1209 1211
f 1044 1211 1028
f 1199 991 1195
f 1195 991 1235
f 1028 1211 991
f 991 1211 1212
f 991 1212 1235
f 691 1186 712
f 712 1186 1185
f 712 1185 711
f 630 1187 691
f 691 1187 1186
f 594 1192 641
f 641 1192 1191
f 1190 603 1191
f 1191 603 602
f 1191 602 641
f 635 634 1189
f 1189 634 633
f 1189 633 1190
f 1190 633 632
f 1190 632 603
f 635 1189 636
f 636 1189 1188
f 636 1188 637
f 637 1188 629
f 629 1188 1187
f 629 1187 630
f 242 977 915
f 1265 1266 807
f 242 915 244
f 977 242 998
f 998 242 240
f 998 240 999
f 1267 290 289
f 248 246 926
f 915 923 244
f 244 923 924
f 244 924 246
f 246 924 925
f 246 925 926
f 999 240 1034
f 1034 240 238
f 1034 238 1040
f 1267 289 1268
f 1268 289 288
f 1268 288 368
f 1013 1005 1269
f 371 370 970
f 368 887 369
f 369 887 968
f 369 968 370
f 370 968 969
f 370 969 970
f 801 1270 800
f 800 1270 1265
f 800 1265 787
f 787 1265 807
f 1013 1269 984
f 1271 805 1272
f 1272 805 806
f 1272 806 283
f 801 802 1270
f 1270 802 803
f 1270 803 1271
f 1271 803 804
f 1271 804 805
f 288 287 368
f 368 287 286
f 368 286 887
f 887 286 285
f 887 285 873
f 873 285 284
f 873 284 869
f 869 284 283
f 869 283 814
f 814 283 806
f 926 927 248
f 248 927 928
f 248 928 250
f 250 928 880
f 250 880 1273
f 1273 880 848
f 1273 848 1274
f 1004 1018 1275
f 1275 1018 1017
f 970 971 371
f 371 971 972
f 371 972 372
f 1005 1004 1269
f 1269 1004 1275
f 1269 1275 1276
f 1276 1275 290
f 1276 290 1277
f 1277 290 1267
f 1266 1275 236
f 236 1275 1017
f 236 1017 238
f 238 1017 1035
f 238 1035 1040
f 1269 1278 984
f 984 1278 375
f 984 375 976
f 976 375 374
f 976 374 975
f 975 374 373
f 975 373 974
f 974 373 372
f 974 372 973
f 973 372 972
f 236 1279 1266
f 1266 1279 1280
f 1266 1280 807
f 807 1280 1281
f 807 1281 861
f 861 1281 1282
f 861 1282 860
f 860 1282 859
f 848 856 1274
f 1274 856 857
f 1274 857 1282
f 1282 857 858
f 1282 858 859
f 874 1200 826
f 826 1200 1202
f 764 1258 820
f 820 1258 1283
f 1284 864 863
f 1284 863 1285
f 1285 863 820
f 1285 820 1283
f 720 1173 1174
f 1286 702 1287
f 1287 702 725
f 1287 725 1288
f 1288 725 723
f 1288 723 1174
f 1174 723 721
f 1174 721 720
f 726 1172 717
f 717 1172 1173
f 717 1173 719
f 719 1173 720
f 746 1231 755
f 755 1231 1234
f 755 1234 747
f 711 1185 1184
f 1231 746 1232
f 1232 746 711
f 1232 711 1236
f 1236 711 1184
f 991 1199 990
f 990 1199 1198
f 990 1198 983
f 983 1198 893
f 893 1198 1197
f 874 892 1200
f 1200 892 1201
f 903 1204 905
f 905 1204 1201
f 905 1201 906
f 906 1201 892
f 903 901 1204
f 1204 901 900
f 1204 900 1205
f 900 898 1205
f 1205 898 897
f 1205 897 1206
f 893 1197 894
f 894 1197 1206
f 894 1206 895
f 895 1206 897
f 1289 1137 1136
f 458 460 1168
f 1264 456 1263
f 1263 456 458
f 1263 458 1262
f 1262 458 1168
f 1264 1289 456
f 456 1289 1136
f 456 1136 457
f 457 1136 1142
f 457 1142 459
f 459 1142 1141
f 464 459 1140
f 1140 459 1141
f 1174 453 1288
f 1288 453 472
f 1133 1290 466
f 466 1290 1286
f 466 1286 472
f 472 1286 1287
f 472 1287 1288
f 464 1140 465
f 465 1140 1139
f 465 1139 466
f 466 1139 1138
f 466 1138 1133
f 451 452 1255
f 1080 1092 1100
f 1129 433 436
f 436 433 434
f 62 63 1291
f 62 1291 61
f 67 68 436
f 63 64 1291
f 1291 64 65
f 1291 65 436
f 436 65 66
f 436 66 67
f 1129 72 1260
f 1260 72 55
f 1260 55 1261
f 1261 55 56
f 1291 1079 61
f 61 1079 1080
f 61 1080 60
f 60 1080 1100
f 60 1100 59
f 59 1100 451
f 59 451 58
f 58 451 1255
f 58 1255 57
f 57 1255 1257
f 57 1257 56
f 56 1257 1259
f 56 1259 1261
f 68 69 436
f 436 69 70
f 436 70 1129
f 1129 70 71
f 1129 71 72
f 1291 436 1292
f 1292 436 435
f 1292 435 1293
f 1293 435 437
f 1293 437 1294
f 1294 437 438
f 1294 438 1295
f 1295 438 439
f 1296 441 1297
f 1297 441 440
f 1297 440 1298
f 1298 440 444
f 1298 444 1299
f 1299 444 443
f 1299 443 1300
f 1300 443 442
f 1256 450 449
f 1098 1089 1064
f 8 10 1300
f 10 12 1300
f 1300 12 14
f 1300 14 1063
f 8 1300 6
f 6 1300 442
f 6 442 4
f 34 36 442
f 442 36 1
f 442 1 4
f 418 417 442
f 442 417 1135
f 442 1135 34
f 34 1135 32
f 1063 14 1064
f 1064 14 16
f 1064 16 1098
f 1098 16 18
f 1098 18 449
f 449 18 20
f 449 20 1256
f 1256 20 22
f 1256 22 1258
f 1258 22 1283
f 1283 22 24
f 1283 24 1285
f 1285 24 26
f 1285 26 1284
f 1284 26 28
f 1284 28 1135
f 1135 28 30
f 1135 30 32
f 439 428 427
f 425 426 441
f 1296 1295 441
f 441 1295 439
f 441 439 425
f 425 439 427
f 1129 1260 1130
f 1130 1260 587
f 1130 587 1151
f 1151 587 601
f 690 1148 687
f 687 1148 1149
f 687 1149 688
f 688 1149 689
f 689 1149 1150
f 689 1150 686
f 686 1150 683
f 683 1150 1154
f 683 1154 684
f 684 1154 685
f 685 1154 1153
f 685 1153 657
f 657 1153 678
f 678 1153 1152
f 678 1152 643
f 643 1152 644
f 644 1152 1151
f 644 1151 601
f 1155 1132 948
f 948 1132 988
f 1137 1289 1132
f 1132 1289 1264
f 1132 1264 988
f 1133 1131 1290
f 1290 1131 1286
f 1148 690 1131
f 1131 690 702
f 1131 702 1286
f 1161 881 1134
f 1134 881 864
f 1134 864 1135
f 1135 864 1284
f 948 947 1155
f 1155 947 1163
f 947 945 1163
f 1163 945 943
f 1163 943 1164
f 943 941 1164
f 1164 941 940
f 1164 940 1165
f 940 938 1165
f 1165 938 936
f 1165 936 1166
f 936 934 1166
f 1166 934 933
f 1166 933 1162
f 881 1161 930
f 930 1161 1162
f 930 1162 931
f 931 1162 933
f 1229 1233 1126
f 1126 1233 1183
f 1126 1183 1128
f 1213 1120 1208
f 1208 1120 1118
f 1208 1118 1210
f 1210 1118 1116
f 1210 1116 1196
f 1196 1116 1114
f 1126 1124 1229
f 1229 1124 1122
f 1229 1122 1227
f 1215 1217 1219
f 1213 1215 1120
f 1120 1215 1219
f 1120 1219 1122
f 1122 1219 1221
f 1221 1223 1122
f 1122 1223 1225
f 1122 1225 1227
f 1081 1107 1082
f 1082 1107 1108
f 1082 1108 1083
f 1083 1108 1109
f 1083 1109 1084
f 1084 1109 1112
f 1084 1112 1085
f 1085 1112 1111
f 1085 1111 1086
f 1086 1111 1110
f 1086 1110 1087
f 1087 1110 1106
f 1087 1106 1088
f 1088 1106 1105
f 1095 1104 1096
f 1096 1104 1103
f 1063 1065 1067
f 1075 1077 1073
f 1073 1077 1079
f 1073 1079 1071
f 1071 1079 1063
f 1071 1063 1069
f 1069 1063 1067
f 1293 1294 1292
f 1292 1294 1295
f 1292 1295 1291
f 1291 1295 1079
f 1296 1297 1298
f 1079 1295 1063
f 1063 1295 1296
f 1063 1296 1300
f 1300 1296 1298
f 1300 1298 1299
f 1089 1098 1093
f 1093 1098 1097
f 1093 1097 1094
f 1094 1097 1099
f 1094 1099 1095
f 1095 1099 1104
f 1096 1103 1090
f 1090 1103 1102
f 1090 1102 1091
f 1091 1102 1101
f 1091 1101 1092
f 1092 1101 1100
f 1127 1062 1046
f 1050 1048 1046
f 1052 1050 1054
f 1054 1050 1046
f 1054 1046 1056
f 1056 1046 1062
f 1056 1062 1058
f 1058 1062 1060
f 1115 1117 1113
f 1113 1117 1119
f 1123 1125 1121
f 1121 1125 1127
f 1121 1127 1119
f 1119 1127 1046
f 1119 1046 1113
f 393 416 395
f 395 416 1250
f 395 1250 397
f 397 1250 1247
f 397 1247 399
f 399 1247 1248
f 399 1248 400
f 400 1248 1249
f 400 1249 402
f 402 1249 1252
f 402 1252 404
f 404 1252 1237
f 404 1237 405
f 405 1237 409
f 388 389 403
f 403 389 1147
f 403 1147 401
f 401 1147 1144
f 401 1144 398
f 398 1144 1145
f 398 1145 396
f 396 1145 1146
f 396 1146 394
f 394 1146 1143
f 394 1143 376
f 376 1143 377
f 352 375 354
f 354 375 1278
f 354 1278 356
f 356 1278 1269
f 356 1269 358
f 358 1269 1276
f 358 1276 359
f 359 1276 1277
f 359 1277 361
f 361 1277 1267
f 361 1267 363
f 363 1267 1268
f 363 1268 364
f 364 1268 368
f 347 348 1156
f 1156 348 353
f 1156 353 1157
f 1157 353 355
f 1157 355 1158
f 1158 355 357
f 1158 357 1159
f 1159 357 360
f 1159 360 1160
f 1160 360 362
f 1160 362 335
f 335 362 336
f 327 328 334
f 334 328 1253
f 334 1253 331
f 331 1253 1254
f 331 1254 329
f 329 1254 1245
f 329 1245 330
f 330 1245 1242
f 330 1242 332
f 332 1242 1241
f 332 1241 333
f 333 1241 1240
f 333 1240 313
f 313 1240 314
f 303 312 304
f 304 312 1246
f 304 1246 291
f 291 1246 1238
f 291 1238 292
f 292 1238 1239
f 292 1239 293
f 293 1239 1243
f 293 1243 294
f 294 1243 1244
f 294 1244 295
f 295 1244 1251
f 295 1251 296
f 296 1251 305
f 273 290 275
f 275 290 1275
f 275 1275 277
f 277 1275 1266
f 277 1266 279
f 279 1266 1265
f 279 1265 281
f 281 1265 1270
f 281 1270 282
f 282 1270 1271
f 282 1271 258
f 258 1271 1272
f 258 1272 260
f 260 1272 283
f 249 250 256
f 256 250 1273
f 256 1273 255
f 255 1273 1274
f 255 1274 254
f 254 1274 1282
f 254 1282 253
f 253 1282 1281
f 253 1281 251
f 251 1281 1280
f 251 1280 252
f 252 1280 1279
f 252 1279 235
f 235 1279 236
f 1301 1302 1303
f 1303 1302 1304
f 1303 1304 1305
f 1305 1304 1306
f 1305 1306 1307
f 1307 1306 1308
f 1307 1308 1309
f 1309 1308 1310
f 1309 1310 1311
f 1311 1310 1312
f 1311 1312 1313
f 1312 1314 1313
f 1313 1314 1315
f 1313 1315 1316
f 1316 1315 1317
f 1316 1317 1318
f 1318 1317 1319
f 1318 1319 1320
f 1320 1319 1321
f 1320 1321 1322
f 1322 1321 1323
f 1322 1323 1324
f 1324 1323 1325
f 1324 1325 1301
f 1301 1325 1326
f 1301 1326 1302
f 1307 278 280
f 1307 280 1305
f 1305 280 257
f 1305 257 1303
f 1303 257 259
f 1303 259 1301
f 1301 259 261
f 1301 261 1324
f 1324 261 263
f 1324 263 1322
f 1322 263 265
f 1322 265 1320
f 1320 265 267
f 1320 267 1318
f 1318 267 269
f 1318 269 1316
f 1316 269 272
f 1316 272 1313
f 1313 272 274
f 1313 274 1311
f 1311 274 276
f 1311 276 1309
f 1309 276 278
f 1309 278 1307
