# Converted from COLLADA
v 0.001394391 -0.01514995 0.002656221
v 0.000103828 -0.01514995 0.002998173
v -0.001207292 -0.01514995 0.002746284
v -0.001394391 -0.01514995 -0.002656221
v -0.000103828 -0.01514995 -0.002998173
v 0.001207292 -0.01514995 -0.002746284
v -0.002408802 -0.01514995 -0.001788139
v -0.002946078 -0.01514995 -0.000565938
v -0.002899885 -0.01514995 0.000768388
v -0.002279341 -0.01514995 0.001950502
v 0.002408802 -0.01514995 0.001788139
v 0.002946078 -0.01514995 0.000565936
v 0.002899885 -0.01514995 -0.000768389
v 0.002279341 -0.01514995 -0.001950502
v 0.002279341 -0.01734995 -0.001950502
v 0.002899885 -0.01734995 -0.000768389
v 0.002946078 -0.01734995 0.000565936
v 0.002408802 -0.01734995 0.001788139
v 0.001394391 -0.01734995 0.002656221
v 0.000103828 -0.01734995 0.002998173
v -0.001207292 -0.01734995 0.002746284
v -0.002279341 -0.01734995 0.001950502
v 0.002279341 0.01545 -0.001950502
v 0.001207292 0.01545 -0.002746284
v -0.002899885 0.01545 0.000768388
v 0.002899885 0.01545 -0.000768389
v -0.002279341 0.01545 0.001950502
v -0.001207292 0.01545 0.002746284
v -0.002946078 0.01545 -0.000565938
v -0.002408802 0.01545 -0.001788139
v -0.001394391 0.01545 -0.002656221
v -0.000103828 0.01545 -0.002998173
v 0.002408802 0.01545 0.001788139
v 0.002946078 0.01545 0.000565936
v 0.001394391 0.01545 0.002656221
v 0.000103828 0.01545 0.002998173
v -0.002279341 0.01764994 0.001950502
v -0.001207292 0.01764994 0.002746284
v 0.000103828 0.01764994 0.002998173
v 0.001394391 0.01764994 0.002656221
v 0.002408802 0.01764994 0.001788139
v 0.002946078 0.01764994 0.000565936
v 0.002899885 0.01764994 -0.000768389
v 0.002279341 0.01764994 -0.001950502
v 0.03905695 -0.01314997 0.0417962
v 0.03928488 -0.01344996 0.04160118
v 0.03961515 -0.01314997 0.04296374
v 0.03991007 -0.01344996 0.04290878
v 0.03951489 -0.01314997 0.04425394
v 0.03979778 -0.01344996 0.04435378
v 0.03878289 -0.01314997 0.0453211
v 0.03897798 -0.01344996 0.04554903
v 0.03761541 -0.01314997 0.04587936
v 0.03767037 -0.01344996 0.04617428
v 0.03632521 -0.01314997 0.04577904
v 0.03622531 -0.01344996 0.04606193
v 0.03525799 -0.01314997 0.0450471
v 0.03503006 -0.01344996 0.04524213
v 0.03474086 -0.01314997 0.04406195
v 0.0381636 -0.01314997 0.04113304
v 0.03470236 -0.01314997 0.04295003
v 0.03515011 -0.01314997 0.0419315
v 0.03707093 -0.01314997 0.04092317
v 0.03599548 -0.01314997 0.04120814
v 0.03525799 0.01344996 0.0450471
v 0.03503006 0.01374995 0.04524213
v 0.03632521 0.01344996 0.04577904
v 0.03622531 0.01374995 0.04606193
v 0.03761541 0.01344996 0.04587936
v 0.03767037 0.01374995 0.04617428
v 0.03878289 0.01344996 0.0453211
v 0.03897798 0.01374995 0.04554903
v 0.03951489 0.01344996 0.04425394
v 0.03979778 0.01374995 0.04435378
v 0.03961515 0.01344996 0.04296374
v 0.03991007 0.01374995 0.04290878
v 0.03905695 0.01344996 0.0417962
v 0.03928488 0.01374995 0.04160118
v 0.0381636 0.01344996 0.04113304
v 0.03599548 0.01344996 0.04120814
v 0.03515011 0.01344996 0.0419315
v 0.03470236 0.01344996 0.04295003
v 0.03474086 0.01344996 0.04406195
v 0.03707093 0.01344996 0.04092317
v 0.01275038 0.01764994 0.01297736
v 0.01275038 0.01229995 0.01297736
v 0.01300895 0.01764994 0.01346993
v 0.01300895 0.01229995 0.01346993
v 0.0130282 0.01764994 0.01402586
v 0.0130282 0.01229995 0.01402586
v 0.01280432 0.01764994 0.01453512
v 0.01280432 0.01229995 0.01453512
v 0.01238167 0.01764994 0.01489681
v 0.01238167 0.01229995 0.01489681
v 0.01184391 0.01764994 0.01503932
v 0.01184391 0.01229995 0.01503932
v 0.01129758 0.01764994 0.01493436
v 0.01129758 0.01229995 0.01493436
v 0.0108509 0.01764994 0.01460278
v 0.0108509 0.01229995 0.01460278
v 0.01275038 -0.01199996 0.01297736
v 0.01275038 -0.01734995 0.01297736
v 0.01300895 -0.01199996 0.01346993
v 0.01300895 -0.01734995 0.01346993
v 0.0130282 -0.01199996 0.01402586
v 0.0130282 -0.01734995 0.01402586
v 0.01280432 -0.01199996 0.01453512
v 0.01280432 -0.01734995 0.01453512
v 0.01238167 -0.01199996 0.01489681
v 0.01238167 -0.01734995 0.01489681
v 0.01184391 -0.01199996 0.01503932
v 0.01184391 -0.01734995 0.01503932
v 0.01129758 -0.01199996 0.01493436
v 0.01129758 -0.01734995 0.01493436
v 0.0108509 -0.01199996 0.01460278
v 0.0108509 -0.01734995 0.01460278
v 0.01860195 -0.01198077 0.01981538
v 0.01860195 -0.01734995 0.01981538
v 0.01878094 -0.01192784 0.02009093
v 0.01888108 -0.01734995 0.02039915
v 0.01888138 -0.01184731 0.02040094
v 0.01889944 -0.01175636 0.02071195
v 0.01883095 -0.01734995 0.02104425
v 0.01883095 -0.01166141 0.02104425
v 0.01868498 -0.0115959 0.02133232
v 0.01846492 -0.01734995 0.02157783
v 0.01846492 -0.01157122 0.02157783
v 0.01818907 -0.01159578 0.02175694
v 0.01788121 -0.01734995 0.02185696
v 0.01788121 -0.01166141 0.02185696
v 0.01723611 -0.01734995 0.02180683
v 0.01723611 -0.01184779 0.02180683
v 0.01670247 -0.01734995 0.02144086
v 0.01670247 -0.01198077 0.02144086
v 0.01694869 -0.01192742 0.02166134
v 0.01670247 0.01228076 0.02144086
v 0.01670247 0.01764994 0.02144086
v 0.01694709 0.01222783 0.02166026
v 0.01723611 0.01764994 0.02180683
v 0.01723778 0.0121473 0.02180743
v 0.0175423 0.01205641 0.02187329
v 0.01788121 0.01764994 0.02185696
v 0.01788121 0.0119614 0.02185696
v 0.01818835 0.01189589 0.0217573
v 0.01846492 0.01764994 0.02157783
v 0.01846492 0.01187127 0.02157783
v 0.01868456 0.01189577 0.02133297
v 0.01883095 0.01764994 0.02104425
v 0.01883095 0.0119614 0.02104425
v 0.01888108 0.01764994 0.02039915
v 0.01888108 0.01214784 0.02039915
v 0.01860195 0.01764994 0.01981538
v 0.01860195 0.01228076 0.01981538
v 0.01878178 0.01222741 0.02009272
v 0.02069789 -0.01624035 0.03033941
v 0.02090501 -0.01596003 0.03058147
v 0.02025502 -0.01585006 0.03099906
v 0.01973867 -0.01706439 0.02921855
v 0.02024108 -0.01671516 0.0298056
v 0.01961129 -0.01658225 0.03024685
v 0.01865577 -0.01734995 0.02795308
v 0.01947486 -0.01718866 0.02891021
v 0.01807427 -0.01719772 0.02845066
v 0.01886844 -0.01704132 0.02937871
v 0.01789599 -0.01708203 0.02860325
v 0.0183044 -0.01662176 0.02971756
v 0.01786869 -0.01599389 0.02987527
v 0.01733982 -0.01634997 0.02907919
v 0.01758128 -0.01676416 0.02887254
v 0.01762765 -0.01525318 0.02982771
v 0.01713621 -0.01534998 0.02925342
v 0.0172519 -0.01611536 0.02915441
v 0.01898086 -0.01620376 0.0305081
v 0.01844573 -0.01563727 0.03054952
v 0.01808738 -0.01496911 0.03036493
v 0.01956701 -0.01553708 0.03119301
v 0.01894575 -0.01506859 0.03113383
v 0.01848578 -0.01451599 0.0308305
v 0.02142387 -0.01497191 0.03118777
v 0.02075803 -0.0148921 0.03158688
v 0.02002507 -0.01466476 0.03172826
v 0.01933646 -0.01432448 0.0315904
v 0.01879703 -0.01392316 0.03119426
v 0.02188843 -0.01416015 0.03173071
v 0.02218079 -0.01385623 0.03207236
v 0.02155101 -0.01372331 0.03251355
v 0.02167582 -0.01144999 0.03455835
v 0.02082401 -0.01161772 0.03356289
v 0.02179151 -0.01221531 0.03445935
v 0.02106505 -0.01235842 0.0336104
v 0.02206474 -0.01340585 0.03311389
v 0.0224356 -0.01318204 0.03390812
v 0.0215007 -0.0129863 0.03345274
v 0.02212089 -0.01286417 0.03417748
v 0.02187943 -0.01244997 0.03438413
v 0.0200271 -0.01211017 0.03263169
v 0.02038544 -0.0127784 0.03281629
v 0.02092057 -0.01334482 0.0327748
v 0.02267122 -0.0135532 0.0326454
v 0.02319538 -0.01344996 0.03325796
v 0.02261388 -0.01329773 0.0337556
v 0.02250236 -0.01363271 0.03244811
v 0.02175587 -0.01433956 0.03157579
v 0.02110588 -0.01422965 0.03199338
v 0.02041786 -0.01391661 0.03218734
v 0.0197966 -0.01344811 0.03212815
v 0.01933664 -0.01289552 0.03182476
v -0.003039121 -0.01734995 0.002600669
v -0.003620624 -0.01719772 0.003098309
v -0.003798902 -0.01708203 0.003250837
v -0.004113614 -0.01676416 0.003520131
v -0.004355072 -0.01634997 0.00372678
v -0.004442989 -0.01611536 0.003802061
v -0.004558682 -0.01534998 0.003901004
v 0.03259879 -0.01144999 0.04732269
v 0.03271442 -0.01221531 0.04722374
v 0.03280234 -0.01244997 0.04714852
v 0.03304386 -0.01286417 0.04694187
v 0.03335857 -0.01318204 0.04667252
v 0.03353685 -0.01329773 0.04651999
v 0.03411835 -0.01344996 0.04602235
v -0.005617976 -0.01534998 0.002106606
v -0.005849421 -0.01534998 0.00133562
v -0.005701005 -0.01611536 0.001301765
v -0.005999684 -0.01534998 5.80975e-05
v -0.005999088 -0.01534998 -0.000103003
v -0.005846858 -0.01611536 -0.000100391
v -0.005657732 -0.01534998 -0.001997411
v -0.005264043 -0.01534998 -0.002879083
v -0.005130469 -0.01611536 -0.002806067
v -0.004633367 -0.01534998 -0.003812015
v -0.004422068 -0.01534998 -0.004055202
v -0.004309892 -0.01611536 -0.003952324
v -0.003050148 -0.01534998 -0.005166828
v -0.002030968 -0.01534998 -0.005645751
v -0.00197947 -0.01611536 -0.005502521
v -0.004256904 -0.01719772 0.002141773
v -0.003573179 -0.01734995 0.001797795
v -0.004836499 -0.01676416 0.002433419
v 0.002328395 -0.01734995 -0.003252387
v 0.001482367 -0.01734995 -0.003715157
v 0.00277394 -0.01719772 -0.003874719
v 0.001766026 -0.01719772 -0.004426002
v 0.003151655 -0.01676416 -0.004402339
v 0.00200653 -0.01676416 -0.005028665
v 0.003404021 -0.01611536 -0.004754841
v 0.002167165 -0.01611536 -0.005431294
v 0.000550244 -0.01734995 -0.00396192
v 0.000655529 -0.01719772 -0.004720032
v 0.000744785 -0.01676416 -0.005362689
v 0.000804424 -0.01611536 -0.00579214
v -0.000413907 -0.01734995 -0.00397849
v -0.000493105 -0.01719772 -0.004739761
v -0.000560245 -0.01676416 -0.0053851
v -0.000605106 -0.01611536 -0.00581634
v 0.003039121 -0.01734995 -0.002600669
v 0.003620624 -0.01719772 -0.003098309
v 0.004113614 -0.01676416 -0.003520131
v 0.004442989 -0.01611536 -0.003802061
v 0.004558682 -0.01534998 -0.003901004
v 0.003492653 -0.01534998 -0.00487864
v -0.00109905 -0.01534998 -0.005898475
v -0.00062086 -0.01534998 -0.005967736
v 0.000825367 -0.01534998 -0.00594294
v 0.000984626 -0.01534998 -0.005918622
v 0.00222361 -0.01534998 -0.005572736
v 0.002949535 -0.01534998 -0.005224943
v -0.001832664 -0.01676416 -0.005094587
v -0.00161308 -0.01719772 -0.004483997
v -0.001353979 -0.01734995 -0.003763854
v -0.003323078 -0.01534998 -0.004995644
v -0.003238737 -0.01611536 -0.004868924
v -0.00299865 -0.01676416 -0.004507899
v -0.002639293 -0.01719772 -0.003967702
v -0.002215385 -0.01734995 -0.003330409
v -0.002948045 -0.01734995 -0.002703487
v -0.003512144 -0.01719772 -0.003220736
v -0.003990352 -0.01676416 -0.003659307
v -0.004750132 -0.01676416 -0.002597987
v -0.004180848 -0.01719772 -0.002286672
v -0.003509342 -0.01734995 -0.001919388
v -0.005800127 -0.01534998 -0.001535654
v -0.005652964 -0.01611536 -0.001496672
v -0.005233824 -0.01676416 -0.001385748
v -0.004606604 -0.01719772 -0.001219689
v -0.003866732 -0.01734995 -0.001023769
v -0.003999352 -0.01734995 -6.8668e-05
v -0.004764616 -0.01719772 -8.18069e-05
v -0.005413413 -0.01676416 -9.29465e-05
v -0.005278348 -0.01676416 0.001205265
v -0.004645764 -0.01719772 0.001060783
v -0.003899574 -0.01734995 0.000890448
v -0.005359768 -0.01534998 0.002696692
v -0.00522381 -0.01611536 0.002628266
v 0.04160052 -0.01221531 0.03961956
v 0.04171615 -0.01144999 0.03952062
v 0.04246997 -0.01144999 0.04063284
v 0.0415126 -0.01244997 0.03969484
v 0.04233515 -0.01221531 0.04070359
v 0.04281014 -0.01221531 0.04192388
v 0.04277551 -0.01144999 0.04131501
v 0.0429573 -0.01144999 0.04188489
v 0.04315388 -0.01144999 0.04321402
v 0.04300171 -0.01221531 0.04321926
v 0.04315721 -0.01144999 0.04336357
v 0.04290026 -0.01221531 0.04452484
v 0.04304975 -0.01144999 0.04455351
v 0.0428152 -0.01144999 0.04541909
v 0.0425108 -0.01221531 0.04577505
v 0.04105854 -0.01144999 0.04798036
v 0.04095953 -0.01221531 0.04786467
v 0.04179084 -0.01144999 0.0472337
v 0.04185289 -0.01221531 0.04690724
v 0.04197514 -0.01144999 0.04699802
v 0.04265016 -0.01144999 0.04583632
v 0.04095637 -0.01318204 0.04017078
v 0.04127109 -0.01286417 0.03990149
v 0.04195129 -0.01286417 0.04090511
v 0.04239106 -0.01286417 0.04203492
v 0.04256844 -0.01286417 0.04323428
v 0.04247444 -0.01286417 0.04444301
v 0.0421139 -0.01286417 0.04560059
v 0.0415048 -0.01286417 0.04664885
v 0.04067766 -0.01286417 0.0475353
v 0.04019659 -0.01344996 0.04082095
v 0.0407781 -0.01329773 0.04032331
v 0.04137676 -0.01329773 0.04120671
v 0.0417639 -0.01329773 0.0422011
v 0.04192 -0.01329773 0.04325675
v 0.04183727 -0.01329773 0.04432064
v 0.04151988 -0.01329773 0.04533946
v 0.04098379 -0.01329773 0.04626208
v 0.04025578 -0.01329773 0.04704231
v 0.04069912 -0.01344996 0.04156243
v 0.04102402 -0.01344996 0.04239714
v 0.04115509 -0.01344996 0.04328322
v 0.04108566 -0.01344996 0.04417622
v 0.04081922 -0.01344996 0.04503142
v 0.04036927 -0.01344996 0.04580587
v 0.03975814 -0.01344996 0.0464608
v 0.02473407 -0.01734995 0.02275168
v 0.02531558 -0.01719772 0.02225404
v 0.02580857 -0.01676416 0.02183216
v 0.02613794 -0.01611536 0.02155029
v 0.02625364 -0.01534998 0.02145129
v 0.02927368 -0.01344996 0.02805656
v 0.02985519 -0.01329773 0.02755898
v 0.03003346 -0.01318204 0.02740639
v 0.03034818 -0.01286417 0.0271371
v 0.03058964 -0.01244997 0.02693045
v 0.03067755 -0.01221531 0.02685523
v 0.03079324 -0.01144999 0.02675622
v 0.02581697 -0.01706439 0.02401715
v 0.02555316 -0.01718866 0.02370882
v 0.02610969 -0.01704132 0.02318209
v 0.02677619 -0.01624035 0.02513802
v 0.02631938 -0.01671516 0.02460426
v 0.0268526 -0.01658225 0.02405017
v 0.02750211 -0.01497191 0.02598637
v 0.02698332 -0.01596003 0.02538007
v 0.02799934 -0.0148921 0.02539026
v 0.02749633 -0.01585006 0.02480244
v 0.0282523 -0.01466476 0.02468794
v 0.0277943 -0.01553708 0.02415269
v 0.0282225 -0.01432448 0.02398627
v 0.02783179 -0.01506859 0.0235297
v 0.02791446 -0.01392316 0.02339214
v 0.0276032 -0.01451599 0.02302837
v 0.02720814 -0.01620376 0.02346771
v 0.02733182 -0.01563727 0.0229454
v 0.02720481 -0.01496911 0.02256286
v 0.02653169 -0.01662176 0.02267718
v 0.02675479 -0.01599389 0.02227109
v 0.02674508 -0.01525318 0.02202564
v 0.02796673 -0.01416015 0.02652931
v 0.02783417 -0.01433956 0.02637439
v 0.02834719 -0.01422965 0.02579671
v 0.02995109 -0.01235842 0.02600628
v 0.02994138 -0.01161772 0.02576076
v 0.02845406 -0.01289552 0.02402269
v 0.02914452 -0.01211017 0.02482956
v 0.02868264 -0.01344811 0.02452397
v 0.02927154 -0.0127784 0.0252121
v 0.02864515 -0.01391661 0.02514696
v 0.02914786 -0.01334482 0.02573442
v 0.02879232 -0.01372331 0.02631694
v 0.02972799 -0.0129863 0.02641236
v 0.02930605 -0.01340585 0.02691721
v 0.02825909 -0.01385623 0.02687096
v 0.0285806 -0.01363271 0.02724671
v 0.02874946 -0.0135532 0.027444
v 0.01879703 0.01422315 0.03119426
v 0.01933646 0.01462447 0.0315904
v 0.01894575 0.01536858 0.03113383
v 0.02002507 0.01496475 0.03172826
v 0.01956701 0.01583707 0.03119301
v 0.02075803 0.01519209 0.03158688
v 0.02025502 0.01615011 0.03099906
v 0.02142387 0.0152719 0.03118777
v 0.02090501 0.01626002 0.03058147
v 0.02069789 0.01654034 0.03033941
v 0.01961129 0.01688224 0.03024685
v 0.02024108 0.01701515 0.0298056
v 0.01973867 0.01736444 0.02921855
v 0.01886844 0.01734131 0.02937871
v 0.01947486 0.01748865 0.02891021
v 0.01865577 0.01764994 0.02795308
v 0.01898086 0.01650375 0.0305081
v 0.0183044 0.01692175 0.02971756
v 0.01807427 0.01749771 0.02845066
v 0.01789599 0.01738202 0.02860325
v 0.01758128 0.01706421 0.02887254
v 0.01733982 0.01664996 0.02907919
v 0.01844573 0.01593726 0.03054952
v 0.01786869 0.01629388 0.02987527
v 0.0172519 0.01641535 0.02915441
v 0.01848578 0.01481598 0.0308305
v 0.01808738 0.0152691 0.03036493
v 0.01762765 0.01555317 0.02982771
v 0.01713621 0.01564997 0.02925342
v -0.003039121 0.01764994 0.002600669
v -0.003620624 0.01749771 0.003098309
v -0.003798902 0.01738202 0.003250837
v -0.004113614 0.01706421 0.003520131
v -0.004355072 0.01664996 0.00372678
v -0.004442989 0.01641535 0.003802061
v -0.004558682 0.01564997 0.003901004
v 0.02188843 0.01446014 0.03173071
v 0.02175587 0.01463955 0.03157579
v 0.02110588 0.01452964 0.03199338
v 0.02106505 0.01265841 0.0336104
v 0.02082401 0.01191771 0.03356289
v 0.02167582 0.01174998 0.03455835
v 0.01933664 0.01319551 0.03182476
v 0.0200271 0.01241016 0.03263169
v 0.0197966 0.01374816 0.03212815
v 0.02038544 0.01307839 0.03281629
v 0.02041786 0.0142166 0.03218734
v 0.02092057 0.01364481 0.0327748
v 0.02155101 0.01402336 0.03251355
v 0.0215007 0.01328629 0.03345274
v 0.02206474 0.0137059 0.03311389
v 0.02179151 0.01251536 0.03445935
v 0.02187943 0.01274996 0.03438413
v 0.02212089 0.01316416 0.03417748
v 0.0224356 0.01348203 0.03390812
v 0.02261388 0.01359772 0.0337556
v 0.02218079 0.01415628 0.03207236
v 0.02250236 0.0139327 0.03244811
v 0.02267122 0.01385319 0.0326454
v 0.02319538 0.01374995 0.03325796
v 0.004355072 0.01664996 -0.00372678
v 0.004442989 0.01641535 -0.003802061
v 0.003404021 0.01641535 -0.004754841
v -0.00522381 0.01641535 0.002628266
v -0.005359768 0.01564997 0.002696692
v 0.004558682 0.01564997 -0.003901004
v 0.003492653 0.01564997 -0.00487864
v 0.002949535 0.01564997 -0.005224943
v 0.002167165 0.01641535 -0.005431294
v 0.00222361 0.01564997 -0.005572736
v 0.000984626 0.01564997 -0.005918622
v 0.000804424 0.01641535 -0.00579214
v 0.000825367 0.01564997 -0.00594294
v -0.00062086 0.01564997 -0.005967736
v -0.000605106 0.01641535 -0.00581634
v -0.00109905 0.01564997 -0.005898475
v -0.00197947 0.01641535 -0.005502521
v -0.002030968 0.01564997 -0.005645751
v -0.003050148 0.01564997 -0.005166828
v -0.003238737 0.01641535 -0.004868924
v -0.003323078 0.01564997 -0.004995644
v -0.004422068 0.01564997 -0.004055202
v -0.004309892 0.01641535 -0.003952324
v -0.004633367 0.01564997 -0.003812015
v -0.005130469 0.01641535 -0.002806067
v -0.005264043 0.01564997 -0.002879083
v -0.005657732 0.01564997 -0.001997411
v -0.005652964 0.01641535 -0.001496672
v -0.005800127 0.01564997 -0.001535654
v -0.005999088 0.01564997 -0.000103003
v -0.005846858 0.01641535 -0.000100391
v -0.005999684 0.01564997 5.80975e-05
v -0.005701005 0.01641535 0.001301765
v -0.005849421 0.01564997 0.00133562
v -0.005617976 0.01564997 0.002106606
v 0.003798902 0.01738202 -0.003250837
v 0.004113614 0.01706421 -0.003520131
v 0.003151655 0.01706421 -0.004402339
v 0.00200653 0.01706421 -0.005028665
v 0.000744785 0.01706421 -0.005362689
v -0.000560245 0.01706421 -0.0053851
v -0.001832664 0.01706421 -0.005094587
v -0.00299865 0.01706421 -0.004507899
v -0.003990352 0.01706421 -0.003659307
v -0.004750132 0.01706421 -0.002597987
v -0.005233824 0.01706421 -0.001385748
v -0.005413413 0.01706421 -9.29465e-05
v -0.005278348 0.01706421 0.001205265
v -0.004836499 0.01706421 0.002433419
v 0.003039121 0.01764994 -0.002600669
v 0.003620624 0.01749771 -0.003098309
v 0.00277394 0.01749771 -0.003874719
v 0.001766026 0.01749771 -0.004426002
v 0.000655529 0.01749771 -0.004720032
v -0.000493105 0.01749771 -0.004739761
v -0.00161308 0.01749771 -0.004483997
v -0.002639293 0.01749771 -0.003967702
v -0.003512144 0.01749771 -0.003220736
v -0.004180848 0.01749771 -0.002286672
v -0.004606604 0.01749771 -0.001219689
v -0.004764616 0.01749771 -8.18069e-05
v -0.004645764 0.01749771 0.001060783
v -0.004256904 0.01749771 0.002141773
v 0.002328395 0.01764994 -0.003252387
v 0.001482367 0.01764994 -0.003715157
v 0.000550244 0.01764994 -0.00396192
v -0.000413907 0.01764994 -0.00397849
v -0.001353979 0.01764994 -0.003763854
v -0.002215385 0.01764994 -0.003330409
v -0.002948045 0.01764994 -0.002703487
v -0.003509342 0.01764994 -0.001919388
v -0.003866732 0.01764994 -0.001023769
v -0.003999352 0.01764994 -6.8668e-05
v -0.003899574 0.01764994 0.000890448
v -0.003573179 0.01764994 0.001797795
v 0.03411835 0.01374995 0.04602235
v 0.03353685 0.01359772 0.04651999
v 0.03335857 0.01348203 0.04667252
v 0.03304386 0.01316416 0.04694187
v 0.03280234 0.01274996 0.04714852
v 0.03271442 0.01251536 0.04722374
v 0.03259879 0.01174998 0.04732269
v 0.02625364 0.01564997 0.02145129
v 0.02613794 0.01641535 0.02155029
v 0.02605003 0.01664996 0.02162551
v 0.02580857 0.01706421 0.02183216
v 0.02549386 0.01738202 0.02210152
v 0.02531558 0.01749771 0.02225404
v 0.02473407 0.01764994 0.02275168
v 0.03375345 0.01251536 0.04817652
v 0.04238128 0.01251536 0.04079335
v 0.0425173 0.01174998 0.04072493
v 0.04171615 0.01174998 0.03952062
v 0.03366482 0.01174998 0.04830032
v 0.03420794 0.01174998 0.04864662
v 0.03499025 0.01251536 0.04885298
v 0.03493386 0.01174998 0.04899442
v 0.03617286 0.01174998 0.0493403
v 0.03635305 0.01251536 0.04921382
v 0.03633213 0.01174998 0.04936462
v 0.03777831 0.01174998 0.04938948
v 0.03776258 0.01251536 0.04923802
v 0.03825652 0.01174998 0.04932016
v 0.03913694 0.01251536 0.0489242
v 0.0391885 0.01174998 0.04906743
v 0.04020762 0.01174998 0.04858851
v 0.04039627 0.01251536 0.04829061
v 0.04048061 0.01174998 0.04841732
v 0.04157954 0.01174998 0.04747688
v 0.04146736 0.01251536 0.04737401
v 0.04179084 0.01174998 0.0472337
v 0.042288 0.01251536 0.04622775
v 0.04242157 0.01174998 0.04630076
v 0.0428152 0.01174998 0.04541909
v 0.04281044 0.01251536 0.04491841
v 0.0429576 0.01174998 0.04495733
v 0.04315656 0.01174998 0.04352468
v 0.04300439 0.01251536 0.04352205
v 0.04315721 0.01174998 0.04336357
v 0.04285848 0.01251536 0.04211986
v 0.04300689 0.01174998 0.042086
v 0.04277551 0.01174998 0.04131501
v 0.03400582 0.01316416 0.04782402
v 0.03515094 0.01316416 0.04845035
v 0.03641271 0.01316416 0.04878443
v 0.0377177 0.01316416 0.04880678
v 0.03899019 0.01316416 0.04851627
v 0.04015612 0.01316416 0.04792958
v 0.04114782 0.01316416 0.04708099
v 0.0419076 0.01316416 0.04601973
v 0.04239135 0.01316416 0.04480743
v 0.04257088 0.01316416 0.0435146
v 0.04243582 0.01316416 0.04221636
v 0.04199403 0.01316416 0.0409882
v 0.03438353 0.01359772 0.0472964
v 0.04160052 0.01251536 0.03961956
v 0.0415126 0.01274996 0.03969484
v 0.04127109 0.01316416 0.03990149
v 0.04095637 0.01348203 0.04017078
v 0.03539139 0.01359772 0.04784768
v 0.03650194 0.01359772 0.04814171
v 0.03765058 0.01359772 0.04816144
v 0.03877055 0.01359772 0.04790568
v 0.03979676 0.01359772 0.04738938
v 0.04066962 0.01359772 0.04664248
v 0.04133838 0.01359772 0.04570835
v 0.04176408 0.01359772 0.04464137
v 0.04192215 0.01359772 0.04350346
v 0.04180324 0.01359772 0.04236084
v 0.04141438 0.01359772 0.04127985
v 0.0407781 0.01359772 0.04032331
v 0.03482902 0.01374995 0.04667413
v 0.03567504 0.01374995 0.04713684
v 0.0366072 0.01374995 0.0473836
v 0.03757137 0.01374995 0.04740017
v 0.03851145 0.01374995 0.04718554
v 0.03937286 0.01374995 0.04675209
v 0.04010552 0.01374995 0.04612517
v 0.04066687 0.01374995 0.04534107
v 0.0410242 0.01374995 0.04444545
v 0.04115688 0.01374995 0.04349035
v 0.0410571 0.01374995 0.04253119
v 0.04073071 0.01374995 0.04162383
v 0.04019659 0.01374995 0.04082095
v 0.02677619 0.01654034 0.02513802
v 0.02698332 0.01626002 0.02538007
v 0.02749633 0.01615011 0.02480244
v 0.02581697 0.01736444 0.02401715
v 0.02631938 0.01701515 0.02460426
v 0.0268526 0.01688224 0.02405017
v 0.02555316 0.01748865 0.02370882
v 0.02610969 0.01734131 0.02318209
v 0.02653169 0.01692175 0.02267718
v 0.02675479 0.01629388 0.02227109
v 0.02674508 0.01555317 0.02202564
v 0.02720814 0.01650375 0.02346771
v 0.02733182 0.01593726 0.0229454
v 0.02720481 0.0152691 0.02256286
v 0.0277943 0.01583707 0.02415269
v 0.02783179 0.01536858 0.0235297
v 0.0276032 0.01481598 0.02302837
v 0.02750211 0.0152719 0.02598637
v 0.02799934 0.01519209 0.02539026
v 0.0282523 0.01496475 0.02468794
v 0.0282225 0.01462447 0.02398627
v 0.02791446 0.01422315 0.02339214
v 0.03079324 0.01174998 0.02675622
v 0.03067755 0.01251536 0.02685523
v 0.03058964 0.01274996 0.02693045
v 0.03034818 0.01316416 0.0271371
v 0.03003346 0.01348203 0.02740639
v 0.02985519 0.01359772 0.02755898
v 0.02927368 0.01374995 0.02805656
v 0.02796673 0.01446014 0.02652931
v 0.02825909 0.01415628 0.02687096
v 0.02879232 0.01402336 0.02631694
v 0.02994138 0.01191771 0.02576076
v 0.02995109 0.01265841 0.02600628
v 0.02930605 0.0137059 0.02691721
v 0.02972799 0.01328629 0.02641236
v 0.02914452 0.01241016 0.02482956
v 0.02927154 0.01307839 0.0252121
v 0.02914786 0.01364481 0.02573442
v 0.02874946 0.01385319 0.027444
v 0.0285806 0.0139327 0.02724671
v 0.02783417 0.01463955 0.02637439
v 0.02834719 0.01452964 0.02579671
v 0.02864515 0.0142166 0.02514696
v 0.02868264 0.01374816 0.02452397
v 0.02845406 0.01319551 0.02402269
v 0.02642208 0.00604999 0.04010474
v 0.0279417 0.00604999 0.03880441
v 0.02658045 0.007274568 0.04028981
v 0.02810007 0.007274568 0.03898948
v 0.02703148 0.008312702 0.04081684
v 0.02855104 0.008312702 0.0395165
v 0.02770644 0.009006381 0.04160565
v 0.02922606 0.009006381 0.04030531
v 0.02850264 0.009249985 0.04253607
v 0.03002226 0.009249985 0.04123568
v 0.02850264 -0.008949995 0.04253607
v 0.03002226 -0.008949995 0.04123568
v 0.02770644 -0.00870639 0.04160565
v 0.02922606 -0.00870639 0.04030531
v 0.02703148 -0.008012712 0.04081684
v 0.02855104 -0.008012712 0.0395165
v 0.02658045 -0.006974577 0.04028981
v 0.02810007 -0.006974577 0.03898948
v 0.02642208 -0.00575 0.04010474
v 0.0279417 -0.00575 0.03880441
v 0.03021728 -0.008949995 0.04146367
v 0.03781515 -0.008949995 0.03496187
v 0.02970123 -0.009049952 0.04086059
v 0.03729909 -0.009049952 0.03435885
v 0.03781515 0.009249985 0.03496187
v 0.03021728 0.009249985 0.04146367
v 0.03729909 0.009349942 0.03435885
v 0.02970123 0.009349942 0.04086059
v -0.000657657 0.01219999 0.008459746
v 0.008459746 0.01219999 0.000657657
v -0.000141597 0.01229995 0.009062767
v 0.008975803 0.01229995 0.001260697
v 0.008459746 -0.01189994 0.000657657
v -0.000657657 -0.01189994 0.008459746
v 0.008975803 -0.01199996 0.001260697
v -0.000141597 -0.01199996 0.009062767
v 0.02871268 -0.005849957 0.02432489
v 0.02111482 -0.005849957 0.03082668
v 0.02887105 -0.007074534 0.02450996
v 0.02127319 -0.007074534 0.03101176
v 0.02932208 -0.008112728 0.02503705
v 0.02172422 -0.008112728 0.03153878
v 0.02999705 -0.008806407 0.02582579
v 0.02239918 -0.008806407 0.03232753
v 0.03079324 -0.009049952 0.02675622
v 0.02319538 -0.009049952 0.03325796
v 0.03079324 0.009349942 0.02675622
v 0.02319538 0.009349942 0.03325796
v 0.02999705 0.009106397 0.02582579
v 0.02239918 0.009106397 0.03232753
v 0.02932208 0.008412718 0.02503705
v 0.02172422 0.008412718 0.03153878
v 0.02887105 0.007374584 0.02450996
v 0.02127319 0.007374584 0.03101176
v 0.02871268 0.006149947 0.02432489
v 0.02111482 0.006149947 0.03082668
v 0.02277958 0.01205641 0.01739156
v 0.02198338 0.01229995 0.01646113
v 0.01833641 0.01229995 0.01958197
v 0.02345454 0.01136273 0.01818037
v 0.01366215 0.01205641 0.02519369
v 0.01286596 0.01229995 0.02426326
v 0.01651293 0.01229995 0.02114242
v 0.01433712 0.01136273 0.02598243
v 0.02406394 0.00909996 0.01889246
v 0.01494652 0.00909996 0.02669453
v 0.02390557 0.01032453 0.01870739
v 0.01478815 0.01032453 0.02650946
v 0.01366215 -0.01175636 0.02519369
v 0.01286596 -0.01199996 0.02426326
v 0.01651293 -0.01199996 0.02114242
v 0.01433712 -0.01106274 0.02598243
v 0.02277958 -0.01175636 0.01739156
v 0.02198338 -0.01199996 0.01646113
v 0.01833641 -0.01199996 0.01958197
v 0.02345454 -0.01106274 0.01818037
v 0.02390557 -0.01002454 0.01870739
v 0.01478815 -0.01002454 0.02650946
v 0.02406394 -0.00879997 0.01889246
v 0.01494652 -0.00879997 0.02669453
v 0.01098793 -0.01199996 0.01284033
v 0.0115717 -0.01199996 0.0125612
v 0.01062196 -0.01199996 0.01337391
v 0.01057177 -0.01199996 0.01401901
v 0.0122168 -0.01199996 0.01261138
v 0.0164439 -0.01199996 0.02094829
v 0.01707124 -0.01199996 0.01952135
v 0.01760894 -0.01199996 0.0193789
v 0.01815527 -0.01199996 0.0194838
v 0.01642465 -0.01199996 0.02039229
v 0.01664853 -0.01199996 0.01988303
v 0.01062196 0.01229995 0.01337391
v 0.01098793 0.01229995 0.01284033
v 0.0115717 0.01229995 0.0125612
v 0.01057177 0.01229995 0.01401901
v 0.01664853 0.01229995 0.01988303
v 0.01642465 0.01229995 0.02039229
v 0.0164439 0.01229995 0.02094829
v 0.01815527 0.01229995 0.0194838
v 0.0122168 0.01229995 0.01261138
v 0.01760894 0.01229995 0.0193789
v 0.01707124 0.01229995 0.01952135
v 0.0382843 0.01374995 0.04085838
v 0.03706055 0.01374995 0.04062336
v 0.03445088 0.01374995 0.04413884
v 0.03440773 0.01374995 0.04289346
v 0.03490924 0.01374995 0.04175269
v 0.035856 0.01374995 0.04094249
v 0.03901672 -0.01344996 0.04696333
v 0.03640288 -0.01344996 0.04734987
v 0.03729593 -0.01344996 0.04741925
v 0.03818202 -0.01344996 0.04728823
v 0.0382843 -0.01344996 0.04085838
v 0.03490924 -0.01344996 0.04175269
v 0.035856 -0.01344996 0.04094249
v 0.03706055 -0.01344996 0.04062336
v 0.03554773 -0.01344996 0.04708343
v 0.03477323 -0.01344996 0.04663342
v 0.03445088 -0.01344996 0.04413884
v 0.03440773 -0.01344996 0.04289346
v 0.002949535 0.01219999 -0.005224943
v 0.004558682 0.01219999 -0.003901004
v -0.004633367 0.01219999 -0.003812015
v -0.004558682 0.01219999 0.003901004
v -0.005617976 0.01219999 0.002106606
v -0.005999684 0.01219999 5.80975e-05
v -0.005657732 0.01219999 -0.001997411
v -0.003050148 0.01219999 -0.005166828
v -0.00109905 0.01219999 -0.005898475
v 0.000984626 0.01219999 -0.005918622
v -0.004558682 -0.01189994 0.003901004
v 0.004558682 -0.01189994 -0.003901004
v 0.002949535 -0.01189994 -0.005224943
v 0.000984626 -0.01189994 -0.005918622
v -0.00109905 -0.01189994 -0.005898475
v -0.003050148 -0.01189994 -0.005166828
v -0.005617976 -0.01189994 0.002106606
v -0.005999684 -0.01189994 5.80975e-05
v -0.005657732 -0.01189994 -0.001997411
v -0.004633367 -0.01189994 -0.003812015
v 0.03617286 0.009249985 0.0493403
v 0.03420794 0.009249985 0.04864662
v 0.03259879 0.009249985 0.04732269
v 0.03825652 0.009249985 0.04932016
v 0.04315721 0.009249985 0.04336357
v 0.04171615 0.009249985 0.03952062
v 0.04277551 0.009249985 0.04131501
v 0.0428152 0.009249985 0.04541909
v 0.04179084 0.009249985 0.0472337
v 0.04020762 0.009249985 0.04858851
v 0.03259879 -0.008949995 0.04732269
v 0.04315721 -0.008949995 0.04336357
v 0.04277551 -0.008949995 0.04131501
v 0.03617286 -0.008949995 0.0493403
v 0.04171615 -0.008949995 0.03952062
v 0.03420794 -0.008949995 0.04864662
v 0.04179084 -0.008949995 0.0472337
v 0.0428152 -0.008949995 0.04541909
v 0.04020762 -0.008949995 0.04858851
v 0.03825652 -0.008949995 0.04932016
v 0.01057177 0.01764994 0.01401901
v 0.01062196 0.01764994 0.01337391
v -0.002408802 0.01764994 -0.001788139
v -0.001394391 0.01764994 -0.002656221
v 0.0122168 0.01764994 0.01261138
v -0.000103828 0.01764994 -0.002998173
v 0.001207292 0.01764994 -0.002746284
v 0.01098793 0.01764994 0.01284033
v 0.0115717 0.01764994 0.0125612
v -0.002899885 0.01764994 0.000768388
v -0.002946078 0.01764994 -0.000565938
v 0.01760894 0.01764994 0.0193789
v 0.01707124 0.01764994 0.01952135
v 0.01664853 0.01764994 0.01988303
v 0.01642465 0.01764994 0.02039229
v 0.01815527 0.01764994 0.0194838
v 0.0164439 0.01764994 0.02094829
v 0.04020762 -0.01144999 0.04858851
v 0.03869426 -0.01144999 0.04922151
v 0.03994631 -0.01144999 0.04873412
v 0.03736513 -0.01144999 0.04941809
v 0.03825652 -0.01144999 0.04932016
v 0.03420794 -0.01144999 0.04864662
v 0.03474283 -0.01144999 0.04891431
v 0.03602558 -0.01144999 0.04931396
v 0.03617286 -0.01144999 0.0493403
v 0.03358113 -0.01144999 0.04823929
v -0.001394391 -0.01734995 -0.002656221
v -0.002408802 -0.01734995 -0.001788139
v -0.002946078 -0.01734995 -0.000565938
v 0.001207292 -0.01734995 -0.002746284
v -0.000103828 -0.01734995 -0.002998173
v -0.002899885 -0.01734995 0.000768388
v 0.01062196 -0.01734995 0.01337391
v 0.01098793 -0.01734995 0.01284033
v 0.0115717 -0.01734995 0.0125612
v 0.0122168 -0.01734995 0.01261138
v 0.01815527 -0.01734995 0.0194838
v 0.01760894 -0.01734995 0.0193789
v 0.01707124 -0.01734995 0.01952135
v 0.01057177 -0.01734995 0.01401901
v 0.01664853 -0.01734995 0.01988303
v 0.01642465 -0.01734995 0.02039229
v 0.0164439 -0.01734995 0.02094829
v 0.03937244 -0.01329773 0.04764097
v 0.03967404 -0.01286417 0.04821544
v 0.03987556 -0.01221531 0.04859936
v 0.03865528 -0.01221531 0.04907435
v 0.03735983 -0.01221531 0.04926592
v 0.03605431 -0.01221531 0.04916441
v 0.0348041 -0.01221531 0.04877495
v 0.03367185 -0.01221531 0.0481171
v 0.03854423 -0.01286417 0.04865527
v 0.03734487 -0.01286417 0.04883265
v 0.03613609 -0.01286417 0.04873865
v 0.03497856 -0.01286417 0.0483781
v 0.0339303 -0.01286417 0.04776895
v 0.038378 -0.01329773 0.04802805
v 0.0373224 -0.01329773 0.04818415
v 0.03625851 -0.01329773 0.04810148
v 0.03523969 -0.01329773 0.04778409
v 0.03431701 -0.01329773 0.04724794
f 14 15 13
f 13 15 16
f 13 16 12
f 12 16 17
f 12 17 11
f 11 17 18
f 11 18 1
f 1 18 19
f 1 19 2
f 2 19 20
f 2 20 3
f 3 20 21
f 3 21 10
f 10 21 22
f 27 37 28
f 28 37 38
f 28 38 36
f 36 38 39
f 36 39 35
f 35 39 40
f 35 40 33
f 33 40 41
f 33 41 34
f 34 41 42
f 34 42 26
f 26 42 43
f 26 43 23
f 23 43 44
f 45 46 47
f 47 46 48
f 47 48 49
f 49 48 50
f 49 50 51
f 51 50 52
f 51 52 53
f 53 52 54
f 53 54 55
f 55 54 56
f 55 56 57
f 57 56 58
f 65 66 67
f 67 66 68
f 67 68 69
f 69 68 70
f 69 70 71
f 71 70 72
f 71 72 73
f 73 72 74
f 73 74 75
f 75 74 76
f 75 76 77
f 77 76 78
f 85 86 87
f 87 86 88
f 87 88 89
f 89 88 90
f 89 90 91
f 91 90 92
f 91 92 93
f 93 92 94
f 93 94 95
f 95 94 96
f 95 96 97
f 97 96 98
f 97 98 99
f 99 98 100
f 101 102 103
f 103 102 104
f 103 104 105
f 105 104 106
f 105 106 107
f 107 106 108
f 107 108 109
f 109 108 110
f 109 110 111
f 111 110 112
f 111 112 113
f 113 112 114
f 113 114 115
f 115 114 116
f 117 118 119
f 119 118 120
f 119 120 121
f 121 120 122
f 122 120 123
f 122 123 124
f 124 123 125
f 125 123 126
f 125 126 127
f 127 126 128
f 128 126 129
f 128 129 130
f 130 129 131
f 130 131 132
f 133 134 131
f 131 134 135
f 131 135 132
f 136 137 138
f 138 137 139
f 138 139 140
f 140 139 141
f 141 139 142
f 141 142 143
f 143 142 144
f 144 142 145
f 144 145 146
f 146 145 147
f 147 145 148
f 147 148 149
f 149 148 150
f 149 150 151
f 152 153 150
f 150 153 154
f 150 154 151
f 155 156 157
f 158 159 160
f 161 162 163
f 163 162 164
f 163 164 165
f 165 164 166
f 167 168 166
f 166 168 169
f 166 169 165
f 170 171 167
f 167 171 172
f 167 172 168
f 162 158 164
f 164 158 160
f 164 160 166
f 166 160 173
f 166 173 167
f 167 173 174
f 167 174 170
f 170 174 175
f 159 155 160
f 160 155 157
f 160 157 173
f 173 157 176
f 173 176 174
f 174 176 177
f 174 177 175
f 175 177 178
f 156 179 157
f 157 179 180
f 157 180 176
f 176 180 181
f 176 181 177
f 177 181 182
f 177 182 178
f 178 182 183
f 184 185 186
f 187 188 189
f 189 188 190
f 191 192 193
f 193 192 194
f 193 194 190
f 190 194 195
f 190 195 189
f 188 196 190
f 190 196 197
f 190 197 193
f 193 197 198
f 193 198 191
f 191 198 186
f 199 200 191
f 191 200 201
f 191 201 192
f 186 185 191
f 191 185 202
f 191 202 199
f 203 184 204
f 204 184 186
f 204 186 205
f 205 186 198
f 205 198 206
f 206 198 197
f 206 197 207
f 207 197 196
f 207 183 206
f 206 183 182
f 206 182 205
f 205 182 181
f 205 181 204
f 204 181 180
f 204 180 203
f 203 180 179
f 208 161 209
f 209 161 163
f 209 163 210
f 210 163 165
f 210 165 211
f 211 165 169
f 211 169 212
f 212 169 168
f 212 168 213
f 213 168 172
f 213 172 214
f 214 172 171
f 215 187 216
f 216 187 189
f 216 189 217
f 217 189 195
f 217 195 218
f 218 195 194
f 218 194 219
f 219 194 192
f 219 192 220
f 220 192 201
f 220 201 221
f 221 201 200
f 222 223 224
f 225 226 227
f 228 229 230
f 231 232 233
f 234 235 236
f 237 238 208
f 208 209 237
f 237 209 210
f 237 210 239
f 240 241 242
f 242 241 243
f 242 243 244
f 244 243 245
f 244 245 246
f 246 245 247
f 241 248 243
f 243 248 249
f 243 249 245
f 245 249 250
f 245 250 247
f 247 250 251
f 248 252 249
f 249 252 253
f 249 253 250
f 250 253 254
f 250 254 251
f 251 254 255
f 256 240 257
f 257 240 242
f 257 242 258
f 258 242 244
f 258 244 259
f 259 244 246
f 259 246 260
f 260 246 261
f 262 263 255
f 255 263 264
f 255 264 251
f 251 264 265
f 251 265 247
f 247 265 266
f 247 266 246
f 246 266 267
f 246 267 261
f 235 262 236
f 236 262 255
f 236 255 268
f 268 255 254
f 268 254 269
f 269 254 253
f 269 253 270
f 270 253 252
f 271 234 272
f 272 234 236
f 272 236 273
f 273 236 268
f 273 268 274
f 274 268 269
f 274 269 275
f 275 269 270
f 275 276 274
f 274 276 277
f 274 277 273
f 273 277 278
f 273 278 272
f 272 278 233
f 272 233 271
f 271 233 232
f 229 231 230
f 230 231 233
f 230 233 279
f 279 233 278
f 279 278 280
f 280 278 277
f 280 277 281
f 281 277 276
f 282 228 283
f 283 228 230
f 283 230 284
f 284 230 279
f 284 279 285
f 285 279 280
f 285 280 286
f 286 280 281
f 286 287 285
f 285 287 288
f 285 288 284
f 284 288 289
f 284 289 283
f 283 289 227
f 283 227 282
f 282 227 226
f 223 225 224
f 224 225 227
f 224 227 290
f 290 227 289
f 290 289 291
f 291 289 288
f 291 288 292
f 292 288 287
f 293 222 294
f 294 222 224
f 294 224 239
f 239 224 290
f 239 290 237
f 237 290 291
f 237 291 238
f 238 291 292
f 210 211 239
f 239 211 212
f 239 212 294
f 294 212 213
f 294 213 293
f 293 213 214
f 295 296 297
f 298 295 299
f 299 295 297
f 299 297 300
f 300 297 301
f 301 302 300
f 300 302 303
f 300 303 304
f 304 303 305
f 304 305 306
f 305 307 306
f 306 307 308
f 306 308 309
f 310 311 312
f 312 311 313
f 312 313 314
f 314 313 309
f 314 309 315
f 315 309 308
f 316 317 318
f 318 317 298
f 298 299 318
f 318 299 300
f 318 300 319
f 319 300 304
f 319 304 320
f 320 304 306
f 320 306 321
f 321 306 309
f 321 309 322
f 322 309 313
f 322 313 323
f 323 313 311
f 323 311 324
f 325 326 327
f 327 326 316
f 316 318 327
f 327 318 319
f 327 319 328
f 328 319 320
f 328 320 329
f 329 320 321
f 329 321 330
f 330 321 322
f 330 322 331
f 331 322 323
f 331 323 332
f 332 323 324
f 332 324 333
f 325 327 334
f 334 327 328
f 334 328 335
f 335 328 329
f 335 329 336
f 336 329 330
f 336 330 337
f 337 330 331
f 337 331 338
f 338 331 332
f 338 332 339
f 339 332 333
f 339 333 340
f 341 256 257
f 341 257 342
f 342 257 258
f 342 258 343
f 343 258 259
f 343 259 344
f 344 259 260
f 344 260 345
f 325 346 326
f 326 346 347
f 326 347 316
f 316 347 348
f 316 348 317
f 317 348 349
f 317 349 298
f 298 349 350
f 298 350 295
f 295 350 351
f 295 351 296
f 296 351 352
f 353 354 355
f 356 357 358
f 359 360 361
f 361 360 362
f 361 362 363
f 363 362 364
f 363 364 365
f 365 364 366
f 365 366 367
f 367 366 368
f 360 356 362
f 362 356 358
f 362 358 364
f 364 358 369
f 364 369 366
f 366 369 370
f 366 370 368
f 368 370 371
f 357 353 358
f 358 353 355
f 358 355 369
f 369 355 372
f 369 372 370
f 370 372 373
f 370 373 371
f 371 373 374
f 354 341 355
f 355 341 342
f 355 342 372
f 372 342 343
f 372 343 373
f 373 343 344
f 373 344 374
f 374 344 345
f 375 376 377
f 378 379 352
f 380 381 382
f 382 381 383
f 382 383 384
f 384 383 385
f 384 385 377
f 377 385 386
f 381 379 383
f 383 379 378
f 383 378 385
f 385 378 387
f 385 387 386
f 386 387 388
f 352 351 378
f 378 351 350
f 378 350 387
f 387 350 349
f 387 349 388
f 388 349 348
f 388 348 347
f 367 380 365
f 365 380 382
f 365 382 363
f 363 382 384
f 363 384 361
f 361 384 377
f 361 377 359
f 359 377 376
f 375 377 389
f 389 377 386
f 389 386 390
f 390 386 388
f 390 388 391
f 391 388 347
f 391 347 346
f 392 393 394
f 393 395 396
f 395 397 398
f 397 399 400
f 397 400 398
f 398 400 401
f 398 401 402
f 401 403 402
f 402 403 404
f 402 404 405
f 405 404 406
f 405 406 407
f 395 398 396
f 396 398 402
f 396 402 408
f 408 402 405
f 408 405 409
f 407 410 405
f 405 410 411
f 405 411 409
f 409 411 412
f 409 412 413
f 393 396 394
f 394 396 408
f 394 408 414
f 414 408 409
f 414 409 415
f 415 409 413
f 415 413 416
f 392 394 417
f 417 394 414
f 417 414 418
f 418 414 415
f 418 415 419
f 419 415 416
f 419 416 420
f 407 421 410
f 410 421 422
f 410 422 411
f 411 422 423
f 411 423 412
f 412 423 424
f 412 424 413
f 413 424 425
f 413 425 416
f 416 425 426
f 416 426 420
f 420 426 427
f 428 429 430
f 431 432 433
f 434 435 436
f 436 435 437
f 436 437 438
f 438 437 439
f 438 439 430
f 430 439 440
f 435 432 437
f 437 432 431
f 437 431 439
f 439 431 441
f 439 441 440
f 440 441 442
f 433 443 431
f 431 443 444
f 431 444 441
f 441 444 445
f 441 445 442
f 442 445 446
f 442 446 447
f 392 434 393
f 393 434 436
f 393 436 395
f 395 436 438
f 395 438 397
f 397 438 430
f 397 430 399
f 399 430 429
f 428 430 448
f 448 430 440
f 448 440 449
f 449 440 442
f 449 442 450
f 450 442 447
f 450 447 451
f 452 453 454
f 455 456 427
f 453 457 458
f 453 458 454
f 454 458 459
f 454 459 460
f 459 461 460
f 460 461 462
f 460 462 463
f 462 464 463
f 463 464 465
f 463 465 466
f 466 465 467
f 466 467 468
f 467 469 468
f 468 469 470
f 468 470 471
f 470 472 471
f 471 472 473
f 471 473 474
f 474 473 475
f 474 475 476
f 475 477 476
f 476 477 478
f 476 478 479
f 478 480 479
f 479 480 481
f 479 481 482
f 482 481 483
f 482 483 484
f 484 483 485
f 484 485 455
f 455 485 486
f 455 486 456
f 487 488 489
f 489 488 452
f 452 454 489
f 489 454 460
f 489 460 490
f 490 460 463
f 490 463 491
f 491 463 466
f 491 466 492
f 492 466 468
f 492 468 493
f 493 468 471
f 493 471 494
f 494 471 474
f 494 474 495
f 495 474 476
f 495 476 496
f 496 476 479
f 496 479 497
f 497 479 482
f 497 482 498
f 498 482 484
f 498 484 499
f 499 484 455
f 499 455 500
f 501 502 503
f 503 502 487
f 427 426 455
f 455 426 425
f 455 425 500
f 500 425 424
f 500 424 423
f 487 489 503
f 503 489 490
f 503 490 504
f 504 490 491
f 504 491 505
f 505 491 492
f 505 492 506
f 506 492 493
f 506 493 507
f 507 493 494
f 507 494 508
f 508 494 495
f 508 495 509
f 509 495 496
f 509 496 510
f 510 496 497
f 510 497 511
f 511 497 498
f 511 498 512
f 512 498 499
f 512 499 513
f 513 499 500
f 513 500 514
f 514 500 423
f 514 423 422
f 501 503 515
f 515 503 504
f 515 504 516
f 516 504 505
f 516 505 517
f 517 505 506
f 517 506 518
f 518 506 507
f 518 507 519
f 519 507 508
f 519 508 520
f 520 508 509
f 520 509 521
f 521 509 510
f 521 510 522
f 522 510 511
f 522 511 523
f 523 511 512
f 523 512 524
f 524 512 513
f 524 513 525
f 525 513 514
f 525 514 526
f 526 514 422
f 526 422 421
f 527 451 528
f 528 451 447
f 528 447 529
f 529 447 446
f 529 446 530
f 530 446 445
f 530 445 531
f 531 445 444
f 531 444 532
f 532 444 443
f 532 443 533
f 533 443 433
f 534 457 535
f 535 457 453
f 535 453 536
f 536 453 452
f 536 452 537
f 537 452 488
f 537 488 538
f 538 488 487
f 538 487 539
f 539 487 502
f 539 502 540
f 540 502 501
f 531 532 541
f 542 543 544
f 532 533 545
f 532 545 541
f 541 545 546
f 541 546 547
f 546 548 547
f 547 548 549
f 547 549 550
f 549 551 550
f 550 551 552
f 550 552 553
f 553 552 554
f 553 554 555
f 554 556 555
f 555 556 557
f 555 557 558
f 557 559 558
f 558 559 560
f 558 560 561
f 561 560 562
f 561 562 563
f 562 564 563
f 563 564 565
f 563 565 566
f 565 567 566
f 566 567 568
f 566 568 569
f 569 568 570
f 569 570 571
f 571 570 572
f 571 572 542
f 542 572 573
f 542 573 543
f 529 530 574
f 574 530 531
f 531 541 574
f 574 541 547
f 574 547 575
f 575 547 550
f 575 550 576
f 576 550 553
f 576 553 577
f 577 553 555
f 577 555 578
f 578 555 558
f 578 558 579
f 579 558 561
f 579 561 580
f 580 561 563
f 580 563 581
f 581 563 566
f 581 566 582
f 582 566 569
f 582 569 583
f 583 569 571
f 583 571 584
f 584 571 542
f 584 542 585
f 527 528 586
f 586 528 529
f 544 587 542
f 542 587 588
f 542 588 585
f 585 588 589
f 585 589 590
f 529 574 586
f 586 574 575
f 586 575 591
f 591 575 576
f 591 576 592
f 592 576 577
f 592 577 593
f 593 577 578
f 593 578 594
f 594 578 579
f 594 579 595
f 595 579 580
f 595 580 596
f 596 580 581
f 596 581 597
f 597 581 582
f 597 582 598
f 598 582 583
f 598 583 599
f 599 583 584
f 599 584 600
f 600 584 585
f 600 585 601
f 601 585 590
f 601 590 602
f 527 586 603
f 603 586 591
f 603 591 604
f 604 591 592
f 604 592 605
f 605 592 593
f 605 593 606
f 606 593 594
f 606 594 607
f 607 594 595
f 607 595 608
f 608 595 596
f 608 596 609
f 609 596 597
f 609 597 610
f 610 597 598
f 610 598 611
f 611 598 599
f 611 599 612
f 612 599 600
f 612 600 613
f 613 600 601
f 613 601 614
f 614 601 602
f 614 602 615
f 616 617 618
f 619 620 621
f 540 622 539
f 539 622 623
f 539 623 538
f 538 623 624
f 625 536 624
f 624 536 537
f 624 537 538
f 626 534 625
f 625 534 535
f 625 535 536
f 622 619 623
f 623 619 621
f 623 621 624
f 624 621 627
f 624 627 625
f 625 627 628
f 625 628 626
f 626 628 629
f 620 616 621
f 621 616 618
f 621 618 627
f 627 618 630
f 627 630 628
f 628 630 631
f 628 631 629
f 629 631 632
f 617 633 618
f 618 633 634
f 618 634 630
f 630 634 635
f 630 635 631
f 631 635 636
f 631 636 632
f 632 636 637
f 544 638 587
f 587 638 639
f 587 639 588
f 588 639 640
f 588 640 589
f 589 640 641
f 589 641 590
f 590 641 642
f 590 642 602
f 602 642 643
f 602 643 615
f 615 643 644
f 645 646 647
f 638 648 639
f 639 648 649
f 650 642 651
f 651 642 641
f 651 641 649
f 649 641 640
f 649 640 639
f 648 652 649
f 649 652 653
f 649 653 651
f 651 653 654
f 651 654 650
f 650 654 647
f 655 644 650
f 650 644 643
f 650 643 642
f 647 646 650
f 650 646 656
f 650 656 655
f 657 645 658
f 658 645 647
f 658 647 659
f 659 647 654
f 659 654 660
f 660 654 653
f 660 653 661
f 661 653 652
f 661 637 660
f 660 637 636
f 660 636 659
f 659 636 635
f 659 635 658
f 658 635 634
f 658 634 657
f 657 634 633
f 662 663 664
f 664 663 665
f 664 665 666
f 666 665 667
f 666 667 668
f 668 667 669
f 668 669 670
f 670 669 671
f 672 673 674
f 674 673 675
f 674 675 676
f 676 675 677
f 676 677 678
f 678 677 679
f 678 679 680
f 680 679 681
f 682 683 684
f 684 683 685
f 686 687 688
f 688 687 689
f 690 691 692
f 692 691 693
f 694 695 696
f 696 695 697
f 359 179 360
f 360 179 156
f 360 156 356
f 356 156 155
f 356 155 357
f 357 155 159
f 357 159 353
f 353 159 158
f 353 158 354
f 354 158 162
f 354 162 341
f 341 162 161
f 540 407 622
f 622 407 406
f 622 406 619
f 619 406 404
f 619 404 620
f 620 404 403
f 620 403 616
f 616 403 401
f 616 401 617
f 617 401 400
f 617 400 633
f 633 400 399
f 179 359 203
f 203 359 376
f 203 376 184
f 184 376 375
f 184 375 185
f 185 375 389
f 185 389 202
f 202 389 390
f 202 390 199
f 199 390 391
f 199 391 200
f 200 391 346
f 451 644 450
f 450 644 655
f 450 655 449
f 449 655 656
f 449 656 448
f 448 656 646
f 448 646 428
f 428 646 645
f 428 645 429
f 429 645 657
f 429 657 399
f 399 657 633
f 698 699 700
f 700 699 701
f 700 701 702
f 702 701 703
f 702 703 704
f 704 703 705
f 704 705 706
f 706 705 707
f 708 709 710
f 710 709 711
f 710 711 712
f 712 711 713
f 712 713 714
f 714 713 715
f 714 715 716
f 716 715 717
f 149 151 718
f 718 151 154
f 718 154 719
f 719 154 153
f 719 153 720
f 149 718 147
f 147 718 721
f 147 721 146
f 138 722 136
f 136 722 723
f 136 723 724
f 138 140 722
f 722 140 141
f 722 141 725
f 725 141 143
f 725 143 144
f 726 727 728
f 728 727 729
f 728 729 721
f 721 729 725
f 721 725 146
f 146 725 144
f 130 132 730
f 730 132 135
f 730 135 731
f 731 135 134
f 731 134 732
f 130 730 128
f 128 730 733
f 128 733 127
f 119 734 117
f 117 734 735
f 117 735 736
f 119 121 734
f 734 121 122
f 734 122 737
f 737 122 124
f 737 124 125
f 125 127 737
f 737 127 733
f 737 733 738
f 738 733 739
f 738 739 740
f 740 739 741
f 687 671 689
f 689 671 669
f 689 669 709
f 679 677 707
f 707 677 675
f 707 675 684
f 684 675 673
f 684 673 682
f 679 707 681
f 681 707 705
f 681 705 703
f 669 667 709
f 709 667 665
f 709 665 711
f 711 665 663
f 711 663 713
f 713 663 715
f 703 701 681
f 681 701 699
f 681 699 663
f 663 699 717
f 663 717 715
f 681 663 680
f 680 663 662
f 696 742 743
f 742 696 744
f 744 696 697
f 744 697 745
f 743 746 696
f 696 746 101
f 696 101 735
f 745 697 115
f 115 697 731
f 115 731 113
f 109 732 747
f 103 748 101
f 101 748 749
f 101 749 735
f 735 749 750
f 735 750 736
f 732 109 731
f 731 109 111
f 731 111 113
f 747 751 109
f 109 751 752
f 109 752 107
f 107 752 748
f 107 748 105
f 105 748 103
f 753 692 754
f 754 692 693
f 754 693 755
f 753 756 692
f 692 756 100
f 692 100 723
f 757 758 94
f 100 98 723
f 723 98 96
f 723 96 724
f 724 96 94
f 724 94 759
f 759 94 758
f 720 760 719
f 719 760 86
f 719 86 693
f 693 86 761
f 693 761 755
f 760 762 86
f 86 762 763
f 86 763 88
f 88 763 90
f 757 94 763
f 763 94 92
f 763 92 90
f 611 612 74
f 74 612 76
f 611 74 610
f 610 74 72
f 610 72 609
f 70 607 72
f 72 607 608
f 72 608 609
f 68 605 70
f 70 605 606
f 70 606 607
f 612 613 76
f 76 613 614
f 76 614 78
f 78 614 615
f 78 615 764
f 764 615 644
f 764 644 765
f 66 603 68
f 68 603 604
f 68 604 605
f 766 451 66
f 66 451 527
f 66 527 603
f 766 767 451
f 451 767 768
f 451 768 644
f 644 768 769
f 644 769 765
f 338 339 50
f 50 339 52
f 339 340 52
f 52 340 770
f 52 770 54
f 48 336 50
f 50 336 337
f 50 337 338
f 46 334 48
f 48 334 335
f 48 335 336
f 771 56 772
f 772 56 54
f 772 54 773
f 773 54 770
f 774 346 46
f 46 346 325
f 46 325 334
f 775 200 776
f 776 200 346
f 776 346 777
f 777 346 774
f 771 778 56
f 56 778 779
f 56 779 58
f 58 779 221
f 58 221 780
f 780 221 200
f 780 200 781
f 781 200 775
f 782 783 784
f 691 690 783
f 783 690 785
f 783 785 786
f 786 787 783
f 783 787 788
f 783 788 784
f 789 790 784
f 784 790 791
f 784 791 782
f 741 727 740
f 740 727 726
f 695 694 792
f 792 694 793
f 792 793 794
f 794 795 792
f 792 795 796
f 792 796 797
f 798 792 799
f 799 792 797
f 799 797 800
f 800 797 801
f 802 803 804
f 670 671 804
f 804 671 687
f 805 802 806
f 687 686 804
f 804 686 807
f 804 807 802
f 802 807 808
f 802 808 806
f 809 810 806
f 806 810 811
f 806 811 805
f 673 672 682
f 682 672 812
f 813 814 815
f 683 682 816
f 816 682 812
f 816 812 814
f 814 812 817
f 814 817 815
f 818 819 820
f 820 819 813
f 820 813 821
f 821 813 815
f 695 792 214
f 678 187 676
f 676 187 674
f 674 187 672
f 672 187 215
f 672 215 812
f 733 730 171
f 171 730 731
f 171 731 214
f 214 731 697
f 214 697 695
f 804 533 670
f 670 533 433
f 670 433 668
f 723 420 692
f 692 420 427
f 692 427 690
f 690 427 785
f 432 435 664
f 729 392 417
f 723 722 420
f 420 722 725
f 420 725 419
f 419 725 729
f 419 729 418
f 418 729 417
f 432 664 433
f 433 664 666
f 433 666 668
f 662 664 727
f 727 664 435
f 727 435 729
f 729 435 434
f 729 434 392
f 733 171 739
f 739 171 170
f 739 170 175
f 662 727 680
f 680 727 741
f 680 741 678
f 739 207 741
f 741 207 196
f 741 196 678
f 678 196 188
f 678 188 187
f 175 178 739
f 739 178 183
f 739 183 207
f 544 543 807
f 807 543 808
f 543 573 808
f 808 573 572
f 808 572 806
f 567 809 568
f 568 809 806
f 568 806 570
f 570 806 572
f 562 810 564
f 564 810 809
f 564 809 565
f 565 809 567
f 562 560 810
f 810 560 559
f 810 559 811
f 554 805 556
f 556 805 811
f 556 811 557
f 557 811 559
f 554 552 805
f 805 552 551
f 805 551 802
f 551 549 802
f 802 549 548
f 802 548 803
f 533 804 545
f 545 804 803
f 545 803 546
f 546 803 548
f 691 783 457
f 721 718 534
f 534 718 719
f 534 719 457
f 457 719 693
f 457 693 691
f 629 632 728
f 728 632 637
f 728 637 661
f 683 816 296
f 721 534 728
f 728 534 626
f 728 626 629
f 380 702 381
f 381 702 704
f 381 704 379
f 807 686 544
f 544 686 688
f 544 688 638
f 638 688 708
f 638 708 648
f 648 708 710
f 648 710 652
f 735 345 696
f 696 345 260
f 696 260 694
f 694 260 793
f 735 734 345
f 345 734 737
f 345 737 738
f 740 700 738
f 738 700 702
f 738 702 345
f 345 702 380
f 345 380 367
f 368 371 367
f 367 371 374
f 367 374 345
f 379 704 352
f 352 704 706
f 352 706 296
f 296 706 685
f 296 685 683
f 652 710 661
f 661 710 712
f 661 712 728
f 728 712 714
f 728 714 726
f 726 714 716
f 726 716 740
f 740 716 698
f 740 698 700
f 427 456 785
f 785 456 786
f 483 787 485
f 485 787 786
f 485 786 486
f 486 786 456
f 483 481 787
f 787 481 480
f 787 480 788
f 475 784 477
f 477 784 788
f 477 788 478
f 478 788 480
f 475 473 784
f 784 473 472
f 784 472 789
f 472 470 789
f 789 470 469
f 789 469 790
f 464 791 465
f 465 791 790
f 465 790 467
f 467 790 469
f 464 462 791
f 791 462 461
f 791 461 782
f 457 783 458
f 458 783 782
f 458 782 459
f 459 782 461
f 421 822 823
f 824 825 520
f 501 826 85
f 540 148 407
f 407 148 145
f 407 145 142
f 520 825 519
f 519 825 827
f 519 827 518
f 518 827 517
f 517 827 828
f 517 828 516
f 40 823 41
f 41 823 829
f 41 829 42
f 516 828 515
f 515 828 44
f 515 44 501
f 826 501 830
f 830 501 44
f 830 44 829
f 829 44 43
f 829 43 42
f 40 39 823
f 823 39 38
f 823 38 421
f 421 38 37
f 421 37 526
f 526 37 831
f 832 524 831
f 831 524 525
f 831 525 526
f 520 521 824
f 824 521 522
f 824 522 832
f 832 522 523
f 832 523 524
f 833 501 834
f 834 501 85
f 834 85 835
f 835 85 87
f 835 87 836
f 833 837 501
f 501 837 152
f 501 152 540
f 540 152 150
f 540 150 148
f 142 139 407
f 407 139 137
f 407 137 838
f 822 421 99
f 99 421 407
f 99 407 97
f 87 89 836
f 836 89 91
f 836 91 838
f 838 91 93
f 838 93 407
f 407 93 95
f 407 95 97
f 296 816 297
f 297 816 814
f 297 814 301
f 301 814 302
f 302 814 813
f 302 813 303
f 819 307 813
f 813 307 305
f 813 305 303
f 312 314 818
f 818 314 315
f 818 315 819
f 819 315 308
f 819 308 307
f 312 818 310
f 310 818 820
f 310 820 839
f 821 840 820
f 820 840 841
f 820 841 839
f 815 842 821
f 821 842 843
f 821 843 840
f 844 845 817
f 817 845 846
f 817 846 815
f 815 846 847
f 815 847 842
f 844 817 848
f 848 817 812
f 848 812 215
f 214 792 293
f 293 792 798
f 799 223 798
f 798 223 222
f 798 222 293
f 228 282 800
f 800 282 226
f 800 226 799
f 799 226 225
f 799 225 223
f 228 800 229
f 229 800 801
f 229 801 231
f 231 801 232
f 232 801 797
f 232 797 271
f 263 262 796
f 796 262 235
f 796 235 797
f 797 235 234
f 797 234 271
f 263 796 264
f 264 796 795
f 264 795 265
f 265 795 266
f 266 795 794
f 266 794 267
f 267 794 261
f 261 794 793
f 261 793 260
f 685 706 684
f 684 706 707
f 689 709 688
f 688 709 708
f 717 699 716
f 716 699 698
f 849 850 276
f 106 104 341
f 341 104 102
f 341 102 18
f 276 850 281
f 281 850 851
f 281 851 286
f 131 129 161
f 161 129 126
f 161 126 341
f 341 126 123
f 341 123 120
f 18 17 341
f 341 17 16
f 341 16 256
f 256 16 15
f 256 15 240
f 240 15 852
f 853 248 852
f 852 248 241
f 852 241 240
f 276 275 849
f 849 275 270
f 849 270 853
f 853 270 252
f 853 252 248
f 286 851 287
f 287 851 854
f 287 854 292
f 292 854 238
f 238 854 22
f 238 22 208
f 855 208 856
f 856 208 22
f 856 22 857
f 857 22 21
f 857 21 858
f 858 21 20
f 858 20 102
f 102 20 19
f 102 19 18
f 112 110 161
f 120 118 341
f 341 118 859
f 341 859 106
f 106 859 860
f 106 860 861
f 855 862 208
f 208 862 116
f 208 116 161
f 161 116 114
f 161 114 112
f 863 864 110
f 110 864 865
f 110 865 161
f 161 865 133
f 161 133 131
f 863 110 861
f 861 110 108
f 861 108 106
f 340 333 866
f 333 324 867
f 310 839 311
f 311 839 868
f 311 868 324
f 839 841 868
f 868 841 840
f 868 840 869
f 869 840 843
f 869 843 870
f 843 842 870
f 870 842 847
f 870 847 871
f 847 846 871
f 871 846 845
f 871 845 872
f 872 845 844
f 872 844 873
f 873 844 848
f 873 848 215
f 324 868 867
f 867 868 869
f 867 869 874
f 874 869 870
f 874 870 875
f 875 870 871
f 875 871 876
f 876 871 872
f 876 872 877
f 877 872 873
f 877 873 878
f 215 216 873
f 873 216 217
f 873 217 878
f 878 217 218
f 878 218 219
f 333 867 866
f 866 867 874
f 866 874 879
f 879 874 875
f 879 875 880
f 880 875 876
f 880 876 881
f 881 876 877
f 881 877 882
f 882 877 878
f 882 878 883
f 883 878 219
f 883 219 220
f 340 866 770
f 770 866 879
f 770 879 773
f 773 879 880
f 773 880 772
f 772 880 881
f 772 881 771
f 771 881 882
f 771 882 778
f 778 882 883
f 778 883 779
f 779 883 220
f 779 220 221
f 720 153 152
f 720 152 760
f 760 152 837
f 760 837 762
f 762 837 833
f 762 833 763
f 763 833 834
f 763 834 757
f 757 834 835
f 757 835 758
f 758 835 836
f 758 836 759
f 759 836 838
f 759 838 724
f 724 838 137
f 724 137 136
f 732 134 133
f 732 133 747
f 747 133 865
f 747 865 751
f 751 865 864
f 751 864 752
f 752 864 863
f 752 863 748
f 748 863 861
f 748 861 749
f 749 861 860
f 749 860 750
f 750 860 859
f 750 859 736
f 736 859 118
f 736 118 117
f 115 116 745
f 745 116 862
f 745 862 744
f 744 862 855
f 744 855 742
f 742 855 856
f 742 856 743
f 743 856 857
f 743 857 746
f 746 857 858
f 746 858 101
f 101 858 102
f 99 100 822
f 822 100 756
f 822 756 823
f 823 756 753
f 823 753 829
f 829 753 754
f 829 754 830
f 830 754 755
f 830 755 826
f 826 755 761
f 826 761 85
f 85 761 86
f 77 78 79
f 79 78 764
f 79 764 84
f 84 764 765
f 84 765 80
f 80 765 769
f 80 769 81
f 81 769 768
f 81 768 82
f 82 768 767
f 82 767 83
f 83 767 766
f 83 766 65
f 65 766 66
f 57 58 59
f 59 58 780
f 59 780 61
f 61 780 781
f 61 781 62
f 62 781 775
f 62 775 64
f 64 775 776
f 64 776 63
f 63 776 777
f 63 777 60
f 60 777 774
f 60 774 45
f 45 774 46
f 23 44 24
f 24 44 828
f 24 828 32
f 32 828 827
f 32 827 31
f 31 827 825
f 31 825 30
f 30 825 824
f 30 824 29
f 29 824 832
f 29 832 25
f 25 832 831
f 25 831 27
f 27 831 37
f 10 22 9
f 9 22 854
f 9 854 8
f 8 854 851
f 8 851 7
f 7 851 850
f 7 850 4
f 4 850 849
f 4 849 5
f 5 849 853
f 5 853 6
f 6 853 852
f 6 852 14
f 14 852 15
f 1 2 3
f 4 5 6
f 7 4 8
f 8 4 1
f 8 1 9
f 9 1 3
f 9 3 10
f 11 1 12
f 12 1 4
f 12 4 13
f 13 4 6
f 13 6 14
f 23 24 25
f 23 25 26
f 26 25 27
f 26 27 28
f 29 25 30
f 30 25 24
f 30 24 31
f 31 24 32
f 33 34 35
f 35 34 26
f 35 26 36
f 36 26 28
f 57 59 60
f 59 61 62
f 45 47 49
f 60 59 63
f 63 59 62
f 63 62 64
f 57 60 55
f 55 60 45
f 55 45 53
f 53 45 49
f 53 49 51
f 77 79 67
f 80 81 82
f 65 67 83
f 83 67 79
f 83 79 82
f 82 79 84
f 82 84 80
f 73 75 71
f 71 75 77
f 71 77 69
f 69 77 67
