# Converted from COLLADA
v 0.004040122 0.00484997 -1.35736e-05
v 0.003999948 0.004999995 -1.34377e-05
v 0.003981113 0.00484997 0.000688201
v 0.003941535 0.004999995 0.000681354
v 0.003801107 0.00484997 0.001369059
v 0.003763318 0.004999995 0.001355409
v 0.003505647 0.00484997 0.002008318
v 0.003470778 0.004999995 0.001988351
v 0.003103673 0.00484997 0.002586543
v 0.003072738 0.004999995 0.002560794
v 0.002607345 0.00484997 0.003086209
v 0.002581417 0.004999995 0.003055512
v 0.002031803 0.00484997 0.003492057
v 0.002011597 0.004999995 0.003457307
v 0.001394569 0.00484997 0.003791868
v 0.001380681 0.004999995 0.003754138
v 0.000714934 0.00484997 0.003976404
v 0.000707821 0.004999995 0.003936827
v 1.35726e-05 0.00484997 0.004040122
v 1.34368e-05 0.004999995 0.003999948
v -0.000688203 0.00484997 0.003981113
v -0.000681357 0.004999995 0.003941535
v -0.001369059 0.00484997 0.003801107
v -0.001355409 0.004999995 0.003763318
v -0.002008318 0.00484997 0.003505647
v -0.001988291 0.004999995 0.003470778
v -0.002586543 0.00484997 0.003103673
v -0.002560794 0.004999995 0.003072798
v -0.003086209 0.00484997 0.002607345
v -0.003055512 0.004999995 0.002581417
v -0.003492057 0.00484997 0.002031803
v -0.003457307 0.004999995 0.002011597
v -0.003791868 0.00484997 0.001394569
v -0.003754138 0.004999995 0.001380681
v -0.003976404 0.00484997 0.000714932
v -0.003936827 0.004999995 0.000707821
v -0.004040122 0.00484997 1.35708e-05
v -0.003999948 0.004999995 1.34387e-05
v 0.004149973 0.004740178 -1.39419e-05
v 0.004089295 0.004740178 0.000706906
v 0.003904461 0.004740178 0.001406252
v 0.003600955 0.004740178 0.002062857
v 0.003188014 0.004740178 0.002656817
v 0.002678215 0.004740178 0.003170073
v 0.002087056 0.004740178 0.003587007
v 0.001432418 0.004740178 0.003894925
v 0.000734366 0.004740178 0.004084467
v 1.39409e-05 0.004740178 0.004149973
v -0.000706905 0.004740178 0.004089295
v -0.001406252 0.004740178 0.003904461
v -0.002062857 0.004740178 0.003600955
v -0.002656817 0.004740178 0.003188014
v -0.003170073 0.004740178 0.002678215
v -0.003587007 0.004740178 0.002087056
v -0.003894925 0.004740178 0.001432418
v -0.004084467 0.004740178 0.000734364
v -0.004149973 0.004740178 1.39428e-05
v 0.004299938 0.004699945 -1.4446e-05
v 0.004237115 0.004699945 0.000732458
v 0.004045546 0.004699945 0.001457095
v 0.003731071 0.004699945 0.002137422
v 0.003303229 0.004699945 0.0027529
v 0.002775013 0.004699945 0.003284633
v 0.002162456 0.004699945 0.003716647
v 0.001484215 0.004699945 0.004035711
v 0.000760908 0.004699945 0.004232108
v 1.4445e-05 0.004699945 0.004299938
v -0.000732457 0.004699945 0.004237115
v -0.001457095 0.004699945 0.004045546
v -0.002137422 0.004699945 0.003731071
v -0.0027529 0.004699945 0.003303229
v -0.003284633 0.004699945 0.002775013
v -0.003716647 0.004699945 0.002162456
v -0.004035711 0.004699945 0.001484215
v -0.004232108 0.004699945 0.00076091
v -0.004299938 0.004699945 1.44471e-05
v 0.004149973 -0.004340171 -1.39419e-05
v 0.004299938 -0.004299998 -1.4446e-05
v 0.004089295 -0.004340171 0.000706906
v 0.004237115 -0.004299998 0.000732458
v 0.003904461 -0.004340171 0.001406252
v 0.004045546 -0.004299998 0.001457095
v 0.003600955 -0.004340171 0.002062857
v 0.003731071 -0.004299998 0.002137422
v 0.003188014 -0.004340171 0.002656817
v 0.003303229 -0.004299998 0.0027529
v 0.002678215 -0.004340171 0.003170073
v 0.002775013 -0.004299998 0.003284633
v 0.002087056 -0.004340171 0.003587007
v 0.002162456 -0.004299998 0.003716647
v 0.001432418 -0.004340171 0.003894925
v 0.001484215 -0.004299998 0.004035711
v 0.000734366 -0.004340171 0.004084467
v 0.000760908 -0.004299998 0.004232108
v 1.39409e-05 -0.004340171 0.004149973
v 1.4445e-05 -0.004299998 0.004299938
v -0.000706905 -0.004340171 0.004089295
v -0.000732457 -0.004299998 0.004237115
v -0.001406252 -0.004340171 0.003904461
v -0.001457095 -0.004299998 0.004045546
v -0.002062857 -0.004340171 0.003600955
v -0.002137422 -0.004299998 0.003731071
v -0.002656817 -0.004340171 0.003188014
v -0.0027529 -0.004299998 0.003303229
v -0.003170073 -0.004340171 0.002678215
v -0.003284633 -0.004299998 0.002775013
v -0.003587007 -0.004340171 0.002087056
v -0.003716647 -0.004299998 0.002162456
v -0.003894925 -0.004340171 0.001432418
v -0.004035711 -0.004299998 0.001484215
v -0.004084467 -0.004340171 0.000734364
v -0.004232108 -0.004299998 0.00076091
v -0.004149973 -0.004340171 1.39428e-05
v -0.004299938 -0.004299998 1.44471e-05
v 0.004040122 -0.004449963 -1.35736e-05
v 0.003981113 -0.004449963 0.000688201
v 0.003801107 -0.004449963 0.001369059
v 0.003505647 -0.004449963 0.002008318
v 0.003103673 -0.004449963 0.002586543
v 0.002607345 -0.004449963 0.003086209
v 0.002031803 -0.004449963 0.003492057
v 0.001394569 -0.004449963 0.003791868
v 0.000714934 -0.004449963 0.003976404
v 1.35726e-05 -0.004449963 0.004040122
v -0.000688203 -0.004449963 0.003981113
v -0.001369059 -0.004449963 0.003801107
v -0.002008318 -0.004449963 0.003505647
v -0.002586543 -0.004449963 0.003103673
v -0.003086209 -0.004449963 0.002607345
v -0.003492057 -0.004449963 0.002031803
v -0.003791868 -0.004449963 0.001394569
v -0.003976404 -0.004449963 0.000714932
v -0.004040122 -0.004449963 1.35708e-05
v 0.003999948 -0.004599988 -1.34377e-05
v 0.003941535 -0.004599988 0.000681354
v 0.003763318 -0.004599988 0.001355409
v 0.003470778 -0.004599988 0.001988351
v 0.003072738 -0.004599988 0.002560794
v 0.002581417 -0.004599988 0.003055512
v 0.002011597 -0.004599988 0.003457307
v 0.001380681 -0.004599988 0.003754138
v 0.000707821 -0.004599988 0.003936827
v 1.34368e-05 -0.004599988 0.003999948
v -0.000681357 -0.004599988 0.003941535
v -0.001355409 -0.004599988 0.003763318
v -0.001988291 -0.004599988 0.003470778
v -0.002560794 -0.004599988 0.003072798
v -0.003055512 -0.004599988 0.002581417
v -0.003457307 -0.004599988 0.002011597
v -0.003754138 -0.004599988 0.001380681
v -0.003936827 -0.004599988 0.000707821
v -0.003999948 -0.004599988 1.34387e-05
v 0.003749966 0.008449971 -1.25962e-05
v 0.003999948 0.008199989 -1.34377e-05
v 0.003754138 0.008199989 -0.001380681
v 0.003519475 0.008449971 -0.001294374
v 0.003055512 0.008199989 -0.002581417
v 0.002864539 0.008449971 -0.002420067
v 0.001988351 0.008199989 -0.003470778
v 0.001864075 0.008449971 -0.003253877
v 0.000681356 0.008199989 -0.003941535
v 0.000638772 0.008449971 -0.003695189
v -0.000707822 0.008199989 -0.003936827
v -0.000663583 0.008449971 -0.003690779
v -0.002011597 0.008199989 -0.003457307
v -0.00188589 0.008449971 -0.00324124
v -0.003072798 0.008199989 -0.002560794
v -0.002880692 0.008449971 -0.002400755
v -0.003763318 0.008199989 -0.001355409
v -0.003528118 0.008449971 -0.001270711
v -0.003999948 0.008199989 1.34387e-05
v -0.003749966 0.008449971 1.25972e-05
v -0.003749966 -0.008049964 1.25972e-05
v -0.003999948 -0.007799983 1.34387e-05
v -0.003763318 -0.007799983 -0.001355409
v -0.003528118 -0.008049964 -0.001270711
v -0.003072798 -0.007799983 -0.002560794
v -0.002880692 -0.008049964 -0.002400755
v -0.002011597 -0.007799983 -0.003457307
v -0.00188589 -0.008049964 -0.00324124
v -0.000707822 -0.007799983 -0.003936827
v -0.000663583 -0.008049964 -0.003690779
v 0.000681356 -0.007799983 -0.003941535
v 0.000638772 -0.008049964 -0.003695189
v 0.001988351 -0.007799983 -0.003470778
v 0.001864075 -0.008049964 -0.003253877
v 0.003055512 -0.007799983 -0.002581417
v 0.002864539 -0.008049964 -0.002420067
v 0.003754138 -0.007799983 -0.001380681
v 0.003519475 -0.008049964 -0.001294374
v 0.003999948 -0.007799983 -1.34377e-05
v 0.003749966 -0.008049964 -1.25962e-05
v 0.000663583 0.008449971 0.003690779
v 0.00188589 0.008449971 0.00324124
v 0.002880692 0.008449971 0.002400755
v -0.002864539 0.008449971 0.002420067
v -0.001864075 0.008449971 0.003253817
v -0.000638771 0.008449971 0.003695189
v -0.003519475 0.008449971 0.001294374
v 0.003528118 0.008449971 0.001270711
v 0.003936827 0.004999995 -0.00070782
v 0.003754138 0.004999995 -0.001380681
v 0.003457307 0.004999995 -0.002011597
v 0.003055512 0.004999995 -0.002581417
v 0.002560794 0.004999995 -0.003072798
v 0.001988351 0.004999995 -0.003470778
v 0.001355409 0.004999995 -0.003763318
v 0.000681356 0.004999995 -0.003941535
v -1.34378e-05 0.004999995 -0.003999948
v -0.000707822 0.004999995 -0.003936827
v -0.001380681 0.004999995 -0.003754138
v -0.002011597 0.004999995 -0.003457307
v -0.002581417 0.004999995 -0.003055512
v -0.003072798 0.004999995 -0.002560794
v -0.003470778 0.004999995 -0.001988291
v -0.003941535 0.004999995 -0.000681357
v -0.003763318 0.004999995 -0.001355409
v 0.003936827 -0.004599988 -0.00070782
v 0.003754138 -0.004599988 -0.001380681
v 0.003457307 -0.004599988 -0.002011597
v 0.003055512 -0.004599988 -0.002581417
v 0.002560794 -0.004599988 -0.003072798
v 0.001988351 -0.004599988 -0.003470778
v 0.001355409 -0.004599988 -0.003763318
v 0.000681356 -0.004599988 -0.003941535
v -1.34378e-05 -0.004599988 -0.003999948
v -0.000707822 -0.004599988 -0.003936827
v -0.001380681 -0.004599988 -0.003754138
v -0.002011597 -0.004599988 -0.003457307
v -0.002581417 -0.004599988 -0.003055512
v -0.003072798 -0.004599988 -0.002560794
v -0.003470778 -0.004599988 -0.001988291
v -0.003763318 -0.004599988 -0.001355409
v -0.003941535 -0.004599988 -0.000681357
v 0.003528118 -0.008049964 0.001270711
v 0.002880692 -0.008049964 0.002400755
v 0.00188589 -0.008049964 0.00324124
v -0.002864539 -0.008049964 0.002420067
v -0.003519475 -0.008049964 0.001294374
v 0.000663583 -0.008049964 0.003690779
v -0.000638771 -0.008049964 0.003695189
v -0.001864075 -0.008049964 0.003253817
v -0.02552789 0.004199981 0.001515567
v -0.02602785 0.004699945 0.001517236
v -0.02533435 0.004199981 0.002471625
v -0.02579569 0.004699945 0.002664506
v -0.02478969 0.004199981 0.003280878
v -0.02514207 0.004699945 0.003635585
v -0.02397686 0.004199981 0.003820061
v -0.02416664 0.004699945 0.004282653
v -0.02301949 0.004199981 0.00400716
v -0.02301782 0.004699945 0.004507184
v -0.02206343 0.004199981 0.003813624
v -0.02187055 0.004699945 0.004274964
v -0.02125418 0.004199981 0.003269016
v -0.02089947 0.004699945 0.003621339
v -0.02071499 0.004199981 0.002456128
v -0.0202524 0.004699945 0.002645909
v -0.02052789 0.004199981 0.001498758
v -0.02002793 0.004699945 0.001497089
v -0.02552789 -0.003799974 0.001515567
v -0.02533435 -0.003799974 0.002471625
v -0.02478969 -0.003799974 0.003280878
v -0.02397686 -0.003799974 0.003820061
v -0.02301949 -0.003799974 0.00400716
v -0.02206343 -0.003799974 0.003813624
v -0.02125418 -0.003799974 0.003269016
v -0.02071499 -0.003799974 0.002456128
v -0.02052789 -0.003799974 0.001498758
v -0.02002793 -0.004299998 0.001497089
v -0.0202524 -0.004299998 0.002645909
v -0.02089947 -0.004299998 0.003621339
v -0.02187055 -0.004299998 0.004274964
v -0.02301782 -0.004299998 0.004507184
v -0.02416664 -0.004299998 0.004282653
v -0.02514207 -0.004299998 0.003635585
v -0.02579569 -0.004299998 0.002664506
v -0.02602785 -0.004299998 0.001517236
v -0.03502613 0.004199981 -0.003751695
v -0.03552609 0.004699945 -0.003750026
v -0.03481101 0.004199981 -0.00255531
v -0.03528028 0.004699945 -0.002382755
v -0.03419971 0.004199981 -0.001504659
v -0.03458166 0.004699945 -0.001182019
v -0.03326594 0.004199981 -0.000726515
v -0.03351449 0.004699945 -0.000292664
v -0.03212231 0.004199981 -0.000314616
v -0.03220748 0.004699945 0.000178075
v -0.03090679 0.004199981 -0.000318701
v -0.03081834 0.004699945 0.000173411
v -0.02976596 0.004199981 -0.000738274
v -0.02951449 0.004699945 -0.000306102
v -0.02883744 0.004199981 -0.001522719
v -0.02845335 0.004699945 -0.001202583
v -0.02823323 0.004199981 -0.002577424
v -0.02776277 0.004699945 -0.002407968
v -0.02802616 0.004199981 -0.003775179
v -0.02752614 0.004699945 -0.003776848
v -0.03502613 -0.003799974 -0.003751695
v -0.03481101 -0.003799974 -0.00255531
v -0.03419971 -0.003799974 -0.001504659
v -0.03326594 -0.003799974 -0.000726515
v -0.03212231 -0.003799974 -0.000314616
v -0.03090679 -0.003799974 -0.000318701
v -0.02976596 -0.003799974 -0.000738274
v -0.02883744 -0.003799974 -0.001522719
v -0.02823323 -0.003799974 -0.002577424
v -0.02802616 -0.003799974 -0.003775179
v -0.02752614 -0.004299998 -0.003776848
v -0.02776277 -0.004299998 -0.002407968
v -0.02845335 -0.004299998 -0.001202583
v -0.02951449 -0.004299998 -0.000306102
v -0.03081834 -0.004299998 0.000173411
v -0.03220748 -0.004299998 0.000178075
v -0.03351449 -0.004299998 -0.000292664
v -0.03458166 -0.004299998 -0.001182019
v -0.03528028 -0.004299998 -0.002382755
v -0.03552609 -0.004299998 -0.003750026
v -0.005404472 0.004699945 0.005343317
v -0.005404472 -0.004299998 0.005343317
v -0.004001915 -0.004299998 0.006460964
v -0.004001915 0.004699945 0.006460964
v -0.002376556 -0.004299998 0.007218837
v -0.002376556 0.004699945 0.007218837
v -0.000618828 -0.004299998 0.007574737
v -0.000618828 0.004699945 0.007574737
v 0.001173317 -0.004299998 0.007508873
v 0.001173317 0.004699945 0.007508873
v 0.002900183 -0.004299998 0.007024824
v 0.002900183 0.004699945 0.007024824
v 0.00446552 -0.004299998 0.006149649
v 0.00446552 0.004699945 0.006149649
v 0.005782246 -0.004299998 0.004932045
v 0.005782246 0.004699945 0.004932045
v 0.006776988 -0.004299998 0.003439784
v 0.006776988 0.004699945 0.003439784
v 0.007394313 -0.004299998 0.001756012
v 0.007394313 0.004699945 0.001756012
v 0.007599949 -0.004299998 -2.55302e-05
v 0.007599949 0.004699945 -2.55302e-05
v -0.007300734 0.004699945 0.00441569
v -0.007300734 -0.004299998 0.00441569
v -0.006273925 0.004699945 0.004718661
v -0.006273925 -0.004299998 0.004718661
v -0.01393574 0.004699945 0.003623664
v -0.01393574 -0.004299998 0.003623664
v -0.0160669 0.004699945 0.00412321
v -0.0160669 -0.004299998 0.00412321
v -0.0150454 0.004699945 0.003685534
v -0.0150454 -0.004299998 0.003685534
v -0.02514892 0.004699945 0.0100646
v -0.02514892 -0.004299998 0.0100646
v -0.02699744 0.004699945 0.008918166
v -0.02699744 -0.004299998 0.008918166
v -0.02693921 -0.004299998 0.009454905
v -0.02693921 0.004699945 0.009454905
v -0.02665156 -0.004299998 0.009911775
v -0.02665156 0.004699945 0.009911775
v -0.02619272 -0.004299998 0.01019632
v -0.02619272 0.004699945 0.01019632
v -0.02565562 -0.004299998 0.01025098
v -0.02565562 0.004699945 0.01025098
v -0.02665895 0.004699945 0.006082832
v -0.02665895 -0.004299998 0.006082832
v -0.02945709 0.004699945 0.002526104
v -0.02945709 -0.004299998 0.002526104
v -0.02835595 0.004699945 0.002866566
v -0.02835595 -0.004299998 0.002866566
v -0.02744686 0.004699945 0.003575146
v -0.02744686 -0.004299998 0.003575146
v -0.02684777 0.004699945 0.004559755
v -0.02684777 -0.004299998 0.004559755
v -0.02663642 0.004699945 0.00569278
v -0.02663642 -0.004299998 0.00569278
v -0.03223735 0.004699945 0.002194225
v -0.03223735 -0.004299998 0.002194225
v -0.02767044 0.004699945 -0.008360564
v -0.02767044 -0.004299998 -0.008360564
v -0.02912509 -0.004299998 -0.009262084
v -0.02912509 0.004699945 -0.009262084
v -0.03077512 -0.004299998 -0.009716272
v -0.03077512 0.004699945 -0.009716272
v -0.03248625 -0.004299998 -0.009686112
v -0.03248625 0.004699945 -0.009686112
v -0.03411924 -0.004299998 -0.009174168
v -0.03411924 0.004699945 -0.009174168
v -0.03554129 -0.004299998 -0.008221983
v -0.03554129 0.004699945 -0.008221983
v -0.03663671 -0.004299998 -0.006907045
v -0.03663671 0.004699945 -0.006907045
v -0.03731626 -0.004299998 -0.005336403
v -0.03731626 0.004699945 -0.005336403
v -0.03752481 -0.004299998 -0.00363779
v -0.03752481 0.004699945 -0.00363779
v -0.03724533 -0.004299998 -0.001949369
v -0.03724533 0.004699945 -0.001949369
v -0.03650051 -0.004299998 -0.00040856
v -0.03650051 0.004699945 -0.00040856
v -0.03535103 -0.004299998 0.000859317
v -0.03535103 0.004699945 0.000859317
v -0.03389036 -0.004299998 0.001751065
v -0.03389036 0.004699945 0.001751065
v -0.02599334 0.004699945 -0.007634878
v -0.02599334 -0.004299998 -0.007634878
v -0.02688479 0.004699945 -0.007875502
v -0.02688479 -0.004299998 -0.007875502
v -0.006986141 0.004699945 -0.005365908
v -0.006986141 -0.004299998 -0.005365908
v -0.004649221 0.004699945 -0.006011962
v -0.004649221 -0.004299998 -0.006011962
v -0.005754172 0.004699945 -0.00545907
v -0.005754172 -0.004299998 -0.00545907
v -0.02515631 -0.004299998 -0.000606973
v -0.02580338 -0.004299998 0.000368475
v -0.02418524 -0.004299998 -0.001260519
v -0.02303797 -0.004299998 -0.001492738
v -0.02188915 -0.004299998 -0.001268267
v -0.02091372 -0.004299998 -0.000621225
v -0.02026015 -0.004299998 0.000349855
v -0.03528946 -0.004299998 -0.005118906
v -0.03459894 -0.004299998 -0.006324291
v -0.03353774 -0.004299998 -0.007220804
v -0.03223395 -0.004299998 -0.007700324
v -0.0308448 -0.004299998 -0.007704973
v -0.02953779 -0.004299998 -0.007234215
v -0.02847063 -0.004299998 -0.006344854
v -0.027772 -0.004299998 -0.005144119
v -0.001484215 -0.004299998 -0.004035711
v -0.002162456 -0.004299998 -0.003716647
v -0.002775013 -0.004299998 -0.003284633
v -0.003303229 -0.004299998 -0.0027529
v -0.003731071 -0.004299998 -0.002137422
v -0.004045546 -0.004299998 -0.001457095
v -0.004237115 -0.004299998 -0.000732457
v 0.007362484 -0.004299998 -0.001885116
v 0.004153728 -0.004299998 -0.006364405
v 0.002137422 -0.004299998 -0.003731071
v 0.00246942 -0.004299998 -0.007187604
v 0.001457095 -0.004299998 -0.004045546
v 0.000634875 -0.004299998 -0.007573425
v 0.004232108 -0.004299998 -0.000760909
v 0.004035711 -0.004299998 -0.001484215
v 0.006677031 -0.004299998 -0.003629982
v 0.003716647 -0.004299998 -0.002162456
v 0.005585312 -0.004299998 -0.005154013
v 0.003284633 -0.004299998 -0.002775013
v 0.0027529 -0.004299998 -0.003303229
v -0.003036141 -0.004299998 -0.006967127
v -0.000760909 -0.004299998 -0.004232108
v -0.001238286 -0.004299998 -0.007498383
v -1.44443e-05 -0.004299998 -0.004299938
v 0.000732458 -0.004299998 -0.004237115
v -0.027772 0.004699945 -0.005144119
v -0.02580338 0.004699945 0.000368475
v -0.02515631 0.004699945 -0.000606973
v -0.02418524 0.004699945 -0.001260519
v -0.02303797 0.004699945 -0.001492738
v -0.02091372 0.004699945 -0.000621225
v -0.02026015 0.004699945 0.000349855
v -0.004237115 0.004699945 -0.000732457
v -0.004045546 0.004699945 -0.001457095
v -0.02188915 0.004699945 -0.001268267
v -0.003731071 0.004699945 -0.002137422
v -0.003303229 0.004699945 -0.0027529
v -0.002775013 0.004699945 -0.003284633
v -0.003036141 0.004699945 -0.006967127
v -0.03459894 0.004699945 -0.006324291
v -0.03528946 0.004699945 -0.005118906
v -0.02847063 0.004699945 -0.006344854
v -0.02953779 0.004699945 -0.007234215
v -0.0308448 0.004699945 -0.007704973
v -0.03223395 0.004699945 -0.007700324
v -0.03353774 0.004699945 -0.007220804
v -0.002162456 0.004699945 -0.003716647
v -0.001484215 0.004699945 -0.004035711
v -0.001238286 0.004699945 -0.007498383
v -0.000760909 0.004699945 -0.004232108
v 0.000634875 0.004699945 -0.007573425
v -1.44443e-05 0.004699945 -0.004299938
v 0.000732458 0.004699945 -0.004237115
v 0.00246942 0.004699945 -0.007187604
v 0.001457095 0.004699945 -0.004045546
v 0.004153728 0.004699945 -0.006364405
v 0.007362484 0.004699945 -0.001885116
v 0.004232108 0.004699945 -0.000760909
v 0.002137422 0.004699945 -0.003731071
v 0.0027529 0.004699945 -0.003303229
v 0.005585312 0.004699945 -0.005154013
v 0.003284633 0.004699945 -0.002775013
v 0.006677031 0.004699945 -0.003629982
v 0.003716647 0.004699945 -0.002162456
v 0.004035711 0.004699945 -0.001484215
v -0.03481906 -0.003799974 -0.00494945
v -0.03421485 -0.003799974 -0.006004154
v -0.03328633 -0.003799974 -0.006788611
v -0.0321455 -0.003799974 -0.007208228
v -0.03092992 -0.003799974 -0.007212281
v -0.02978634 -0.003799974 -0.006800413
v -0.02885258 -0.003799974 -0.006022214
v -0.02824127 -0.003799974 -0.004971563
v -0.02824127 0.004199981 -0.004971563
v -0.02885258 0.004199981 -0.006022214
v -0.02978634 0.004199981 -0.006800413
v -0.03092992 0.004199981 -0.007212281
v -0.0321455 0.004199981 -0.007208228
v -0.03328633 0.004199981 -0.006788611
v -0.03421485 0.004199981 -0.006004154
v -0.03481906 0.004199981 -0.00494945
v -0.02534079 -0.003799974 0.000558263
v -0.02480161 -0.003799974 -0.000254609
v -0.02399235 -0.003799974 -0.000799263
v -0.0230363 -0.003799974 -0.000992776
v -0.02207893 -0.003799974 -0.000805691
v -0.0212661 -0.003799974 -0.000266487
v -0.02072143 -0.003799974 0.000542744
v -0.02072143 0.004199981 0.000542744
v -0.0212661 0.004199981 -0.000266487
v -0.02207893 0.004199981 -0.000805691
v -0.0230363 0.004199981 -0.000992776
v -0.02399235 0.004199981 -0.000799263
v -0.02480161 0.004199981 -0.000254609
v -0.02534079 0.004199981 0.000558263
v -0.003754138 -0.007799983 0.001380681
v -0.003055512 -0.007799983 0.002581417
v -0.001988291 -0.007799983 0.003470778
v -0.000681357 -0.007799983 0.003941535
v 0.000707821 -0.007799983 0.003936827
v 0.002011597 -0.007799983 0.003457307
v 0.003072738 -0.007799983 0.002560794
v 0.003763318 -0.007799983 0.001355409
v -0.003754138 0.008199989 0.001380681
v -0.003055512 0.008199989 0.002581417
v -0.001988291 0.008199989 0.003470778
v -0.000681357 0.008199989 0.003941535
v 0.000707821 0.008199989 0.003936827
v 0.002011597 0.008199989 0.003457307
v 0.003072738 0.008199989 0.002560794
v 0.003763318 0.008199989 0.001355409
v -0.004089295 -0.004340171 -0.000706905
v -0.003904461 -0.004340171 -0.001406252
v -0.003600955 -0.004340171 -0.002062857
v -0.003188014 -0.004340171 -0.002656817
v -0.002678215 -0.004340171 -0.003170073
v -0.002087056 -0.004340171 -0.003587007
v -0.001432418 -0.004340171 -0.003894925
v -0.000734365 -0.004340171 -0.004084467
v -1.39419e-05 -0.004340171 -0.004149973
v 0.000706906 -0.004340171 -0.004089295
v 0.001406252 -0.004340171 -0.003904461
v 0.002062857 -0.004340171 -0.003600955
v 0.002656817 -0.004340171 -0.003188014
v 0.003170073 -0.004340171 -0.002678215
v 0.003587007 -0.004340171 -0.002087056
v 0.003894925 -0.004340171 -0.001432418
v 0.004084467 -0.004340171 -0.000734366
v -0.003981113 -0.004449963 -0.000688203
v -0.003801107 -0.004449963 -0.001369059
v -0.003505647 -0.004449963 -0.002008318
v -0.003103673 -0.004449963 -0.002586543
v -0.002607345 -0.004449963 -0.003086209
v -0.002031803 -0.004449963 -0.003492057
v -0.001394569 -0.004449963 -0.003791868
v -0.000714933 -0.004449963 -0.003976404
v -1.35718e-05 -0.004449963 -0.004040122
v 0.000688202 -0.004449963 -0.003981113
v 0.001369059 -0.004449963 -0.003801107
v 0.002008318 -0.004449963 -0.003505647
v 0.002586543 -0.004449963 -0.003103673
v 0.003086209 -0.004449963 -0.002607345
v 0.003492057 -0.004449963 -0.002031803
v 0.003791868 -0.004449963 -0.001394569
v 0.003976404 -0.004449963 -0.000714935
v -0.003981113 0.00484997 -0.000688203
v -0.003801107 0.00484997 -0.001369059
v -0.003505647 0.00484997 -0.002008318
v -0.003103673 0.00484997 -0.002586543
v -0.002607345 0.00484997 -0.003086209
v -0.002031803 0.00484997 -0.003492057
v -0.001394569 0.00484997 -0.003791868
v -0.000714933 0.00484997 -0.003976404
v -1.35718e-05 0.00484997 -0.004040122
v 0.000688202 0.00484997 -0.003981113
v 0.001369059 0.00484997 -0.003801107
v 0.002008318 0.00484997 -0.003505647
v 0.002586543 0.00484997 -0.003103673
v 0.003086209 0.00484997 -0.002607345
v 0.003492057 0.00484997 -0.002031803
v 0.003791868 0.00484997 -0.001394569
v 0.003976404 0.00484997 -0.000714935
v -0.004089295 0.004740178 -0.000706905
v -0.003904461 0.004740178 -0.001406252
v -0.003600955 0.004740178 -0.002062857
v -0.003188014 0.004740178 -0.002656817
v -0.002678215 0.004740178 -0.003170073
v -0.002087056 0.004740178 -0.003587007
v -0.001432418 0.004740178 -0.003894925
v -0.000734365 0.004740178 -0.004084467
v -1.39419e-05 0.004740178 -0.004149973
v 0.000706906 0.004740178 -0.004089295
v 0.001406252 0.004740178 -0.003904461
v 0.002062857 0.004740178 -0.003600955
v 0.002656817 0.004740178 -0.003188014
v 0.003170073 0.004740178 -0.002678215
v 0.003587007 0.004740178 -0.002087056
v 0.003894925 0.004740178 -0.001432418
v 0.004084467 0.004740178 -0.000734366
f 1 2 3
f 3 2 4
f 3 4 5
f 5 4 6
f 5 6 7
f 7 6 8
f 7 8 9
f 9 8 10
f 9 10 11
f 11 10 12
f 11 12 13
f 13 12 14
f 13 14 15
f 15 14 16
f 15 16 17
f 17 16 18
f 17 18 19
f 19 18 20
f 19 20 21
f 21 20 22
f 21 22 23
f 23 22 24
f 23 24 25
f 25 24 26
f 25 26 27
f 27 26 28
f 27 28 29
f 29 28 30
f 29 30 31
f 31 30 32
f 31 32 33
f 33 32 34
f 33 34 35
f 35 34 36
f 35 36 37
f 37 36 38
f 39 1 40
f 40 1 3
f 40 3 41
f 41 3 5
f 41 5 42
f 42 5 7
f 42 7 43
f 43 7 9
f 43 9 44
f 44 9 11
f 44 11 45
f 45 11 13
f 45 13 46
f 46 13 15
f 46 15 47
f 47 15 17
f 47 17 48
f 48 17 19
f 48 19 49
f 49 19 21
f 49 21 50
f 50 21 23
f 50 23 51
f 51 23 25
f 51 25 52
f 52 25 27
f 52 27 53
f 53 27 29
f 53 29 54
f 54 29 31
f 54 31 55
f 55 31 33
f 55 33 56
f 56 33 35
f 56 35 57
f 57 35 37
f 58 39 59
f 59 39 40
f 59 40 60
f 60 40 41
f 60 41 61
f 61 41 42
f 61 42 62
f 62 42 43
f 62 43 63
f 63 43 44
f 63 44 64
f 64 44 45
f 64 45 65
f 65 45 46
f 65 46 66
f 66 46 47
f 66 47 67
f 67 47 48
f 67 48 68
f 68 48 49
f 68 49 69
f 69 49 50
f 69 50 70
f 70 50 51
f 70 51 71
f 71 51 52
f 71 52 72
f 72 52 53
f 72 53 73
f 73 53 54
f 73 54 74
f 74 54 55
f 74 55 75
f 75 55 56
f 75 56 76
f 76 56 57
f 77 78 79
f 79 78 80
f 79 80 81
f 81 80 82
f 81 82 83
f 83 82 84
f 83 84 85
f 85 84 86
f 85 86 87
f 87 86 88
f 87 88 89
f 89 88 90
f 89 90 91
f 91 90 92
f 91 92 93
f 93 92 94
f 93 94 95
f 95 94 96
f 95 96 97
f 97 96 98
f 97 98 99
f 99 98 100
f 99 100 101
f 101 100 102
f 101 102 103
f 103 102 104
f 103 104 105
f 105 104 106
f 105 106 107
f 107 106 108
f 107 108 109
f 109 108 110
f 109 110 111
f 111 110 112
f 111 112 113
f 113 112 114
f 115 77 116
f 116 77 79
f 116 79 117
f 117 79 81
f 117 81 118
f 118 81 83
f 118 83 119
f 119 83 85
f 119 85 120
f 120 85 87
f 120 87 121
f 121 87 89
f 121 89 122
f 122 89 91
f 122 91 123
f 123 91 93
f 123 93 124
f 124 93 95
f 124 95 125
f 125 95 97
f 125 97 126
f 126 97 99
f 126 99 127
f 127 99 101
f 127 101 128
f 128 101 103
f 128 103 129
f 129 103 105
f 129 105 130
f 130 105 107
f 130 107 131
f 131 107 109
f 131 109 132
f 132 109 111
f 132 111 133
f 133 111 113
f 134 115 135
f 135 115 116
f 135 116 136
f 136 116 117
f 136 117 137
f 137 117 118
f 137 118 138
f 138 118 119
f 138 119 139
f 139 119 120
f 139 120 140
f 140 120 121
f 140 121 141
f 141 121 122
f 141 122 142
f 142 122 123
f 142 123 143
f 143 123 124
f 143 124 144
f 144 124 125
f 144 125 145
f 145 125 126
f 145 126 146
f 146 126 127
f 146 127 147
f 147 127 128
f 147 128 148
f 148 128 129
f 148 129 149
f 149 129 130
f 149 130 150
f 150 130 131
f 150 131 151
f 151 131 132
f 151 132 152
f 152 132 133
f 153 154 155
f 153 155 156
f 156 155 157
f 156 157 158
f 158 157 159
f 158 159 160
f 160 159 161
f 160 161 162
f 162 161 163
f 162 163 164
f 164 163 165
f 164 165 166
f 166 165 167
f 166 167 168
f 168 167 169
f 168 169 170
f 170 169 171
f 170 171 172
f 173 174 175
f 173 175 176
f 176 175 177
f 176 177 178
f 178 177 179
f 178 179 180
f 180 179 181
f 180 181 182
f 182 181 183
f 182 183 184
f 184 183 185
f 184 185 186
f 186 185 187
f 186 187 188
f 188 187 189
f 188 189 190
f 190 189 191
f 190 191 192
f 164 166 168
f 193 194 195
f 196 197 198
f 195 168 170
f 198 193 196
f 196 193 195
f 196 195 199
f 199 195 170
f 199 170 172
f 195 200 168
f 168 200 153
f 168 153 156
f 162 164 160
f 160 164 168
f 160 168 158
f 158 168 156
f 2 201 154
f 154 201 155
f 201 202 155
f 155 202 203
f 155 203 157
f 203 204 157
f 157 204 205
f 157 205 159
f 205 206 159
f 159 206 207
f 159 207 161
f 207 208 161
f 161 208 209
f 161 209 163
f 209 210 163
f 163 210 211
f 163 211 165
f 211 212 165
f 165 212 213
f 165 213 167
f 213 214 167
f 167 214 215
f 167 215 169
f 38 171 216
f 216 171 169
f 216 169 217
f 217 169 215
f 134 191 218
f 218 191 189
f 218 189 219
f 219 189 220
f 220 189 187
f 220 187 221
f 221 187 222
f 222 187 185
f 222 185 223
f 223 185 224
f 224 185 183
f 224 183 225
f 225 183 226
f 226 183 181
f 226 181 227
f 227 181 228
f 228 181 179
f 228 179 229
f 229 179 230
f 230 179 177
f 230 177 231
f 231 177 232
f 232 177 175
f 232 175 233
f 233 175 234
f 234 175 174
f 234 174 152
f 192 180 182
f 235 236 237
f 173 176 192
f 192 176 178
f 192 178 180
f 235 238 192
f 192 238 239
f 192 239 173
f 237 240 241
f 188 190 186
f 186 190 192
f 186 192 184
f 184 192 182
f 235 237 238
f 238 237 241
f 238 241 242
f 243 244 245
f 245 244 246
f 245 246 247
f 247 246 248
f 247 248 249
f 249 248 250
f 249 250 251
f 251 250 252
f 251 252 253
f 253 252 254
f 253 254 255
f 255 254 256
f 255 256 257
f 257 256 258
f 257 258 259
f 259 258 260
f 261 243 262
f 262 243 245
f 262 245 263
f 263 245 247
f 263 247 264
f 264 247 249
f 264 249 265
f 265 249 251
f 265 251 266
f 266 251 253
f 266 253 267
f 267 253 255
f 267 255 268
f 268 255 257
f 268 257 269
f 269 257 259
f 269 270 268
f 268 270 271
f 268 271 267
f 267 271 272
f 267 272 266
f 266 272 273
f 266 273 265
f 265 273 274
f 265 274 264
f 264 274 275
f 264 275 263
f 263 275 276
f 263 276 262
f 262 276 277
f 262 277 261
f 261 277 278
f 279 280 281
f 281 280 282
f 281 282 283
f 283 282 284
f 283 284 285
f 285 284 286
f 285 286 287
f 287 286 288
f 287 288 289
f 289 288 290
f 289 290 291
f 291 290 292
f 291 292 293
f 293 292 294
f 293 294 295
f 295 294 296
f 295 296 297
f 297 296 298
f 299 279 300
f 300 279 281
f 300 281 301
f 301 281 283
f 301 283 302
f 302 283 285
f 302 285 303
f 303 285 287
f 303 287 304
f 304 287 289
f 304 289 305
f 305 289 291
f 305 291 306
f 306 291 293
f 306 293 307
f 307 293 295
f 307 295 308
f 308 295 297
f 308 309 307
f 307 309 310
f 307 310 306
f 306 310 311
f 306 311 305
f 305 311 312
f 305 312 304
f 304 312 313
f 304 313 303
f 303 313 314
f 303 314 302
f 302 314 315
f 302 315 301
f 301 315 316
f 301 316 300
f 300 316 317
f 300 317 299
f 299 317 318
f 319 320 321
f 319 321 322
f 322 321 323
f 322 323 324
f 324 323 325
f 324 325 326
f 326 325 327
f 326 327 328
f 328 327 329
f 328 329 330
f 330 329 331
f 330 331 332
f 332 331 333
f 332 333 334
f 334 333 335
f 334 335 336
f 336 335 337
f 336 337 338
f 338 337 339
f 338 339 340
f 341 342 343
f 343 342 344
f 343 344 319
f 319 344 320
f 341 345 342
f 342 345 346
f 347 348 349
f 349 348 350
f 349 350 345
f 345 350 346
f 347 351 348
f 348 351 352
f 353 354 355
f 353 355 356
f 356 355 357
f 356 357 358
f 358 357 359
f 358 359 360
f 360 359 361
f 360 361 362
f 362 361 352
f 362 352 351
f 353 363 354
f 354 363 364
f 365 366 367
f 367 366 368
f 367 368 369
f 369 368 370
f 369 370 371
f 371 370 372
f 371 372 373
f 373 372 374
f 365 375 366
f 366 375 376
f 377 378 379
f 377 379 380
f 380 379 381
f 380 381 382
f 382 381 383
f 382 383 384
f 384 383 385
f 384 385 386
f 386 385 387
f 386 387 388
f 388 387 389
f 388 389 390
f 390 389 391
f 390 391 392
f 392 391 393
f 392 393 394
f 394 393 395
f 394 395 396
f 396 395 397
f 396 397 398
f 398 397 399
f 398 399 400
f 400 399 401
f 400 401 402
f 402 401 376
f 402 376 375
f 403 404 405
f 405 404 406
f 405 406 377
f 377 406 378
f 403 407 404
f 404 407 408
f 409 410 411
f 411 410 412
f 411 412 407
f 407 412 408
f 413 414 313
f 313 414 314
f 415 406 416
f 416 406 404
f 416 404 417
f 417 404 408
f 417 408 418
f 418 408 419
f 368 278 370
f 370 278 277
f 370 277 372
f 372 277 276
f 313 312 413
f 413 312 311
f 413 311 415
f 368 366 278
f 278 366 376
f 278 376 401
f 275 357 355
f 270 342 271
f 271 342 346
f 271 346 272
f 420 389 421
f 421 389 387
f 421 387 422
f 422 387 385
f 422 385 423
f 423 385 383
f 423 383 424
f 424 383 381
f 424 381 425
f 425 381 379
f 425 379 426
f 426 379 378
f 426 378 406
f 355 354 275
f 275 354 364
f 275 364 276
f 276 364 374
f 276 374 372
f 352 361 275
f 275 361 359
f 275 359 357
f 311 310 415
f 415 310 309
f 415 309 406
f 406 309 427
f 406 427 426
f 414 278 314
f 314 278 401
f 314 401 315
f 315 401 399
f 315 399 316
f 316 399 397
f 316 397 317
f 317 397 395
f 317 395 318
f 318 395 393
f 318 393 420
f 420 393 391
f 420 391 389
f 275 274 352
f 352 274 273
f 352 273 348
f 348 273 272
f 348 272 350
f 350 272 346
f 408 412 419
f 419 412 428
f 419 428 270
f 270 428 429
f 270 429 430
f 112 110 344
f 112 344 114
f 430 431 270
f 270 431 432
f 270 432 342
f 342 432 433
f 342 433 344
f 344 433 434
f 344 434 114
f 337 80 339
f 339 80 78
f 339 78 435
f 436 437 438
f 438 437 439
f 438 439 440
f 110 108 344
f 344 108 106
f 344 106 320
f 320 106 104
f 320 104 321
f 321 104 102
f 321 102 323
f 323 102 100
f 323 100 325
f 100 98 325
f 325 98 96
f 325 96 327
f 327 96 94
f 327 94 329
f 329 94 92
f 329 92 331
f 78 441 435
f 435 441 442
f 435 442 443
f 443 442 444
f 443 444 445
f 445 444 446
f 445 446 436
f 436 446 447
f 436 447 437
f 412 410 428
f 428 410 448
f 428 448 449
f 449 448 450
f 449 450 451
f 451 450 440
f 451 440 452
f 452 440 439
f 92 90 331
f 331 90 88
f 331 88 333
f 333 88 86
f 333 86 335
f 335 86 84
f 335 84 337
f 337 84 82
f 337 82 80
f 347 258 256
f 250 248 373
f 347 256 351
f 292 290 244
f 358 360 250
f 250 360 362
f 250 362 252
f 252 362 351
f 252 351 254
f 254 351 256
f 356 358 353
f 353 358 250
f 353 250 363
f 363 250 373
f 453 454 455
f 405 456 403
f 403 456 457
f 403 457 407
f 345 458 349
f 349 458 459
f 349 459 347
f 347 459 260
f 347 260 258
f 453 298 454
f 454 298 296
f 454 296 244
f 244 296 294
f 244 294 292
f 458 460 461
f 343 319 67
f 67 319 322
f 457 462 407
f 407 462 458
f 407 458 411
f 411 458 461
f 284 400 286
f 286 400 402
f 286 402 288
f 288 402 375
f 288 375 290
f 290 375 365
f 290 365 244
f 244 365 367
f 244 367 246
f 246 367 369
f 246 369 248
f 248 369 371
f 248 371 373
f 67 68 343
f 343 68 69
f 343 69 70
f 70 71 343
f 343 71 72
f 343 72 341
f 341 72 73
f 341 73 345
f 461 463 411
f 411 463 464
f 411 464 409
f 409 464 465
f 409 465 466
f 467 390 468
f 468 390 392
f 468 392 280
f 280 392 394
f 280 394 282
f 282 394 396
f 282 396 284
f 284 396 398
f 284 398 400
f 455 456 453
f 453 456 405
f 453 405 469
f 469 405 377
f 469 377 470
f 470 377 380
f 470 380 471
f 471 380 382
f 471 382 472
f 472 382 384
f 472 384 473
f 473 384 386
f 473 386 467
f 467 386 388
f 467 388 390
f 73 74 345
f 345 74 75
f 345 75 458
f 458 75 76
f 458 76 460
f 465 474 466
f 466 474 475
f 466 475 476
f 476 475 477
f 476 477 478
f 477 479 478
f 478 479 480
f 478 480 481
f 481 480 482
f 481 482 483
f 484 485 340
f 340 485 58
f 340 58 338
f 322 324 67
f 67 324 326
f 67 326 66
f 66 326 328
f 66 328 65
f 65 328 330
f 65 330 64
f 64 330 332
f 482 486 483
f 483 486 487
f 483 487 488
f 488 487 489
f 488 489 490
f 490 489 491
f 490 491 484
f 484 491 492
f 484 492 485
f 58 59 338
f 338 59 60
f 338 60 336
f 336 60 61
f 336 61 334
f 334 61 62
f 334 62 332
f 332 62 63
f 332 63 64
f 373 374 363
f 363 374 364
f 340 339 435
f 340 435 484
f 484 435 443
f 484 443 490
f 490 443 445
f 490 445 488
f 488 445 436
f 488 436 483
f 483 436 438
f 483 438 481
f 481 438 440
f 481 440 478
f 478 440 450
f 478 450 476
f 476 450 448
f 476 448 466
f 466 448 410
f 466 410 409
f 299 318 493
f 493 318 420
f 493 420 494
f 494 420 421
f 494 421 495
f 495 421 422
f 495 422 496
f 496 422 423
f 496 423 497
f 497 423 424
f 497 424 498
f 498 424 425
f 498 425 499
f 499 425 426
f 499 426 500
f 500 426 427
f 500 427 308
f 308 427 309
f 308 297 500
f 500 297 501
f 500 501 499
f 499 501 502
f 499 502 498
f 498 502 503
f 498 503 497
f 497 503 504
f 497 504 496
f 496 504 505
f 496 505 495
f 495 505 506
f 495 506 494
f 494 506 507
f 494 507 493
f 493 507 508
f 493 508 299
f 299 508 279
f 297 298 501
f 501 298 453
f 501 453 502
f 502 453 469
f 502 469 503
f 503 469 470
f 503 470 504
f 504 470 471
f 504 471 505
f 505 471 472
f 505 472 506
f 506 472 473
f 506 473 507
f 507 473 467
f 507 467 508
f 508 467 468
f 508 468 279
f 279 468 280
f 261 278 509
f 509 278 414
f 509 414 510
f 510 414 413
f 510 413 511
f 511 413 415
f 511 415 512
f 512 415 416
f 512 416 513
f 513 416 417
f 513 417 514
f 514 417 418
f 514 418 515
f 515 418 419
f 515 419 269
f 269 419 270
f 269 259 515
f 515 259 516
f 515 516 514
f 514 516 517
f 514 517 513
f 513 517 518
f 513 518 512
f 512 518 519
f 512 519 511
f 511 519 520
f 511 520 510
f 510 520 521
f 510 521 509
f 509 521 522
f 509 522 261
f 261 522 243
f 259 260 516
f 516 260 459
f 516 459 517
f 517 459 458
f 517 458 518
f 518 458 462
f 518 462 519
f 519 462 457
f 519 457 520
f 520 457 456
f 520 456 521
f 521 456 455
f 521 455 522
f 522 455 454
f 522 454 243
f 243 454 244
f 152 174 151
f 151 174 523
f 151 523 150
f 150 523 149
f 149 523 524
f 149 524 148
f 148 524 147
f 147 524 525
f 147 525 146
f 146 525 145
f 145 525 526
f 145 526 144
f 144 526 143
f 143 526 527
f 143 527 142
f 142 527 141
f 141 527 528
f 141 528 140
f 140 528 139
f 139 528 529
f 139 529 138
f 138 529 137
f 137 529 530
f 137 530 136
f 136 530 135
f 135 530 191
f 135 191 134
f 38 36 171
f 171 36 531
f 36 34 531
f 531 34 32
f 531 32 532
f 32 30 532
f 532 30 28
f 532 28 533
f 28 26 533
f 533 26 24
f 533 24 534
f 24 22 534
f 534 22 20
f 534 20 535
f 20 18 535
f 535 18 16
f 535 16 536
f 16 14 536
f 536 14 12
f 536 12 537
f 12 10 537
f 537 10 8
f 537 8 538
f 2 154 4
f 4 154 538
f 4 538 6
f 6 538 8
f 192 191 530
f 192 530 235
f 235 530 529
f 235 529 236
f 236 529 528
f 236 528 237
f 237 528 527
f 237 527 240
f 240 527 526
f 240 526 241
f 241 526 525
f 241 525 242
f 242 525 524
f 242 524 238
f 238 524 523
f 238 523 239
f 239 523 174
f 239 174 173
f 172 171 531
f 172 531 199
f 199 531 532
f 199 532 196
f 196 532 533
f 196 533 197
f 197 533 534
f 197 534 198
f 198 534 535
f 198 535 193
f 193 535 536
f 193 536 194
f 194 536 537
f 194 537 195
f 195 537 538
f 195 538 200
f 200 538 154
f 200 154 153
f 113 114 539
f 539 114 434
f 539 434 540
f 540 434 433
f 540 433 541
f 541 433 432
f 541 432 542
f 542 432 431
f 542 431 543
f 543 431 430
f 543 430 544
f 544 430 429
f 544 429 545
f 545 429 428
f 545 428 546
f 546 428 449
f 546 449 547
f 547 449 451
f 547 451 548
f 548 451 452
f 548 452 549
f 549 452 439
f 549 439 550
f 550 439 437
f 550 437 551
f 551 437 447
f 551 447 552
f 552 447 446
f 552 446 553
f 553 446 444
f 553 444 554
f 554 444 442
f 554 442 555
f 555 442 441
f 555 441 77
f 77 441 78
f 133 113 556
f 556 113 539
f 556 539 557
f 557 539 540
f 557 540 558
f 558 540 541
f 558 541 559
f 559 541 542
f 559 542 560
f 560 542 543
f 560 543 561
f 561 543 544
f 561 544 562
f 562 544 545
f 562 545 563
f 563 545 546
f 563 546 564
f 564 546 547
f 564 547 565
f 565 547 548
f 565 548 566
f 566 548 549
f 566 549 567
f 567 549 550
f 567 550 568
f 568 550 551
f 568 551 569
f 569 551 552
f 569 552 570
f 570 552 553
f 570 553 571
f 571 553 554
f 571 554 572
f 572 554 555
f 572 555 115
f 115 555 77
f 152 133 234
f 234 133 556
f 234 556 233
f 233 556 557
f 233 557 232
f 232 557 558
f 232 558 231
f 231 558 559
f 231 559 230
f 230 559 560
f 230 560 229
f 229 560 561
f 229 561 228
f 228 561 562
f 228 562 227
f 227 562 563
f 227 563 226
f 226 563 564
f 226 564 225
f 225 564 565
f 225 565 224
f 224 565 566
f 224 566 223
f 223 566 567
f 223 567 222
f 222 567 568
f 222 568 221
f 221 568 569
f 221 569 220
f 220 569 570
f 220 570 219
f 219 570 571
f 219 571 218
f 218 571 572
f 218 572 134
f 134 572 115
f 37 38 573
f 573 38 216
f 573 216 574
f 574 216 217
f 574 217 575
f 575 217 215
f 575 215 576
f 576 215 214
f 576 214 577
f 577 214 213
f 577 213 578
f 578 213 212
f 578 212 579
f 579 212 211
f 579 211 580
f 580 211 210
f 580 210 581
f 581 210 209
f 581 209 582
f 582 209 208
f 582 208 583
f 583 208 207
f 583 207 584
f 584 207 206
f 584 206 585
f 585 206 205
f 585 205 586
f 586 205 204
f 586 204 587
f 587 204 203
f 587 203 588
f 588 203 202
f 588 202 589
f 589 202 201
f 589 201 1
f 1 201 2
f 57 37 590
f 590 37 573
f 590 573 591
f 591 573 574
f 591 574 592
f 592 574 575
f 592 575 593
f 593 575 576
f 593 576 594
f 594 576 577
f 594 577 595
f 595 577 578
f 595 578 596
f 596 578 579
f 596 579 597
f 597 579 580
f 597 580 598
f 598 580 581
f 598 581 599
f 599 581 582
f 599 582 600
f 600 582 583
f 600 583 601
f 601 583 584
f 601 584 602
f 602 584 585
f 602 585 603
f 603 585 586
f 603 586 604
f 604 586 587
f 604 587 605
f 605 587 588
f 605 588 606
f 606 588 589
f 606 589 39
f 39 589 1
f 76 57 460
f 460 57 590
f 460 590 461
f 461 590 591
f 461 591 463
f 463 591 592
f 463 592 464
f 464 592 593
f 464 593 465
f 465 593 594
f 465 594 474
f 474 594 595
f 474 595 475
f 475 595 596
f 475 596 477
f 477 596 597
f 477 597 479
f 479 597 598
f 479 598 480
f 480 598 599
f 480 599 482
f 482 599 600
f 482 600 486
f 486 600 601
f 486 601 487
f 487 601 602
f 487 602 489
f 489 602 603
f 489 603 491
f 491 603 604
f 491 604 492
f 492 604 605
f 492 605 485
f 485 605 606
f 485 606 58
f 58 606 39
