# Converted from COLLADA
v 0.01148891 -0.004913389 0.01514756
v 0.01156777 -0.005329847 0.01495546
v 0.01198536 -0.005128622 0.01495546
v 0.01224642 -0.004745543 0.01495546
v 0.01194614 -0.004807531 0.01508319
v 0.01228094 -0.004283308 0.01495546
v 0.01186186 -0.004362702 0.01514834
v 0.01212149 -0.003918051 0.01495546
v 0.01177763 -0.003917872 0.01508319
v 0.01181936 -0.003658175 0.01495546
v 0.01143443 -0.003555119 0.01495546
v 0.01140111 -0.004449963 0.01521545
v 0.01131331 -0.003986537 0.01514756
v 0.01123446 -0.003570139 0.01495546
v 0.01238363 -0.004263818 0.01456546
v 0.0122056 -0.003856003 0.01456546
v 0.01215893 -0.003797531 0.01456546
v 0.01186817 -0.003565728 0.01456546
v 0.0117312 -0.003506004 0.01456546
v 0.01143831 -0.003450691 0.01456546
v 0.01121497 -0.00346744 0.01456546
v 0.01104283 -0.003629267 0.01495546
v 0.01100105 -0.003533482 0.01456546
v 0.01074868 -0.00369215 0.01456546
v 0.01072221 -0.003866016 0.01495546
v 0.010643 -0.003797829 0.01456546
v 0.01045715 -0.004119873 0.01456546
v 0.01053607 -0.004218399 0.01495546
v 0.01043516 -0.004191339 0.01456546
v 0.01041859 -0.004636108 0.01456546
v 0.01052129 -0.004616618 0.01495546
v 0.01041859 -0.004636108 0.01301544
v 0.01045715 -0.004119873 0.01301544
v 0.01074868 -0.00369215 0.01301544
v 0.01121497 -0.00346744 0.01301544
v 0.0117312 -0.003506004 0.01301544
v 0.01215893 -0.003797531 0.01301544
v 0.01238363 -0.004263818 0.01301544
v 0.01194614 0.004192411 0.01508319
v 0.01224642 0.0042544 0.01495546
v 0.01228094 0.004716634 0.01495546
v 0.01148891 0.004086554 0.01514756
v 0.01156777 0.003670096 0.01495546
v 0.01198536 0.003871321 0.01495546
v 0.01186186 0.004637241 0.01514834
v 0.01207977 0.005134224 0.01495546
v 0.01177763 0.00508207 0.01508319
v 0.01169669 0.005395293 0.01495546
v 0.01123446 0.005429804 0.01495546
v 0.01131331 0.005013406 0.01514756
v 0.01140111 0.00454998 0.01521545
v 0.01238363 0.004736125 0.01456546
v 0.01215893 0.005202412 0.01456546
v 0.0117312 0.005493938 0.01456546
v 0.01121497 0.005532503 0.01456546
v 0.01074868 0.005307793 0.01456546
v 0.01081687 0.005228579 0.01495546
v 0.01045715 0.00488007 0.01456546
v 0.0105558 0.004845559 0.01495546
v 0.01041859 0.004363834 0.01456546
v 0.01052129 0.004383265 0.01495546
v 0.01041859 0.004363834 0.01301544
v 0.01045715 0.00488007 0.01301544
v 0.01074868 0.005307793 0.01301544
v 0.01121497 0.005532503 0.01301544
v 0.0117312 0.005493938 0.01301544
v 0.01215893 0.005202412 0.01301544
v 0.01238363 0.004736125 0.01301544
v 0.01994204 -0.009049952 0.007959306
v 0.01994204 -0.01324999 0.007959306
v 0.02033919 -0.01324999 0.007068395
v 0.02033919 -0.009049952 0.007068395
v 0.02036523 -0.01324999 0.006093263
v 0.02036523 -0.009049952 0.006093263
v 0.02001607 -0.01324999 0.005182445
v 0.02001607 -0.009049952 0.005182445
v 0.01934498 -0.01324999 0.00447458
v 0.01934498 -0.009049952 0.00447458
v 0.01845407 -0.01324999 0.004077374
v 0.01845407 -0.009049952 0.004077374
v 0.01747894 -0.01324999 0.004051387
v 0.01747894 -0.009049952 0.004051387
v 0.01656812 -0.01324999 0.004400491
v 0.01656812 -0.009049952 0.004400491
v 0.01586019 -0.01324999 0.00507158
v 0.01586019 -0.009049952 0.00507158
v 0.01602351 -0.01344996 0.005187094
v 0.01667475 -0.01344996 0.004569709
v 0.01751273 -0.01344996 0.004248499
v 0.01840978 -0.01344996 0.004272401
v 0.01922947 -0.01344996 0.004637837
v 0.01984691 -0.01344996 0.005289077
v 0.02016806 -0.01344996 0.006127059
v 0.02014416 -0.01344996 0.007024168
v 0.01977872 -0.01344996 0.007843792
v 0.01565808 -0.01344996 0.006006777
v 0.0182895 -0.01344996 0.008782446
v 0.01739245 -0.01344996 0.008758485
v 0.01912748 -0.01344996 0.008461236
v 0.01563417 -0.01344996 0.006903886
v 0.01595532 -0.01344996 0.007741808
v 0.01657277 -0.01344996 0.008393108
v 0.01574403 -0.009049952 0.001456081
v 0.01725679 -0.009049952 0.001053333
v 0.01734817 -0.009049952 0.008953571
v 0.01549011 -0.009049952 0.01145881
v 0.01645725 -0.009049952 0.008556365
v 0.01419508 -0.009049952 0.01057934
v 0.01578617 -0.009049952 0.007848441
v 0.01320022 -0.009049952 0.009370625
v 0.015437 -0.009049952 0.006937623
v 0.01923412 -0.009049952 0.008630394
v 0.02005821 -0.009049952 0.0115748
v 0.0183233 -0.009049952 0.008979558
v 0.01854544 -0.009049952 0.01197761
v 0.01698046 -0.009049952 0.01193785
v 0.01882177 -0.009049952 0.001093029
v 0.02031213 -0.009049952 0.001572072
v 0.02160716 -0.009049952 0.002451598
v 0.02260196 -0.009049952 0.003660321
v 0.01258629 -0.009049952 0.007930576
v 0.01240289 -0.009049952 0.006375849
v 0.01546305 -0.009049952 0.00596255
v 0.01266491 -0.009049952 0.004832506
v 0.0133512 -0.009049952 0.003425478
v 0.01440602 -0.009049952 0.002268791
v 0.02321594 -0.009049952 0.005100369
v 0.02339935 -0.009049952 0.006655037
v 0.02313733 -0.009049952 0.00819844
v 0.02245104 -0.009049952 0.009605467
v 0.02139621 -0.009049952 0.01076215
v 0.02245104 -0.008049964 0.009605467
v 0.02139621 -0.008049964 0.01076215
v 0.02005821 -0.008049964 0.0115748
v 0.01854544 -0.008049964 0.01197761
v 0.01698046 -0.008049964 0.01193785
v 0.01549011 -0.008049964 0.01145881
v 0.01419508 -0.008049964 0.01057934
v 0.01320022 -0.008049964 0.009370625
v 0.01258629 -0.008049964 0.007930576
v 0.01240289 -0.008049964 0.006375849
v 0.01266491 -0.008049964 0.004832506
v 0.0133512 -0.008049964 0.003425478
v 0.02310115 -0.008049964 0.008307099
v 0.02313733 -0.008049964 0.00819844
v 0.02310109 -0.008049964 0.006515443
v 0.02339935 -0.008049964 0.006655037
v 0.02294665 -0.008049964 0.005257487
v 0.02321594 -0.008049964 0.005100369
v 0.02249246 -0.008049964 0.004074215
v 0.02260196 -0.008049964 0.003660321
v 0.02176547 -0.008049964 0.003035962
v 0.02160716 -0.008049964 0.002451598
v 0.02080893 -0.008049964 0.002204477
v 0.02031213 -0.008049964 0.001572072
v 0.0196796 -0.008049964 0.001629054
v 0.01882177 -0.008049964 0.001093029
v 0.01799601 -0.008049964 0.001016259
v 0.01251459 0.009149968 0.005403995
v 0.01251459 0.008149981 0.005403995
v 0.01241964 0.008149981 0.00696659
v 0.01241964 0.009149968 0.00696659
v 0.0127688 0.008149981 0.008492588
v 0.0127688 0.009149968 0.008492588
v 0.01353371 0.008149981 0.009858489
v 0.01353371 0.009149968 0.009858489
v 0.01465243 0.008149981 0.01095348
v 0.01465243 0.009149968 0.01095348
v 0.01603442 0.008149981 0.011689
v 0.01603442 0.009149968 0.011689
v 0.01756757 0.008149981 0.01200532
v 0.01756757 0.009149968 0.01200532
v 0.01912772 0.008149981 0.01187694
v 0.01912772 0.009149968 0.01187694
v 0.02058857 0.008149981 0.01131415
v 0.02058857 0.009149968 0.01131415
v 0.02183163 0.008149981 0.01036262
v 0.02183163 0.009149968 0.01036262
v 0.02275633 0.008149981 0.009099423
v 0.02275633 0.009149968 0.009099423
v 0.02328765 0.009149968 0.007626891
v 0.02310115 0.008149981 0.008307099
v 0.02328765 0.008149981 0.007626891
v 0.01799601 0.008149981 0.001016259
v 0.01823467 0.008149981 0.001025557
v 0.0196796 0.008149981 0.001629054
v 0.01976782 0.008149981 0.001341938
v 0.02080893 0.008149981 0.002204477
v 0.02114975 0.008149981 0.0020774
v 0.02176547 0.008149981 0.003035962
v 0.02226853 0.008149981 0.003172457
v 0.02249246 0.008149981 0.004074215
v 0.02303344 0.008149981 0.004538297
v 0.02294665 0.008149981 0.005257487
v 0.0233826 0.008149981 0.006064355
v 0.02310109 0.008149981 0.006515443
v 0.01734817 0.009149968 0.008953571
v 0.0183233 0.009149968 0.008979558
v 0.01923412 0.009149968 0.008630394
v 0.015437 0.009149968 0.006937623
v 0.01578617 0.009149968 0.007848441
v 0.01645725 0.009149968 0.008556365
v 0.01656812 0.009149968 0.004400491
v 0.01397061 0.009149968 0.002668261
v 0.01586019 0.009149968 0.00507158
v 0.0130459 0.009149968 0.003931462
v 0.01546305 0.009149968 0.00596255
v 0.02036523 0.009149968 0.006093263
v 0.02303344 0.009149968 0.004538297
v 0.02001607 0.009149968 0.005182445
v 0.02226853 0.009149968 0.003172457
v 0.01934498 0.009149968 0.00447458
v 0.02114975 0.009149968 0.0020774
v 0.01845407 0.009149968 0.004077374
v 0.01994204 0.009149968 0.007959306
v 0.02033919 0.009149968 0.007068395
v 0.0233826 0.009149968 0.006064355
v 0.01976782 0.009149968 0.001341938
v 0.01823467 0.009149968 0.001025557
v 0.01747894 0.009149968 0.004051387
v 0.01667451 0.009149968 0.001154005
v 0.01521366 0.009149968 0.001716732
v 0.01994204 0.01334995 0.007959306
v 0.02033919 0.01334995 0.007068395
v 0.02036523 0.01334995 0.006093263
v 0.02001607 0.01334995 0.005182445
v 0.01934498 0.01334995 0.00447458
v 0.01845407 0.01334995 0.004077374
v 0.01747894 0.01334995 0.004051387
v 0.01656812 0.01334995 0.004400491
v 0.01586019 0.01334995 0.00507158
v 0.01977872 0.01354998 0.007843792
v 0.02014416 0.01354998 0.007024168
v 0.02016806 0.01354998 0.006127059
v 0.01984691 0.01354998 0.005289077
v 0.01922947 0.01354998 0.004637837
v 0.01840978 0.01354998 0.004272401
v 0.01751273 0.01354998 0.004248499
v 0.01667475 0.01354998 0.004569709
v 0.01602351 0.01354998 0.005187094
v 0.01912748 0.01354998 0.008461236
v 0.01565808 0.01354998 0.006006777
v 0.01563417 0.01354998 0.006903886
v 0.01739245 0.01354998 0.008758485
v 0.0182895 0.01354998 0.008782446
v 0.01657277 0.01354998 0.008393108
v 0.01595532 0.01354998 0.007741808
v 0.01140111 5e-05 0.01833653
v 0.01211941 -0.001861453 0.01951545
v 0.01287764 -0.001360476 0.01951545
v 0.01121896 -0.001983821 0.01951545
v 0.01334345 -0.000580188 0.01951545
v 0.01342451 0.000324964 0.01951545
v 0.01307141 -0.00112468 0.01951545
v 0.01244771 0.001803338 0.01951545
v 0.01158326 0.002083837 0.01951545
v 0.01310485 0.001175642 0.01951545
v 0.01325356 0.000909156 0.01951545
v 0.01275753 0.001978635 0.01951545
v 0.01374959 -0.000160363 0.01951545
v 0.01239317 -0.002089023 0.01951545
v 0.01035451 -0.001703381 0.01951545
v 0.01004469 -0.001878619 0.01951545
v 0.009697377 -0.001075625 0.01951545
v 0.009548664 -0.000809156 0.01951545
v 0.009377717 -0.000224964 0.01951545
v 0.009052634 0.000260363 0.01951545
v 0.00945878 0.000680188 0.01951545
v 0.009730815 0.001224696 0.01951545
v 0.00992459 0.001460492 0.01951545
v 0.01040905 0.00218898 0.01951545
v 0.01068282 0.001961469 0.01951545
v 0.01374959 -0.000160363 0.02201545
v 0.01275753 0.001978635 0.02201545
v 0.01040905 0.00218898 0.02201545
v 0.009052634 0.000260363 0.02201545
v 0.01004469 -0.001878619 0.02201545
v 0.01239317 -0.002089023 0.02201545
v 0.009219765 0.003697454 0.02176547
v 0.009058296 0.003595888 0.02176547
v 0.009068787 0.003580033 0.02186113
v 0.008199393 0.00284487 0.02176547
v 0.007751762 0.00222826 0.02176547
v 0.007768094 0.002218484 0.02186113
v 0.008606255 -0.003151714 0.02176547
v 0.009222865 -0.003599286 0.02176547
v 0.00923258 -0.003582954 0.02186113
v 0.009732425 -0.003858685 0.02176547
v 0.01008951 -0.003992497 0.02176547
v 0.01009535 -0.003974437 0.02186113
v 0.007871031 -0.002282321 0.02186113
v 0.007916271 -0.002252399 0.02194225
v 0.00749129 -0.001419246 0.02194225
v 0.007983922 -0.002207696 0.02199643
v 0.007567226 -0.001390695 0.02199643
v 0.01084959 0.004108369 0.02199643
v 0.01086252 0.004013538 0.02201545
v 0.01175796 0.004034042 0.02201545
v 0.008063733 -0.002155005 0.02201545
v 0.007656753 -0.001357078 0.02201545
v 0.0101121 -0.003922879 0.02194225
v 0.01103311 -0.004058539 0.02198195
v 0.01013714 -0.003845751 0.02199643
v 0.01104426 -0.003934025 0.02201545
v 0.01016664 -0.003754734 0.02201545
v 0.007437527 -0.000488617 0.02201545
v 0.007342755 -0.000501499 0.02199643
v 0.007417082 0.000406865 0.02201545
v 0.007321774 0.0004154 0.02199643
v 0.007596373 0.00128442 0.02201545
v 0.007505357 0.001313924 0.02199643
v 0.007262349 -0.000512421 0.02194225
v 0.00724101 0.000422636 0.02194225
v 0.007428228 0.001338958 0.02194225
v 0.009196102 0.003387331 0.02201545
v 0.009994029 0.003794312 0.02201545
v 0.009143352 0.003467142 0.02199643
v 0.009960353 0.003883898 0.02199643
v 0.009098649 0.003534793 0.02194225
v 0.009931862 0.003959774 0.02194225
v 0.01083868 0.004188716 0.02194225
v 0.01102495 -0.004149675 0.02189046
v 0.01102846 -0.004110097 0.02194225
v 0.007440567 -0.001438319 0.02186113
v 0.007208704 -0.000519718 0.02186113
v 0.007187008 0.000427471 0.02186113
v 0.00737667 0.001355707 0.02186113
v 0.01176649 0.00412929 0.02199643
v 0.01176911 0.004158496 0.02198195
v 0.01177376 0.004210114 0.02194225
v 0.01177728 0.004249691 0.02189046
v 0.009912788 0.004010498 0.02186113
v 0.01083141 0.00424242 0.02186113
v 0.01177859 0.004264056 0.02186113
v 0.01102197 -0.004182994 0.02176547
v 0.01102364 -0.00416404 0.02186113
v 0.009350955 -0.003384649 0.02201545
v 0.00930196 -0.003466784 0.02199643
v 0.009260356 -0.003536403 0.02194225
v 0.008465409 -0.003023087 0.02176547
v 0.008478522 -0.003009319 0.02186113
v 0.008515954 -0.002970159 0.02194225
v 0.008571982 -0.002911508 0.02199643
v 0.008638083 -0.002842307 0.02201545
v 0.007855176 -0.002292811 0.02176547
v 0.007492423 0.00171864 0.02176547
v 0.007358551 0.001361548 0.02176547
v 0.007168054 0.000429169 0.02176547
v 0.00718981 -0.00052228 0.02176547
v 0.007258057 -0.000897474 0.02176547
v 0.007422745 -0.001444995 0.02176547
v 0.00775361 -0.002131342 0.02176547
v 0.007966458 0.00210011 0.02201545
v 0.007884323 0.002149164 0.02199643
v 0.007814645 0.002190709 0.02194225
v 0.00832796 0.002985656 0.02176547
v 0.008341729 0.002972543 0.02186113
v 0.008380949 0.002935111 0.02194225
v 0.0084396 0.002879083 0.02199643
v 0.008508741 0.002812981 0.02201545
v 0.009906053 0.00402832 0.02176547
v 0.01045364 0.004193007 0.02176547
v 0.01082885 0.004261255 0.02176547
v 0.01178026 0.00428301 0.02176547
v 0.01163518 0.002662956 0.01700025
v 0.01164197 0.002739191 0.01701545
v 0.01238989 0.002562403 0.01701545
v 0.0111767 -0.002455174 0.01689201
v 0.01117807 -0.002439975 0.01681548
v 0.01188862 -0.002401947 0.01681548
v 0.01117283 -0.002498328 0.01695686
v 0.01117569 -0.002466678 0.01691544
v 0.01189386 -0.002428233 0.01691544
v 0.01214796 -0.002335786 0.01681548
v 0.0125721 -0.00218904 0.01691544
v 0.01255971 -0.002165317 0.01681548
v 0.01315551 -0.001768469 0.01691544
v 0.01300412 -0.001868426 0.01681548
v 0.01313692 -0.001749157 0.01681548
v 0.01359677 -0.001200497 0.01691544
v 0.01357346 -0.001187264 0.01681548
v 0.01386016 -0.000531303 0.01691544
v 0.01342904 0.00151205 0.01681548
v 0.01345074 0.001527726 0.01691544
v 0.01375877 0.000881511 0.01681548
v 0.01378405 0.000890423 0.01691544
v 0.01389753 0.000183598 0.01681548
v 0.0139243 0.00018503 0.01691544
v 0.01389116 -0.00017304 0.01681548
v 0.01383405 -0.000525139 0.01681548
v 0.01331955 0.001652956 0.01681548
v 0.01293498 0.002024114 0.01681548
v 0.01295143 0.002045273 0.01691544
v 0.01232647 0.002401232 0.01691544
v 0.01235324 0.00246936 0.01698869
v 0.01256006 0.002265095 0.01681548
v 0.01231664 0.002376317 0.01681548
v 0.01162415 0.002539992 0.01681548
v 0.01116913 -0.002539575 0.01698869
v 0.01190811 -0.002500057 0.01698869
v 0.01260602 -0.00225389 0.01698863
v 0.0132063 -0.0018211 0.01698869
v 0.01366037 -0.001236736 0.01698869
v 0.01393139 -0.000548144 0.01698863
v 0.01399737 0.000188942 0.01698869
v 0.01385307 0.000914772 0.01698869
v 0.0135101 0.001570522 0.01698869
v 0.01299631 0.00210309 0.01698869
v 0.01162552 0.002555191 0.01689201
v 0.01162654 0.002566695 0.01691544
v 0.0116294 0.002598345 0.01695686
v 0.01163309 0.002639591 0.01698863
v 0.01116025 -0.002639174 0.01701545
v 0.01192766 -0.002598106 0.01701545
v 0.01265239 -0.002342522 0.01701545
v 0.01327574 -0.001893103 0.01701545
v 0.01374727 -0.001286208 0.01701545
v 0.01402872 -0.00057115 0.01701545
v 0.01409727 0.000194286 0.01701545
v 0.01394742 0.000948032 0.01701545
v 0.01359122 0.001628994 0.01701545
v 0.01305764 0.002182066 0.01701545
v 0.01563417 -0.000329169 0.01701545
v 0.01554417 0.000997474 0.01701545
v 0.01504862 0.002231359 0.01701545
v 0.01419597 0.003251731 0.01701545
v 0.0130698 0.003958702 0.01701545
v 0.01178026 0.00428301 0.01701545
v 0.01045364 0.004193007 0.01701545
v 0.01087462 0.002698123 0.01701545
v 0.009219765 0.003697454 0.01701545
v 0.01014983 0.002442538 0.01701545
v 0.008199393 0.00284487 0.01701545
v 0.009526491 0.001993119 0.01701545
v 0.007492423 0.00171864 0.01701545
v 0.009054958 0.001386225 0.01701545
v 0.007168054 0.000429169 0.01701545
v 0.008773565 0.00067115 0.01701545
v 0.00870496 -9.42859e-05 0.01701545
v 0.007258057 -0.000897474 0.01701545
v 0.008854866 -0.000848032 0.01701545
v 0.00775361 -0.002131342 0.01701545
v 0.009211003 -0.001528978 0.01701545
v 0.008606255 -0.003151714 0.01701545
v 0.009744584 -0.002082049 0.01701545
v 0.009732425 -0.003858685 0.01701545
v 0.01041233 -0.002462387 0.01701545
v 0.01102197 -0.004182994 0.01701545
v 0.01234859 -0.004092991 0.01701545
v 0.01358246 -0.003597438 0.01701545
v 0.01460283 -0.002744853 0.01701545
v 0.01530981 -0.001618683 0.01701545
v 0.0116719 -0.00394082 0.02201545
v 0.01229286 -0.003849327 0.02201545
v 0.01289188 -0.003661811 0.02201545
v 0.01345419 -0.003382921 0.02201545
v 0.01297163 0.003728747 0.02201545
v 0.01237684 0.003929138 0.02201545
v 0.01447063 0.002614796 0.02201545
v 0.01403158 0.00306338 0.02201545
v 0.01352781 0.003437757 0.02201545
v 0.01507991 -0.001520514 0.02201545
v 0.0152803 -0.000925714 0.02201545
v 0.01538515 -0.000306865 0.02201545
v 0.01539194 0.000320771 0.02201545
v 0.01530045 0.00094174 0.02201545
v 0.01511293 0.00154072 0.02201545
v 0.01483404 0.00210303 0.02201545
v 0.0139659 -0.003019452 0.02201545
v 0.01441454 -0.002580463 0.02201545
v 0.01478892 -0.002076685 0.02201545
v 0.01048558 -0.002276301 0.01681548
v 0.01117807 -0.002439975 0.01301544
v 0.01024216 -0.002165079 0.01301544
v 0.01024216 -0.002165079 0.01681548
v 0.00986725 -0.001924157 0.01681548
v 0.009482681 -0.001552999 0.01301544
v 0.009482681 -0.001552999 0.01681548
v 0.009373188 -0.001412034 0.01681548
v 0.009015262 -0.000696831 0.01301544
v 0.009043455 -0.000781511 0.01681548
v 0.008904695 -8.35981e-05 0.01681548
v 0.008911073 0.00027304 0.01301544
v 0.008911073 0.00027304 0.01681548
v 0.008968174 0.000625139 0.01681548
v 0.009185969 0.001208901 0.01301544
v 0.009228765 0.001287221 0.01681548
v 0.00966531 0.001849174 0.01681548
v 0.009798109 0.001968383 0.01301544
v 0.009798109 0.001968383 0.01681548
v 0.01024252 0.002265274 0.01681548
v 0.01065427 0.002435803 0.01301544
v 0.01162415 0.002539992 0.01301544
v 0.01091361 0.002501964 0.01681548
v 0.01065427 0.002435803 0.01681548
v 0.003228902 0.00364995 0.007560253
v 0.003228902 -0.003549993 0.007560253
v 0.00337547 -0.003549993 0.007582843
v 0.00337547 0.00364995 0.007582843
v 0.003519475 -0.003549993 0.007547616
v 0.003519475 0.00364995 0.007547616
v 0.003639042 -0.003549993 0.007459938
v 0.003639042 0.00364995 0.007459938
v 0.003715991 -0.003549993 0.007333159
v 0.003715991 0.00364995 0.007333159
v 0.007560253 0.00364995 -0.003228902
v 0.007560253 -0.003549993 -0.003228902
v 0.007582843 -0.003549993 -0.00337547
v 0.007582843 0.00364995 -0.00337547
v 0.007547616 -0.003549993 -0.003519475
v 0.007547616 0.00364995 -0.003519475
v 0.007459938 -0.003549993 -0.003639042
v 0.007459938 0.00364995 -0.003639042
v 0.007333159 -0.003549993 -0.003715991
v 0.007333159 0.00364995 -0.003715991
v 0.002052068 -0.003549993 -0.005638122
v 0.002052068 0.00364995 -0.005638122
v -0.002052068 0.00364995 0.005638122
v -0.002052068 -0.003549993 0.005638122
v 0.001957297 0.00364995 0.007097423
v 0.001957297 -0.003549993 0.007097423
v 0.001041829 -0.003549993 -0.005908787
v 0.000522934 0.00364995 -0.005977153
v 0.000522934 -0.003549993 -0.005977153
v 0 0.00364995 -0.005999982
v 0 -0.003549993 -0.005999982
v -0.001041889 0.00364995 -0.005908846
v -0.001041889 -0.003549993 -0.005908846
v -0.00165379 0.00364995 -0.005767524
v -0.00165379 -0.003549993 -0.005767524
v -0.0025357 0.00364995 -0.005437791
v -0.0025357 -0.003549993 -0.005437791
v -0.00317949 0.00364995 -0.005088269
v -0.00317949 -0.003549993 -0.005088269
v -0.003856718 0.00364995 -0.004596233
v -0.003856718 -0.003549993 -0.004596233
v -0.004458844 0.00364995 -0.00401473
v -0.004458844 -0.003549993 -0.00401473
v -0.004914879 0.00364995 -0.003441452
v -0.004914879 -0.003549993 -0.003441452
v -0.00539273 0.00364995 -0.002630174
v -0.00539273 -0.003549993 -0.002630174
v -0.005638122 0.00364995 -0.002052068
v -0.005638122 -0.003549993 -0.002052068
v -0.005908787 0.00364995 -0.001041889
v -0.005908787 -0.003549993 -0.001041889
v -0.005977153 0.00364995 -0.000522933
v -0.005977153 -0.003549993 -0.000522933
v -0.00596708 0.00364995 0.000627169
v -0.00596708 -0.003549993 0.000627169
v -0.005908846 0.00364995 0.001041829
v -0.005908846 -0.003549993 0.001041829
v -0.00556308 0.00364995 0.002247631
v -0.00556308 -0.003549993 0.002247631
v -0.005437791 0.00364995 0.0025357
v -0.005437791 -0.003549993 0.0025357
v -0.004728019 0.00364995 0.003693938
v -0.004728019 -0.003549993 0.003693938
v -0.004596233 0.00364995 0.003856718
v -0.004596233 -0.003549993 0.003856718
v -0.003526687 0.00364995 0.004854083
v -0.003526687 -0.003549993 0.004854083
v -0.003441452 0.00364995 0.004914879
v -0.003441452 -0.003549993 0.004914879
v -0.000760821 -0.009049952 0.005447089
v -0.000760821 -0.008049964 0.005447089
v -0.002264618 -0.008049964 0.005012094
v -0.002264618 -0.009049952 0.005012094
v -0.00358498 -0.008049964 0.004171073
v -0.00358498 -0.009049952 0.004171073
v -0.004614889 -0.008049964 0.002992093
v -0.004614889 -0.009049952 0.002992093
v -0.005270898 -0.008049964 0.001570701
v -0.005270898 -0.009049952 0.001570701
v -0.005499899 -0.008049964 2.21283e-05
v -0.005499899 -0.009049952 2.21283e-05
v -0.005283355 -0.008049964 -0.001528263
v -0.005283355 -0.009049952 -0.001528263
v -0.004638791 -0.008049964 -0.00295484
v -0.004638791 -0.009049952 -0.00295484
v -0.003618419 -0.008049964 -0.004142045
v -0.003618419 -0.009049952 -0.004142045
v -0.002304852 -0.008049964 -0.004993736
v -0.002304852 -0.009049952 -0.004993736
v -0.000804627 -0.008049964 -0.005440771
v -0.000804627 -0.009049952 -0.005440771
v 0.000760822 -0.008049964 -0.005447089
v 0.000760822 -0.009049952 -0.005447089
v -0.001778483 -0.008049964 0.004886388
v -9.49054e-05 -0.008049964 0.005499124
v -0.002982556 -0.008049964 0.004259586
v -0.003983378 -0.008049964 0.003342449
v -0.00471276 -0.008049964 0.002197563
v -0.005120992 -0.008049964 0.000902968
v -0.00518018 -0.008049964 -0.000453212
v -0.004886388 -0.008049964 -0.001778483
v -0.004259586 -0.008049964 -0.002982556
v -0.003342449 -0.008049964 -0.003983378
v -0.002197563 -0.008049964 -0.00471276
v -0.000902967 -0.008049964 -0.005120992
v 0.000453213 -0.008049964 -0.00518018
v 0.002264618 -0.008049964 -0.005012094
v 0.001778483 -0.008049964 -0.004886388
v 0.003462076 -0.008049964 -0.004273593
v -0.002169191 -0.009049952 0.001242756
v -0.002479672 -0.009049952 0.000318037
v -0.002412617 -0.009049952 -0.000655103
v -0.001978278 -0.009049952 -0.001528501
v -0.001242756 -0.009049952 -0.002169191
v -0.000318036 -0.009049952 -0.002479672
v 0.000655104 -0.009049952 -0.002412617
v -0.000655103 -0.009049952 0.002412617
v -0.001528501 -0.009049952 0.001978278
v 0.001978278 -0.009049952 0.001528501
v 0.003618419 -0.009049952 0.004142045
v 0.001242756 -0.009049952 0.002169191
v 0.002304852 -0.009049952 0.004993736
v 0.000318037 -0.009049952 0.002479672
v 0.000804628 -0.009049952 0.005440771
v 0.002169191 -0.009049952 -0.001242756
v 0.005270898 -0.009049952 -0.001570701
v 0.002479672 -0.009049952 -0.000318036
v 0.005499899 -0.009049952 -2.21275e-05
v 0.002412617 -0.009049952 0.000655104
v 0.005283355 -0.009049952 0.001528263
v 0.004638791 -0.009049952 0.00295484
v 0.002264618 -0.009049952 -0.005012094
v 0.001528501 -0.009049952 -0.001978278
v 0.00358498 -0.009049952 -0.004171073
v 0.004614889 -0.009049952 -0.002992093
v 0.001978278 -0.01324999 0.001528501
v 0.001242756 -0.01324999 0.002169191
v 0.000318037 -0.01324999 0.002479672
v -0.000655103 -0.01324999 0.002412617
v -0.001528501 -0.01324999 0.001978278
v -0.002169191 -0.01324999 0.001242756
v -0.002479672 -0.01324999 0.000318037
v -0.002412617 -0.01324999 -0.000655103
v -0.001978278 -0.01324999 -0.001528501
v 0.001819968 -0.01344996 0.001406192
v 0.001143336 -0.01344996 0.001995682
v 0.000292594 -0.01344996 0.002281308
v -0.000602694 -0.01344996 0.002219617
v -0.001406192 -0.01344996 0.001819968
v -0.001995682 -0.01344996 0.001143336
v -0.002281308 -0.01344996 0.000292594
v -0.002219617 -0.01344996 -0.000602694
v -0.001820027 -0.01344996 -0.001406192
v -0.001143336 -0.01344996 -0.001995682
v -0.000292594 -0.01344996 -0.002281308
v 0.002219617 -0.01344996 0.000602695
v 0.002281308 -0.01344996 -0.000292594
v 0.001995682 -0.01344996 -0.001143336
v 0.001406192 -0.01344996 -0.001820027
v 0.000602695 -0.01344996 -0.002219617
v -9.49054e-05 0.008149981 0.005499124
v -0.000333562 0.008149981 0.005489826
v -0.001778483 0.008149981 0.004886388
v -0.001866698 0.008149981 0.005173504
v -0.003056466 0.008149981 0.004206836
v -0.003248631 0.008149981 0.004437983
v -0.00409764 0.008149981 0.003201425
v -0.004367351 0.008149981 0.003342986
v -0.0048213 0.008149981 0.001947939
v -0.005132317 0.008149981 0.001977145
v -0.005171477 0.008149981 0.00054355
v -0.005481421 0.008149981 0.000451126
v -0.005120992 0.008149981 -0.000902971
v -0.005386471 0.008149981 -0.001111447
v -0.004673719 0.008149981 -0.00227952
v -0.004855155 0.008149981 -0.00258398
v -0.003864347 0.008149981 -0.00347948
v -0.003930509 0.008149981 -0.003847181
v -0.002755522 0.008149981 -0.004409849
v -0.002687394 0.008149981 -0.00479871
v -0.001433253 0.008149981 -0.004998505
v -0.001226603 0.008149981 -0.005361437
v 0 0.008149981 -0.005199968
v 0.000333563 0.008149981 -0.005489826
v 0.000902972 0.008149981 -0.005120992
v 0.001866698 0.008149981 -0.005173504
v 0.001778483 0.008149981 -0.004886388
v 0.003248631 0.008149981 -0.004437983
v 0.003462076 0.008149981 -0.004273593
v -0.005386471 0.009149968 -0.001111447
v -0.005481421 0.009149968 0.000451126
v -0.005132317 0.009149968 0.001977145
v -0.004367351 0.009149968 0.003342986
v -0.003248631 0.009149968 0.004437983
v -0.001866698 0.009149968 0.005173504
v -0.000333562 0.009149968 0.005489826
v 0.001226603 0.009149968 0.005361437
v 0.001226603 0.008149981 0.005361437
v 0.002687394 0.008149981 0.00479871
v 0.002687394 0.009149968 0.00479871
v 0.003930509 0.008149981 0.003847181
v 0.003930509 0.009149968 0.003847181
v 0.004855155 0.008149981 0.00258398
v 0.004855155 0.009149968 0.00258398
v 0.005386471 0.008149981 0.001111447
v 0.005386471 0.009149968 0.001111447
v -0.000655103 0.009149968 0.002412617
v 0.000318037 0.009149968 0.002479672
v 0.001242756 0.009149968 0.002169191
v 0.001978278 0.009149968 0.001528501
v -0.002479672 0.009149968 0.000318037
v -0.002169191 0.009149968 0.001242756
v -0.001528501 0.009149968 0.001978278
v -0.001978278 0.009149968 -0.001528501
v -0.004855155 0.009149968 -0.00258398
v -0.002412617 0.009149968 -0.000655103
v 0.000655104 0.009149968 -0.002412617
v 0.000333563 0.009149968 -0.005489826
v -0.000318036 0.009149968 -0.002479672
v -0.001226603 0.009149968 -0.005361437
v -0.001242756 0.009149968 -0.002169191
v -0.002687394 0.009149968 -0.00479871
v -0.003930509 0.009149968 -0.003847181
v 0.002412617 0.009149968 0.000655104
v 0.002479672 0.009149968 -0.000318036
v 0.005481421 0.009149968 -0.000451125
v 0.005132317 0.009149968 -0.001977145
v 0.002169191 0.009149968 -0.001242756
v 0.004367351 0.009149968 -0.003342986
v 0.001528501 0.009149968 -0.001978278
v 0.003248631 0.009149968 -0.004437983
v 0.001866698 0.009149968 -0.005173504
v 0.002281308 0.01354998 -0.000292594
v -0.002219617 0.01354998 -0.000602694
v 0.002219617 0.01354998 0.000602695
v 0.001143336 0.01354998 0.001995682
v 0.001819968 0.01354998 0.001406192
v 0.001995682 0.01354998 -0.001143336
v 0.001406192 0.01354998 -0.001820027
v -0.001995682 0.01354998 0.001143336
v -0.001406192 0.01354998 0.001819968
v -0.000602694 0.01354998 0.002219617
v -0.001820027 0.01354998 -0.001406192
v -0.001143336 0.01354998 -0.001995682
v -0.000292594 0.01354998 -0.002281308
v 0.000602695 0.01354998 -0.002219617
v -0.002281308 0.01354998 0.000292594
v 0.000292594 0.01354998 0.002281308
v -0.001978278 0.01334995 -0.001528501
v -0.002412617 0.01334995 -0.000655103
v -0.002479672 0.01334995 0.000318037
v -0.002169191 0.01334995 0.001242756
v -0.001528501 0.01334995 0.001978278
v -0.000655103 0.01334995 0.002412617
v 0.000318037 0.01334995 0.002479672
v 0.001242756 0.01334995 0.002169191
v 0.001978278 0.01334995 0.001528501
v 0.02310115 0.008149981 0.01301544
v 0.0239011 0.007349967 0.01301544
v 0.0239011 0.007349967 0.006515443
v 0.02372288 0.007349967 0.005063951
v 0.02319878 0.007349967 0.003698647
v 0.02235996 0.007349967 0.002500653
v 0.02125626 0.007349967 0.001541197
v 0.01995325 0.007349967 0.000877328
v 0.002052068 0.007349967 -0.005638122
v 0.001041829 0.007349967 -0.005908787
v 0 0.007349967 -0.005999982
v 0.001957297 0.007349967 0.007097423
v 0.002230882 0.008149981 0.006345689
v -0.002052068 0.007349967 0.005638122
v 0.006101131 0.007349967 0.01301544
v 0.006901085 0.008149981 0.01301544
v 0.005914032 0.007349967 0.01149189
v 0.006690263 0.008149981 0.01129835
v 0.005363941 0.007349967 0.01005882
v 0.006070315 0.008149981 0.009683251
v 0.004483461 0.007349967 0.0088014
v 0.005078017 0.008149981 0.008266091
v 0.003324985 0.007349967 0.00779432
v 0.003772318 0.008149981 0.007131099
v 0.0239011 -0.007249951 0.01301544
v 0.02310115 -0.008049964 0.01301544
v 0.0239011 -0.007249951 0.006515443
v 0.01995325 -0.007249951 0.000877328
v 0.02125626 -0.007249951 0.001541197
v 0.02235996 -0.007249951 0.002500653
v 0.02319878 -0.007249951 0.003698647
v 0.02372288 -0.007249951 0.005063951
v 0.002052068 -0.007249951 -0.005638122
v -0.002052068 -0.007249951 0.005638122
v -0.003441452 -0.007249951 0.004914879
v -0.003526687 -0.007249951 0.004854083
v -0.004596233 -0.007249951 0.003856718
v -0.004728019 -0.007249951 0.003693938
v -0.005437791 -0.007249951 0.0025357
v -0.00556308 -0.007249951 0.002247631
v -0.005908846 -0.007249951 0.001041829
v -0.00596708 -0.007249951 0.000627169
v -0.005977153 -0.007249951 -0.000522933
v -0.005908787 -0.007249951 -0.001041889
v -0.005638122 -0.007249951 -0.002052068
v -0.00539273 -0.007249951 -0.002630174
v -0.004914879 -0.007249951 -0.003441452
v -0.004458844 -0.007249951 -0.00401473
v -0.003856718 -0.007249951 -0.004596233
v -0.00317949 -0.007249951 -0.005088269
v -0.0025357 -0.007249951 -0.005437791
v -0.00165379 -0.007249951 -0.005767524
v -0.001041889 -0.007249951 -0.005908846
v 0 -0.007249951 -0.005999982
v 0.000522934 -0.007249951 -0.005977153
v 0.002230882 -0.008049964 0.006345689
v 0.001957297 -0.007249951 0.007097423
v 0.003324985 -0.007249951 0.00779432
v 0.003772318 -0.008049964 0.007131099
v 0.004483461 -0.007249951 0.0088014
v 0.005078017 -0.008049964 0.008266091
v 0.005363941 -0.007249951 0.01005882
v 0.006070315 -0.008049964 0.009683251
v 0.005914032 -0.007249951 0.01149189
v 0.006690263 -0.008049964 0.01129835
v 0.006101131 -0.007249951 0.01301544
v 0.006901085 -0.008049964 0.01301544
v 0.003502845 -0.003549993 0.007918775
v 0.003502845 0.00364995 0.007918775
v 0.003324985 -0.003549993 0.00779432
v 0.003324985 0.00364995 0.00779432
v 0.004638791 -0.008049964 0.00295484
v 0.01725679 -0.008049964 0.001053333
v 0.01440602 -0.008049964 0.002268791
v 0.005270898 -0.008049964 -0.001570701
v 0.004614889 -0.008049964 -0.002992093
v 0.000804628 -0.008049964 0.005440771
v 0.002304852 -0.008049964 0.004993736
v 0.003618419 -0.008049964 0.004142045
v 0.005283355 -0.008049964 0.001528263
v 0.005499899 -0.008049964 -2.21275e-05
v 0.01574403 -0.008049964 0.001456081
v 0.00358498 -0.008049964 -0.004171073
v 0.00769025 -0.003549993 -0.003585994
v 0.00769025 0.00364995 -0.003585994
v 0.01236712 -0.004708588 0.01301544
v 0.01331955 0.001652956 0.01301544
v 0.01378697 0.000796831 0.01301544
v 0.01215922 0.003897845 0.01301544
v 0.01236712 0.004291355 0.01301544
v 0.01136392 -0.005449295 0.01301544
v 0.01180118 -0.005366444 0.01301544
v 0.01215922 -0.005102097 0.01301544
v 0.01093405 -0.005334198 0.01301544
v 0.01059663 -0.005043983 0.01301544
v 0.01389116 -0.00017304 0.01301544
v 0.01361626 -0.001108944 0.01301544
v 0.01300412 -0.001868426 0.01301544
v 0.01214796 -0.002335786 0.01301544
v 0.01256006 0.002265095 0.01301544
v 0.01180118 0.003633499 0.01301544
v 0.01136392 0.003550648 0.01301544
v 0.01093405 0.003665745 0.01301544
v 0.01059663 0.00395596 0.01301544
v 0.004367351 0.008149981 -0.003342986
v 0.01521366 0.008149981 0.001716732
v 0.01667451 0.008149981 0.001154005
v 0.005132317 0.008149981 -0.001977145
v 0.005481421 0.008149981 -0.000451125
v 0.01397061 0.008149981 0.002668261
v 0.0130459 0.008149981 0.003931462
v -0.00165379 0.007349967 -0.005767524
v -0.00317949 0.007349967 -0.005088269
v -0.004458844 0.007349967 -0.00401473
v -0.00539273 0.007349967 -0.002630174
v -0.005908787 0.007349967 -0.001041889
v -0.00596708 0.007349967 0.000627169
v -0.00556308 0.007349967 0.002247631
v -0.004728019 0.007349967 0.003693938
v -0.003526687 0.007349967 0.004854083
v -0.001242756 0.01334995 -0.002169191
v -0.000318036 0.01334995 -0.002479672
v 0.000655104 0.01334995 -0.002412617
v 0.001528501 0.01334995 -0.001978278
v 0.002169191 0.01334995 -0.001242756
v 0.002479672 0.01334995 -0.000318036
v 0.002412617 0.01334995 0.000655104
v -0.001242756 -0.01324999 -0.002169191
v -0.000318036 -0.01324999 -0.002479672
v 0.000655104 -0.01324999 -0.002412617
v 0.001528501 -0.01324999 -0.001978278
v 0.002169191 -0.01324999 -0.001242756
v 0.002479672 -0.01324999 -0.000318036
v 0.002412617 -0.01324999 0.000655104
v 0.01243782 0.004171609 0.02176547
v 0.0130698 0.003958702 0.02176547
v 0.01366072 0.003649532 0.02176547
v 0.01419597 0.003251731 0.02176547
v 0.01466244 0.002775073 0.02176547
v 0.01504862 0.002231359 0.02176547
v 0.01534491 0.001633882 0.02176547
v 0.01554417 0.000997474 0.02176547
v 0.01564139 0.000337695 0.02176547
v 0.01563417 -0.000329169 0.02176547
v 0.01552271 -0.000986696 0.02176547
v 0.01530981 -0.001618683 0.02176547
v 0.01500064 -0.002209603 0.02176547
v 0.01460283 -0.002744853 0.02176547
v 0.01412624 -0.003211319 0.02176547
v 0.01358246 -0.003597438 0.02176547
v 0.01298505 -0.003893792 0.02176547
v 0.01168882 -0.004190206 0.02176547
v 0.01234859 -0.004092991 0.02176547
v 0.01090216 0.002559423 0.01695686
v 0.01091063 0.002516925 0.01689201
v 0.01023548 0.002278804 0.01689201
v 0.00965476 0.001860141 0.01689201
v 0.009215533 0.001294791 0.01689201
v 0.008953332 0.000628641 0.01689201
v 0.008889496 -8.44116e-05 0.01689201
v 0.00902909 -0.000786575 0.01689201
v 0.009360849 -0.001420915 0.01689201
v 0.01047998 -0.002290487 0.01689201
v 0.009857952 -0.001936137 0.01689201
v 0.01046413 -0.00233078 0.01695686
v 0.009831309 -0.00197041 0.01695686
v 0.009325683 -0.001446306 0.01695686
v 0.008988201 -0.000800995 0.01695686
v 0.008846163 -8.67285e-05 0.01695686
v 0.008911192 0.000638615 0.01695686
v 0.009177863 0.001316249 0.01695686
v 0.00962466 0.001891314 0.01695686
v 0.0102154 0.00231719 0.01695686
v 0.01044034 -0.002391159 0.01700025
v 0.009791493 -0.00202161 0.01700025
v 0.009273052 -0.001484215 0.01700025
v 0.008926987 -0.000822576 0.01700025
v 0.008781373 -9.01958e-05 0.01700025
v 0.008848011 0.000653542 0.01700025
v 0.009121477 0.001348376 0.01700025
v 0.009579598 0.001937985 0.01700025
v 0.0101853 0.002374708 0.01700025
v 0.01088953 0.002623081 0.01700025
v 0.0124073 0.004050374 0.02198195
v 0.01242965 0.004139125 0.02189046
v 0.01168036 -0.004065513 0.02198195
v 0.01232075 -0.003971159 0.02198195
v 0.01293843 -0.003777801 0.02198195
v 0.01351833 -0.003490149 0.02198195
v 0.01404607 -0.003115355 0.02198195
v 0.01450866 -0.002662658 0.02198195
v 0.01489478 -0.002143144 0.02198195
v 0.01519483 -0.001569569 0.02198195
v 0.01540154 -0.000956205 0.02198195
v 0.01550966 -0.000318017 0.02198195
v 0.01551663 0.000329233 0.02198195
v 0.01542228 0.000969607 0.02198195
v 0.01522892 0.001587331 0.02198195
v 0.01494133 0.002167165 0.02198195
v 0.01456654 0.002694904 0.02198195
v 0.01411378 0.003157556 0.02198195
v 0.01359426 0.003543615 0.02198195
v 0.01302075 0.003843724 0.02198195
v 0.01305663 0.003927886 0.02189046
v 0.0136429 0.00362116 0.02189046
v 0.01417398 0.003226459 0.02189046
v 0.01463675 0.002753615 0.02189046
v 0.01501983 0.002214133 0.02189046
v 0.01531386 0.001621425 0.02189046
v 0.01551151 0.000990007 0.02189046
v 0.01560795 0.000335427 0.02189046
v 0.0156008 -0.000326181 0.02189046
v 0.01549023 -0.000978526 0.02189046
v 0.01527899 -0.00160551 0.02189046
v 0.01497226 -0.002191781 0.02189046
v 0.01457762 -0.002722799 0.02189046
v 0.01410472 -0.003185629 0.02189046
v 0.0135653 -0.003568708 0.02189046
v 0.01297253 -0.003862679 0.02189046
v 0.01234114 -0.004060387 0.02189046
v 0.01168656 -0.004156827 0.02189046
v 0.01546305 0.01334995 0.00596255
v 0.015437 0.01334995 0.006937623
v 0.01578617 0.01334995 0.007848441
v 0.01645725 0.01334995 0.008556365
v 0.01734817 0.01334995 0.008953571
v 0.0183233 0.01334995 0.008979558
v 0.01923412 0.01334995 0.008630394
v 0.01923412 -0.01324999 0.008630394
v 0.0183233 -0.01324999 0.008979558
v 0.01734817 -0.01324999 0.008953571
v 0.01645725 -0.01324999 0.008556365
v 0.01578617 -0.01324999 0.007848441
v 0.015437 -0.01324999 0.006937623
v 0.01546305 -0.01324999 0.00596255
v 0.01234507 0.004219889 0.01456546
v 0.01215922 0.003897845 0.01456546
v 0.01205354 0.003792166 0.01456546
v 0.01180118 0.003633499 0.01456546
v 0.01158726 0.003567457 0.01456546
v 0.01136392 0.003550648 0.01456546
v 0.01107102 0.003606021 0.01456546
v 0.01093405 0.003665745 0.01456546
v 0.0106433 0.003897547 0.01456546
v 0.01072245 0.003965675 0.01495546
v 0.01110553 0.003704667 0.01495546
v 0.01102459 0.004017829 0.01508319
v 0.01094037 0.004462659 0.01514834
v 0.01085609 0.004907548 0.01508319
v 0.01234507 -0.004780054 0.01456546
v 0.01215922 -0.005102097 0.01456546
v 0.01205354 -0.005207777 0.01456546
v 0.01180118 -0.005366444 0.01456546
v 0.01158726 -0.005432486 0.01456546
v 0.01136392 -0.005449295 0.01456546
v 0.01107102 -0.005393922 0.01456546
v 0.01093405 -0.005334198 0.01456546
v 0.0106433 -0.005102396 0.01456546
v 0.01072245 -0.005034267 0.01495546
v 0.01110553 -0.005295276 0.01495546
v 0.01085609 -0.004092395 0.01508319
v 0.01094037 -0.004537284 0.01514834
v 0.01102459 -0.004982113 0.01508319
v 0.01590114 5e-05 0.02692228
v 0.01590114 5e-05 0.01701545
v 0.01578718 -0.000956203 0.02685868
v 0.01568084 -0.001340568 0.01701545
v 0.0150417 -0.002595007 0.01701545
v 0.01544708 -0.001919865 0.02666878
v 0.01568007 -0.001343071 0.0267989
v 0.01400834 -0.003617703 0.02586543
v 0.01404559 -0.003590941 0.02588623
v 0.01404613 -0.003590524 0.01701545
v 0.01484555 -0.002845823 0.02633291
v 0.01503962 -0.002597868 0.02644127
v 0.01298165 -0.004163265 0.02529215
v 0.01279169 -0.004229724 0.01701545
v 0.01279038 -0.004230141 0.02518534
v 0.01179552 -0.004432678 0.02462983
v 0.01140111 -0.004449963 0.01701545
v 0.01140129 -0.004449963 0.02440971
v 0.01001054 -0.004229724 0.01701545
v 0.008756101 -0.003590524 0.01701545
v 0.008757352 -0.003591477 0.02293342
v 0.009665369 -0.004101753 0.02344042
v 0.01001238 -0.00423032 0.02363419
v 0.01070123 -0.004395186 0.02401882
v 0.007595121 -0.002350926 0.0220803
v 0.007760524 -0.002595007 0.02223575
v 0.007760524 -0.002595007 0.01701545
v 0.008172392 -0.00308448 0.02256792
v 0.008663475 -0.003521442 0.02288103
v 0.007121384 -0.001340568 0.01701545
v 0.006901085 5e-05 0.01701545
v 0.006901144 5e-05 0.02122837
v 0.006958782 -0.000667933 0.02131563
v 0.007121384 -0.001340568 0.02154225
v 0.007332563 -0.001872658 0.02180147
v 0.010387 0.002498269 0.01701545
v 0.008756101 0.00369054 0.01701545
v 0.009527266 0.001923799 0.01701545
v 0.007760524 0.002695024 0.01701545
v 0.008952856 0.001064062 0.01701545
v 0.007121384 0.001440525 0.01701545
v 0.008751094 5e-05 0.01701545
v 0.008952856 -0.000964111 0.01701545
v 0.009527266 -0.001823782 0.01701545
v 0.01241523 -0.002398252 0.01701545
v 0.01327496 -0.001823782 0.01701545
v 0.01384937 -0.000964111 0.01701545
v 0.01405113 5e-05 0.01701545
v 0.01384937 0.001064062 0.01701545
v 0.01568084 0.001440525 0.01701545
v 0.0150417 0.002695024 0.01701545
v 0.01327496 0.001923799 0.01701545
v 0.01404613 0.00369054 0.01701545
v 0.01241523 0.002498269 0.01701545
v 0.01279169 0.004329741 0.01701545
v 0.01140111 0.002699971 0.01701545
v 0.01140111 0.00454998 0.01701545
v 0.01001054 0.004329741 0.01701545
v 0.010387 -0.002398252 0.01701545
v 0.01140111 -0.002599954 0.01701545
v 0.01887112 -0.008949995 0.04701548
v 0.01896899 -0.009567975 0.04701548
v 0.01896899 -0.009502351 0.047598
v 0.02025306 -0.01085209 0.04701548
v 0.0208711 -0.01094996 0.04701548
v 0.0208711 -0.01084971 0.04790556
v 0.02025306 -0.01075422 0.04788374
v 0.0208711 -0.01075422 0.0482515
v 0.02025306 -0.01046568 0.04870849
v 0.0208711 -0.01055383 0.04875099
v 0.0208711 -0.01018601 0.04936659
v 0.02025306 -0.01000076 0.04944837
v 0.0208711 -0.01007729 0.0495094
v 0.0208711 -0.009443938 0.05014276
v 0.02025306 -0.009382903 0.05006623
v 0.0208711 -0.009301126 0.05025154
v 0.02025306 -0.008643031 0.05053114
v 0.0208711 -0.007840037 0.05091518
v 0.02025306 -0.007818281 0.05081975
v 0.0208711 -0.008186042 0.05081969
v 0.0208711 -0.008685529 0.05061936
v 0.01945692 -0.01036417 0.04701542
v 0.01969552 -0.01056802 0.04701548
v 0.01969558 -0.0104773 0.04782056
v 0.02010577 -0.01079773 0.04701542
v 0.0208711 -0.006949961 0.05101543
v 0.02025306 -0.006949961 0.05091756
v 0.02010577 -0.006949961 0.0508632
v 0.01969558 -0.007755041 0.05054277
v 0.01969552 -0.008519768 0.0502752
v 0.01969552 -0.009205758 0.04984414
v 0.01969552 -0.009778678 0.04927128
v 0.01969558 -0.01020973 0.04858523
v 0.01925307 -0.01012551 0.04701548
v 0.01925307 -0.01004594 0.0477221
v 0.01925307 -0.009811043 0.0483933
v 0.01925307 -0.009432733 0.04899537
v 0.01925307 -0.008929908 0.0494982
v 0.01925307 -0.008327782 0.04987657
v 0.01925307 -0.007656574 0.05011141
v 0.01969558 -0.006949961 0.05063349
v 0.01945692 -0.006949961 0.05042964
v 0.01925307 -0.006949961 0.05019104
v 0.01902335 -0.006949961 0.04978084
v 0.01896899 -0.009308755 0.04815137
v 0.01896899 -0.008996844 0.04864776
v 0.01896899 -0.008582293 0.04906231
v 0.01896899 -0.008085906 0.04937422
v 0.01896899 -0.007532536 0.04956787
v 0.01896899 -0.006949961 0.0496335
v 0.01887112 -0.008899807 0.04746049
v 0.01887112 -0.008751928 0.04788321
v 0.01887112 -0.008513629 0.04826241
v 0.01887112 -0.008196949 0.04857915
v 0.01887112 -0.007817745 0.04881739
v 0.01887112 -0.007395029 0.04896533
v 0.01887112 -0.006949961 0.04901546
v 0.0208711 -0.01094996 0.01501548
v 0.02053749 -0.01092195 0.01468181
v 0.02011048 -0.0107997 0.01425486
v 0.01987463 -0.01068407 0.01401901
v 0.01946318 -0.01037043 0.0136075
v 0.01932132 -0.01021414 0.01346564
v 0.0189805 -0.009602308 0.01312482
v 0.01887112 -0.008949995 0.01301544
v 0.01887112 0.007049977 0.04901546
v 0.01896899 0.007049977 0.0496335
v 0.01902335 0.007049977 0.04978084
v 0.01925307 0.007049977 0.05019104
v 0.01945692 0.007049977 0.05042964
v 0.01969558 0.007049977 0.05063349
v 0.02010577 0.007049977 0.0508632
v 0.02025306 0.007049977 0.05091756
v 0.0208711 0.007049977 0.05101543
v 0.02025306 0.007918298 0.05081975
v 0.0208711 0.007940053 0.05091518
v 0.0208711 0.008286058 0.05081969
v 0.02025306 0.008743047 0.05053114
v 0.0208711 0.008785486 0.05061936
v 0.0208711 0.009401082 0.05025154
v 0.02025306 0.00948292 0.05006623
v 0.0208711 0.009543955 0.05014276
v 0.0208711 0.01017731 0.0495094
v 0.02025306 0.01010078 0.04944837
v 0.0208711 0.01028603 0.04936659
v 0.02025306 0.01056563 0.04870849
v 0.0208711 0.01094967 0.04790556
v 0.02025306 0.01085424 0.04788374
v 0.0208711 0.01085418 0.0482515
v 0.0208711 0.01065385 0.04875099
v 0.01969558 0.007855057 0.05054277
v 0.01969552 0.008619785 0.0502752
v 0.01969552 0.009305775 0.04984414
v 0.01969552 0.009878635 0.04927128
v 0.01969558 0.01030969 0.04858523
v 0.01969558 0.01057732 0.04782056
v 0.01925307 0.00775659 0.05011141
v 0.0208711 0.01104998 0.04701548
v 0.02025306 0.01095211 0.04701548
v 0.01969552 0.01066797 0.04701548
v 0.01945692 0.01046419 0.04701542
v 0.01925307 0.008427798 0.04987657
v 0.01925307 0.009029924 0.0494982
v 0.01925307 0.009532749 0.04899537
v 0.01925307 0.00991106 0.0483933
v 0.01925307 0.0101459 0.0477221
v 0.01925307 0.01022553 0.04701548
v 0.01896899 0.007632553 0.04956787
v 0.01896899 0.008185923 0.04937422
v 0.01896899 0.00868231 0.04906231
v 0.01896899 0.00909686 0.04864776
v 0.01896899 0.009408712 0.04815137
v 0.01896899 0.009602367 0.047598
v 0.01896899 0.009667992 0.04701548
v 0.01887112 0.007494986 0.04896533
v 0.01887112 0.007917761 0.04881739
v 0.01887112 0.008296966 0.04857915
v 0.01887112 0.008613646 0.04826241
v 0.01887112 0.008851885 0.04788321
v 0.01887112 0.008999824 0.04746049
v 0.01887112 0.009049952 0.04701548
v 0.01887112 0.009049952 0.01301544
v 0.01888447 0.009280622 0.0130288
v 0.01907044 0.009920358 0.01321476
v 0.01945692 0.01046419 0.01360124
v 0.02010518 0.01089751 0.0142495
v 0.0208711 0.01104998 0.01501548
v 0.01887112 0.008645713 0.031502
v 0.01887112 0.008649945 0.03151547
v 0.01887112 0.008649945 0.01301544
v 0.0183711 0.008149981 0.01301544
v 0.0183711 0.008149981 0.02894318
v 0.01862114 0.008216977 0.01301544
v 0.01862478 0.008219122 0.02992671
v 0.01880413 0.008399963 0.01301544
v 0.01864153 0.008229374 0.03001773
v 0.01869636 0.008270204 0.03020507
v 0.01877599 0.008356571 0.03054481
v 0.01880431 0.008400321 0.03070086
v 0.01882576 0.008441865 0.03084349
v 0.01872652 -0.008198261 0.03032171
v 0.01864153 -0.008129417 0.03001773
v 0.01872467 -0.008196413 0.01301544
v 0.01857095 -0.008091628 0.02967923
v 0.01856243 -0.008088052 0.01301544
v 0.0183711 -0.008049964 0.02894318
v 0.0183711 -0.008049964 0.01301544
v 0.0187909 -0.00827831 0.03062331
v 0.01883304 -0.008358657 0.01301544
v 0.01884144 -0.008380353 0.0309717
v 0.01887112 -0.008545696 0.031502
v 0.01887112 -0.008549988 0.01301544
v 0.01887112 -0.008549988 0.03151547
v 0.0157212 -0.007249951 0.02682185
v 0.01611125 -0.008049964 0.02612334
v 0.01630872 -0.007306158 0.02714991
v 0.0170812 -0.008049964 0.02683818
v 0.01784259 -0.008049964 0.027772
v 0.01736837 -0.007559001 0.02794206
v 0.01661038 -0.007367253 0.0273326
v 0.01818317 -0.007858097 0.02898448
v 0.0178259 -0.007710278 0.02845609
v 0.01744598 -0.007582366 0.02801966
v 0.01834744 -0.008049964 0.02886605
v 0.01844072 -0.007992446 0.02948594
v 0.008663475 -0.007249951 0.02288103
v 0.009053528 -0.008049964 0.02218252
v 0.007603824 -0.007249951 0.02208882
v 0.008163392 -0.008049964 0.02151709
v 0.006789028 -0.007249951 0.02104645
v 0.007478952 -0.008049964 0.0206415
v 0.00627619 -0.007249951 0.01982688
v 0.00704813 -0.008049964 0.01961702
v 0.006101131 -0.007249951 0.01851546
v 0.006901085 -0.008049964 0.01851546
v 0.01611125 0.008149981 0.02612334
v 0.0157212 0.007349967 0.02682185
v 0.01630872 0.007406175 0.02714991
v 0.0170812 0.008149981 0.02683818
v 0.01661038 0.007467269 0.0273326
v 0.01736837 0.007659018 0.02794206
v 0.01784259 0.008149981 0.027772
v 0.01782417 0.007809638 0.02845388
v 0.01834744 0.008149981 0.02886605
v 0.01814991 0.007942795 0.02892857
v 0.01844096 0.008092641 0.02948659
v 0.008663475 0.007349967 0.02288103
v 0.009053528 0.008149981 0.02218252
v 0.006901085 0.008149981 0.01851546
v 0.006101131 0.007349967 0.01851546
v 0.00627619 0.007349967 0.01982688
v 0.00704813 0.008149981 0.01961702
v 0.006789028 0.007349967 0.02104645
v 0.007478952 0.008149981 0.0206415
v 0.007603824 0.007349967 0.02208882
v 0.008163392 0.008149981 0.02151709
v 0.01576614 0.001143872 0.02684694
v 0.01568013 0.001442849 0.0267989
v 0.008663475 0.003621459 0.02288103
v 0.008756637 0.003690958 0.022933
v 0.01504135 0.002695441 0.02644222
v 0.01505911 0.002670824 0.02645218
v 0.01540678 0.002100527 0.02664625
v 0.01278913 0.004330575 0.02518469
v 0.01339244 0.004085421 0.02552151
v 0.01404386 0.003692209 0.02588528
v 0.01426488 0.003521144 0.02600866
v 0.00913769 0.00393933 0.02314579
v 0.01001131 0.004329979 0.02363359
v 0.01010084 0.004357993 0.0236836
v 0.01117676 0.004544377 0.02428436
v 0.01140087 0.00454998 0.02440947
v 0.01230263 0.004458725 0.02491301
v 0.008173584 0.003185689 0.02256876
v 0.007760167 0.002694487 0.02223539
v 0.006959021 0.000769484 0.02131599
v 0.007121384 0.001440525 0.02154225
v 0.007332503 0.001972556 0.02180141
v 0.007603824 0.002464652 0.02208882
v 0.0252586 0.009049952 0.01301544
v 0.0252586 0.009815335 0.01316767
v 0.0252586 0.01046419 0.01360124
v 0.0252586 0.01104998 0.01501548
v 0.0252586 0.01104998 0.04701548
v 0.0252586 0.007049977 0.05101543
v 0.0252586 0.01085418 0.0482515
v 0.0252586 0.01028603 0.04936659
v 0.0252586 0.009401082 0.05025154
v 0.0252586 0.008286058 0.05081969
v 0.0252586 -0.01075422 0.0482515
v 0.0252586 -0.01094996 0.04701548
v 0.0252586 -0.006949961 0.05101543
v 0.0252586 -0.008949995 0.01301544
v 0.0252586 0.01089775 0.01425009
v 0.0252586 -0.008186042 0.05081969
v 0.0252586 -0.009301126 0.05025154
v 0.0252586 -0.01018601 0.04936659
v 0.0252586 -0.01036417 0.01360124
v 0.0252586 -0.009715318 0.01316767
v 0.0252586 -0.01079773 0.01425009
v 0.0252586 -0.01094996 0.01501548
f 1 2 3
f 3 4 5
f 5 4 6
f 5 6 7
f 7 6 8
f 7 8 9
f 9 8 10
f 9 10 11
f 3 5 1
f 1 5 7
f 1 7 12
f 12 7 9
f 12 9 13
f 13 9 11
f 13 11 14
f 6 15 16
f 6 16 8
f 8 16 17
f 8 17 10
f 17 18 10
f 10 18 19
f 10 19 11
f 11 19 20
f 11 20 14
f 14 20 21
f 14 21 22
f 21 23 22
f 22 23 24
f 22 24 25
f 24 26 25
f 25 26 27
f 25 27 28
f 27 29 28
f 28 29 30
f 28 30 31
f 30 29 32
f 32 29 33
f 29 27 33
f 33 27 26
f 33 26 34
f 26 24 34
f 34 24 23
f 34 23 35
f 23 21 35
f 35 21 20
f 35 20 36
f 20 19 36
f 36 19 18
f 36 18 37
f 15 38 16
f 16 38 37
f 16 37 17
f 17 37 18
f 39 40 41
f 42 43 44
f 39 41 45
f 45 41 46
f 45 46 47
f 47 46 48
f 47 48 49
f 49 50 47
f 47 50 51
f 47 51 45
f 45 51 42
f 45 42 39
f 39 42 44
f 39 44 40
f 41 52 53
f 41 53 46
f 46 53 54
f 46 54 48
f 48 54 55
f 48 55 49
f 49 55 56
f 49 56 57
f 57 56 58
f 57 58 59
f 59 58 60
f 59 60 61
f 62 60 58
f 62 58 63
f 63 58 56
f 63 56 64
f 64 56 55
f 64 55 65
f 65 55 54
f 65 54 66
f 66 54 53
f 66 53 67
f 67 53 52
f 67 52 68
f 84 103 82
f 82 103 104
f 82 104 80
f 105 106 107
f 107 106 108
f 107 108 109
f 109 108 110
f 109 110 111
f 112 113 114
f 114 113 115
f 114 115 105
f 105 115 116
f 105 116 106
f 104 117 80
f 80 117 118
f 80 118 78
f 78 118 119
f 78 119 76
f 76 119 120
f 76 120 74
f 110 121 111
f 111 121 122
f 111 122 123
f 123 122 124
f 123 124 86
f 86 124 125
f 86 125 84
f 84 125 126
f 84 126 103
f 120 127 74
f 74 127 128
f 74 128 72
f 72 128 129
f 72 129 69
f 69 129 130
f 69 130 112
f 112 130 131
f 112 131 113
f 130 132 133
f 130 133 131
f 131 133 134
f 131 134 113
f 113 134 135
f 113 135 115
f 115 135 136
f 115 136 116
f 116 136 137
f 116 137 106
f 106 137 138
f 106 138 108
f 108 138 139
f 108 139 110
f 110 139 140
f 110 140 121
f 121 140 141
f 121 141 122
f 122 141 142
f 122 142 124
f 124 142 143
f 124 143 125
f 144 145 146
f 146 145 147
f 146 147 148
f 148 147 149
f 148 149 150
f 150 149 151
f 150 151 152
f 152 151 153
f 152 153 154
f 154 153 155
f 154 155 156
f 156 155 157
f 156 157 158
f 159 160 161
f 159 161 162
f 162 161 163
f 162 163 164
f 164 163 165
f 164 165 166
f 166 165 167
f 166 167 168
f 168 167 169
f 168 169 170
f 170 169 171
f 170 171 172
f 172 171 173
f 172 173 174
f 174 173 175
f 174 175 176
f 176 175 177
f 176 177 178
f 178 177 179
f 178 179 180
f 180 179 181
f 181 179 182
f 181 182 183
f 184 185 186
f 186 185 187
f 186 187 188
f 188 187 189
f 188 189 190
f 190 189 191
f 190 191 192
f 192 191 193
f 192 193 194
f 194 193 195
f 194 195 196
f 196 195 183
f 196 183 182
f 197 172 198
f 198 172 174
f 198 174 199
f 200 164 201
f 201 164 166
f 201 166 202
f 202 166 168
f 202 168 197
f 197 168 170
f 197 170 172
f 203 204 205
f 205 204 206
f 205 206 207
f 207 206 159
f 207 159 200
f 200 159 162
f 200 162 164
f 208 209 210
f 210 209 211
f 210 211 212
f 212 211 213
f 212 213 214
f 174 176 199
f 199 176 178
f 199 178 215
f 215 178 180
f 215 180 216
f 216 180 181
f 216 181 208
f 208 181 217
f 208 217 209
f 213 218 214
f 214 218 219
f 214 219 220
f 220 219 221
f 220 221 203
f 203 221 222
f 203 222 204
f 365 366 367
f 368 369 370
f 371 372 373
f 373 372 368
f 368 370 373
f 373 370 374
f 373 374 375
f 375 374 376
f 375 376 377
f 376 378 377
f 377 378 379
f 377 379 380
f 380 379 381
f 380 381 382
f 383 384 385
f 385 384 386
f 385 386 387
f 387 386 388
f 387 388 389
f 389 388 382
f 389 382 390
f 390 382 381
f 391 392 393
f 393 392 394
f 393 394 395
f 392 396 394
f 394 396 397
f 394 397 398
f 399 371 400
f 400 371 373
f 400 373 401
f 401 373 375
f 401 375 402
f 402 375 377
f 402 377 403
f 403 377 380
f 403 380 404
f 404 380 382
f 404 382 405
f 405 382 388
f 405 388 406
f 406 388 386
f 406 386 407
f 407 386 384
f 407 384 408
f 398 409 394
f 394 409 410
f 394 410 395
f 395 410 411
f 395 411 412
f 413 399 414
f 414 399 400
f 414 400 415
f 415 400 401
f 415 401 416
f 416 401 402
f 416 402 417
f 417 402 403
f 417 403 418
f 418 403 404
f 418 404 419
f 419 404 405
f 419 405 420
f 420 405 406
f 420 406 421
f 421 406 407
f 421 407 422
f 422 407 408
f 422 408 367
f 383 391 384
f 384 391 393
f 384 393 408
f 408 393 395
f 408 395 367
f 367 395 412
f 367 412 365
f 423 419 424
f 424 419 420
f 424 420 425
f 425 420 421
f 425 421 426
f 426 421 422
f 426 422 427
f 427 422 367
f 427 367 428
f 428 367 366
f 428 366 429
f 429 366 430
f 429 430 431
f 431 430 432
f 431 432 433
f 433 432 434
f 433 434 435
f 435 434 436
f 435 436 437
f 436 438 437
f 437 438 439
f 437 439 440
f 440 439 441
f 440 441 442
f 442 441 443
f 442 443 444
f 444 443 445
f 444 445 446
f 446 445 447
f 446 447 448
f 448 447 413
f 448 413 449
f 449 413 414
f 449 414 450
f 450 414 415
f 450 415 451
f 451 415 416
f 451 416 452
f 452 416 417
f 452 417 423
f 423 417 418
f 423 418 419
f 369 472 473
f 473 472 474
f 472 475 474
f 474 475 476
f 474 476 477
f 476 478 477
f 477 478 479
f 477 479 480
f 479 481 480
f 480 481 482
f 480 482 483
f 482 484 483
f 483 484 485
f 483 485 486
f 485 487 486
f 486 487 488
f 486 488 489
f 488 490 489
f 489 490 491
f 489 491 492
f 398 493 494
f 494 493 492
f 494 492 495
f 495 492 491
f 496 497 498
f 496 498 499
f 499 498 500
f 499 500 501
f 501 500 502
f 501 502 503
f 503 502 504
f 503 504 505
f 506 507 508
f 506 508 509
f 509 508 510
f 509 510 511
f 511 510 512
f 511 512 513
f 513 512 514
f 513 514 515
f 514 516 515
f 515 516 517
f 518 519 520
f 520 519 521
f 520 521 496
f 496 521 497
f 517 516 522
f 517 522 523
f 523 522 524
f 523 524 525
f 525 524 526
f 525 526 527
f 527 526 528
f 527 528 529
f 529 528 530
f 529 530 531
f 531 530 532
f 531 532 533
f 533 532 534
f 533 534 535
f 535 534 536
f 535 536 537
f 537 536 538
f 537 538 539
f 539 538 540
f 539 540 541
f 541 540 542
f 541 542 543
f 543 542 544
f 543 544 545
f 545 544 546
f 545 546 547
f 547 546 548
f 547 548 549
f 549 548 550
f 549 550 551
f 551 550 552
f 551 552 553
f 553 552 554
f 553 554 555
f 555 554 556
f 555 556 557
f 557 556 558
f 557 558 559
f 559 558 560
f 559 560 561
f 561 560 562
f 561 562 563
f 562 564 563
f 563 564 519
f 563 519 518
f 565 566 567
f 565 567 568
f 568 567 569
f 568 569 570
f 570 569 571
f 570 571 572
f 572 571 573
f 572 573 574
f 574 573 575
f 574 575 576
f 576 575 577
f 576 577 578
f 578 577 579
f 578 579 580
f 580 579 581
f 580 581 582
f 582 581 583
f 582 583 584
f 584 583 585
f 584 585 586
f 586 585 587
f 586 587 588
f 569 567 589
f 589 567 566
f 589 566 590
f 589 591 569
f 569 591 592
f 569 592 571
f 571 592 593
f 571 593 573
f 573 593 594
f 573 594 575
f 575 594 595
f 575 595 577
f 577 595 596
f 577 596 579
f 579 596 597
f 579 597 581
f 581 597 598
f 581 598 583
f 583 598 599
f 583 599 585
f 585 599 600
f 585 600 587
f 587 600 601
f 587 601 602
f 602 601 603
f 602 603 604
f 605 574 606
f 606 574 576
f 606 576 607
f 607 576 578
f 607 578 608
f 578 580 608
f 608 580 582
f 608 582 609
f 609 582 584
f 609 584 610
f 610 584 586
f 610 586 611
f 612 568 613
f 613 568 570
f 613 570 605
f 605 570 572
f 605 572 574
f 614 615 616
f 616 615 617
f 616 617 618
f 618 617 619
f 618 619 612
f 612 619 565
f 612 565 568
f 620 621 622
f 622 621 623
f 622 623 624
f 624 623 625
f 624 625 614
f 614 625 626
f 614 626 615
f 586 588 611
f 611 588 627
f 611 627 628
f 628 627 629
f 628 629 620
f 620 629 630
f 620 630 621
f 656 657 658
f 658 657 659
f 658 659 660
f 660 659 661
f 660 661 662
f 662 661 663
f 662 663 664
f 664 663 665
f 664 665 666
f 666 665 667
f 666 667 668
f 668 667 669
f 668 669 670
f 670 669 671
f 670 671 672
f 672 671 673
f 672 673 674
f 674 673 675
f 674 675 676
f 676 675 677
f 676 677 678
f 678 677 679
f 678 679 680
f 680 679 681
f 680 681 682
f 682 681 683
f 682 683 684
f 685 669 667
f 685 667 686
f 686 667 665
f 686 665 687
f 687 665 663
f 687 663 688
f 688 663 661
f 688 661 689
f 689 661 659
f 689 659 690
f 690 659 657
f 690 657 691
f 691 657 656
f 691 656 692
f 656 693 692
f 692 693 694
f 692 694 695
f 695 694 696
f 695 696 697
f 697 696 698
f 697 698 699
f 699 698 700
f 699 700 701
f 702 691 703
f 703 691 692
f 703 692 704
f 704 692 695
f 704 695 705
f 706 687 707
f 707 687 688
f 707 688 708
f 708 688 689
f 708 689 702
f 702 689 690
f 702 690 691
f 709 710 711
f 711 710 685
f 711 685 706
f 706 685 686
f 706 686 687
f 712 713 714
f 714 713 715
f 714 715 716
f 716 715 717
f 716 717 709
f 709 717 718
f 709 718 710
f 695 697 705
f 705 697 699
f 705 699 719
f 719 699 701
f 719 701 720
f 701 721 720
f 720 721 722
f 720 722 723
f 723 722 724
f 723 724 725
f 725 724 726
f 725 726 712
f 712 726 727
f 712 727 713
f 753 754 182
f 182 754 755
f 182 755 196
f 196 755 756
f 196 756 194
f 194 756 757
f 194 757 192
f 192 757 758
f 192 758 190
f 190 758 759
f 190 759 188
f 188 759 760
f 188 760 186
f 761 682 684
f 761 684 760
f 760 684 184
f 760 184 186
f 682 761 762
f 682 762 680
f 680 762 763
f 680 763 678
f 764 765 766
f 766 765 656
f 766 656 658
f 767 768 769
f 769 768 770
f 769 770 771
f 771 770 772
f 771 772 773
f 773 772 774
f 773 774 775
f 775 774 776
f 775 776 764
f 764 776 765
f 777 778 779
f 779 778 144
f 779 144 146
f 156 780 781
f 156 781 154
f 154 781 782
f 154 782 152
f 152 782 783
f 152 783 150
f 150 783 784
f 150 784 148
f 148 784 779
f 148 779 146
f 780 156 158
f 780 158 785
f 785 158 604
f 785 604 603
f 589 786 787
f 589 787 591
f 591 787 788
f 591 788 592
f 788 789 592
f 592 789 790
f 592 790 593
f 790 791 593
f 593 791 792
f 593 792 594
f 792 793 594
f 594 793 794
f 594 794 595
f 794 795 595
f 595 795 796
f 595 796 596
f 796 797 596
f 596 797 798
f 596 798 597
f 798 799 597
f 597 799 800
f 597 800 598
f 800 801 598
f 598 801 802
f 598 802 599
f 802 803 599
f 599 803 804
f 599 804 600
f 804 805 600
f 600 805 806
f 600 806 601
f 806 807 601
f 601 807 785
f 601 785 603
f 808 809 590
f 590 809 786
f 590 786 589
f 809 808 810
f 810 808 811
f 810 811 812
f 812 811 813
f 812 813 814
f 814 813 815
f 814 815 816
f 816 815 817
f 816 817 818
f 818 817 819
f 504 820 505
f 505 820 821
f 497 521 822
f 504 502 820
f 820 502 500
f 820 500 822
f 822 500 498
f 822 498 497
f 503 505 821
f 520 496 823
f 823 496 499
f 823 499 821
f 821 499 501
f 821 501 503
f 134 133 778
f 778 133 132
f 778 132 144
f 142 141 824
f 811 808 141
f 604 158 825
f 826 827 828
f 138 819 139
f 139 819 817
f 139 817 140
f 140 817 815
f 140 815 141
f 141 815 813
f 141 813 811
f 138 137 819
f 819 137 136
f 819 136 778
f 778 136 135
f 778 135 134
f 590 829 808
f 808 829 830
f 808 830 141
f 141 830 831
f 141 831 824
f 142 824 143
f 143 824 832
f 143 832 826
f 826 832 833
f 826 833 827
f 825 834 604
f 604 834 826
f 604 826 835
f 835 826 828
f 515 517 761
f 516 514 785
f 785 514 836
f 515 761 837
f 837 761 760
f 837 760 836
f 836 760 780
f 836 780 785
f 755 779 784
f 755 784 756
f 756 784 783
f 756 783 757
f 757 783 782
f 757 782 758
f 758 782 781
f 758 781 759
f 759 781 780
f 759 780 760
f 779 755 777
f 777 755 754
f 68 754 67
f 67 754 753
f 67 753 66
f 66 753 768
f 66 768 65
f 754 37 777
f 777 37 38
f 777 38 778
f 778 38 838
f 839 840 841
f 841 840 754
f 841 754 842
f 842 754 68
f 34 477 33
f 33 477 480
f 33 480 818
f 818 480 483
f 818 483 767
f 767 483 486
f 843 819 844
f 844 819 778
f 844 778 845
f 845 778 838
f 843 846 819
f 819 846 847
f 819 847 818
f 818 847 32
f 818 32 33
f 840 848 754
f 754 848 849
f 754 849 37
f 37 849 850
f 37 850 36
f 36 850 851
f 36 851 35
f 35 851 473
f 35 473 34
f 34 473 474
f 34 474 477
f 839 841 852
f 852 841 853
f 852 853 493
f 493 853 854
f 493 854 492
f 492 854 855
f 492 855 489
f 489 855 856
f 489 856 486
f 486 856 62
f 486 62 767
f 767 62 63
f 767 63 768
f 768 63 64
f 768 64 65
f 521 809 822
f 822 809 810
f 822 810 820
f 820 810 812
f 820 812 821
f 764 520 775
f 775 520 823
f 775 823 773
f 823 821 773
f 773 821 812
f 773 812 771
f 771 812 814
f 771 814 769
f 769 814 816
f 769 816 767
f 767 816 818
f 809 521 786
f 786 521 519
f 522 516 807
f 807 516 785
f 522 807 524
f 524 807 806
f 524 806 526
f 761 517 523
f 761 523 762
f 762 523 525
f 762 525 763
f 766 518 764
f 764 518 520
f 837 836 506
f 506 836 507
f 836 514 512
f 512 510 836
f 836 510 508
f 836 508 507
f 513 515 837
f 506 509 837
f 837 509 511
f 837 511 513
f 182 179 753
f 753 179 177
f 753 177 175
f 857 858 684
f 684 858 859
f 684 859 184
f 700 698 160
f 160 698 696
f 160 696 161
f 161 696 776
f 776 696 694
f 776 694 765
f 765 694 693
f 765 693 656
f 175 173 753
f 753 173 171
f 753 171 768
f 768 171 169
f 776 774 161
f 161 774 772
f 161 772 163
f 163 772 770
f 163 770 165
f 165 770 768
f 165 768 167
f 167 768 169
f 857 860 858
f 858 860 861
f 858 861 862
f 862 861 700
f 862 700 863
f 863 700 160
f 525 527 763
f 763 527 864
f 527 529 864
f 864 529 531
f 864 531 865
f 531 533 865
f 865 533 535
f 865 535 866
f 535 537 866
f 866 537 539
f 866 539 867
f 539 541 867
f 867 541 543
f 867 543 868
f 543 545 868
f 868 545 547
f 868 547 869
f 547 549 869
f 869 549 551
f 869 551 870
f 551 553 870
f 870 553 555
f 870 555 871
f 555 557 871
f 871 557 559
f 871 559 872
f 518 766 563
f 563 766 872
f 563 872 561
f 561 872 559
f 786 519 787
f 787 519 564
f 787 564 788
f 788 564 562
f 788 562 789
f 789 562 560
f 789 560 790
f 790 560 558
f 790 558 791
f 791 558 556
f 791 556 792
f 792 556 554
f 792 554 793
f 793 554 552
f 793 552 794
f 794 552 550
f 794 550 795
f 795 550 548
f 795 548 796
f 796 548 546
f 796 546 797
f 797 546 544
f 797 544 798
f 798 544 542
f 798 542 799
f 799 542 540
f 799 540 800
f 800 540 538
f 800 538 801
f 801 538 536
f 801 536 802
f 802 536 534
f 802 534 803
f 803 534 532
f 803 532 804
f 804 532 530
f 804 530 805
f 805 530 528
f 805 528 806
f 806 528 526
f 678 763 864
f 678 864 676
f 676 864 865
f 676 865 674
f 674 865 866
f 674 866 672
f 672 866 867
f 672 867 670
f 670 867 868
f 670 868 668
f 668 868 869
f 668 869 666
f 666 869 870
f 666 870 664
f 664 870 871
f 664 871 662
f 662 871 872
f 662 872 660
f 660 872 766
f 660 766 658
f 701 700 861
f 701 861 721
f 721 861 860
f 721 860 722
f 722 860 857
f 722 857 724
f 724 857 684
f 724 684 726
f 684 683 726
f 726 683 681
f 726 681 727
f 727 681 679
f 727 679 713
f 713 679 677
f 713 677 715
f 715 677 675
f 715 675 717
f 717 675 673
f 717 673 718
f 718 673 671
f 718 671 710
f 710 671 669
f 710 669 685
f 588 587 602
f 588 602 627
f 627 602 604
f 627 604 629
f 604 835 629
f 629 835 828
f 629 828 630
f 630 828 827
f 630 827 621
f 621 827 833
f 621 833 623
f 623 833 832
f 623 832 625
f 625 832 824
f 625 824 626
f 626 824 831
f 626 831 615
f 615 831 830
f 615 830 617
f 617 830 829
f 617 829 619
f 619 829 565
f 565 829 590
f 565 590 566
f 398 397 493
f 493 397 852
f 397 396 852
f 852 396 392
f 852 392 839
f 392 391 839
f 839 391 383
f 839 383 840
f 383 385 840
f 840 385 387
f 840 387 848
f 387 389 848
f 848 389 390
f 848 390 849
f 390 381 849
f 849 381 379
f 849 379 850
f 379 378 850
f 850 378 376
f 850 376 851
f 369 473 370
f 370 473 851
f 370 851 374
f 374 851 376
f 412 411 906
f 472 369 368
f 410 409 907
f 907 409 398
f 398 494 907
f 907 494 495
f 907 495 908
f 908 495 491
f 908 491 909
f 491 490 909
f 909 490 488
f 909 488 910
f 910 488 487
f 910 487 911
f 487 485 911
f 911 485 484
f 911 484 912
f 912 484 482
f 912 482 913
f 913 482 481
f 913 481 914
f 475 915 916
f 481 479 914
f 914 479 478
f 914 478 916
f 916 478 476
f 916 476 475
f 915 917 916
f 916 917 918
f 916 918 914
f 914 918 919
f 914 919 913
f 913 919 920
f 913 920 912
f 912 920 921
f 912 921 911
f 911 921 922
f 911 922 910
f 910 922 923
f 910 923 909
f 909 923 924
f 909 924 908
f 908 924 925
f 908 925 907
f 907 925 906
f 907 906 410
f 410 906 411
f 475 472 915
f 915 472 368
f 915 368 917
f 917 368 372
f 917 372 371
f 371 399 917
f 917 399 926
f 917 926 918
f 918 926 927
f 918 927 919
f 919 927 928
f 919 928 920
f 920 928 929
f 920 929 921
f 921 929 930
f 921 930 922
f 922 930 931
f 922 931 923
f 923 931 932
f 923 932 924
f 924 932 933
f 924 933 925
f 925 933 934
f 925 934 906
f 906 934 935
f 906 935 412
f 412 935 365
f 399 413 926
f 926 413 447
f 926 447 927
f 927 447 445
f 927 445 928
f 928 445 443
f 928 443 929
f 929 443 441
f 929 441 930
f 930 441 439
f 930 439 931
f 931 439 438
f 931 438 932
f 932 438 436
f 932 436 933
f 933 436 434
f 933 434 934
f 934 434 432
f 934 432 935
f 935 432 430
f 935 430 365
f 365 430 366
f 181 183 195
f 181 195 217
f 217 195 193
f 217 193 209
f 209 193 191
f 209 191 211
f 211 191 189
f 211 189 213
f 213 189 187
f 213 187 218
f 218 187 185
f 218 185 219
f 219 185 184
f 219 184 221
f 184 859 221
f 221 859 858
f 221 858 222
f 222 858 862
f 222 862 204
f 204 862 863
f 204 863 206
f 206 863 160
f 206 160 159
f 125 143 826
f 125 826 126
f 126 826 834
f 126 834 103
f 103 834 825
f 103 825 104
f 104 825 158
f 104 158 117
f 132 130 144
f 144 130 129
f 144 129 145
f 145 129 128
f 145 128 147
f 147 128 127
f 147 127 149
f 149 127 120
f 149 120 151
f 151 120 119
f 151 119 153
f 153 119 118
f 153 118 155
f 155 118 117
f 155 117 157
f 157 117 158
f 68 52 988
f 68 988 842
f 842 988 989
f 842 989 841
f 841 989 990
f 841 990 853
f 990 991 853
f 853 991 992
f 853 992 854
f 992 993 854
f 854 993 994
f 854 994 855
f 994 995 855
f 855 995 996
f 855 996 856
f 856 996 60
f 856 60 62
f 61 60 996
f 61 996 997
f 997 996 995
f 997 995 998
f 995 994 998
f 998 994 993
f 998 993 43
f 993 992 43
f 43 992 991
f 43 991 44
f 991 990 44
f 44 990 989
f 44 989 40
f 989 988 40
f 40 988 52
f 40 52 41
f 999 998 43
f 998 999 997
f 997 999 1000
f 997 1000 61
f 61 1000 1001
f 61 1001 59
f 50 49 57
f 43 42 999
f 999 42 51
f 999 51 1000
f 1000 51 50
f 1000 50 1001
f 1001 50 57
f 1001 57 59
f 38 15 1002
f 38 1002 838
f 838 1002 1003
f 838 1003 845
f 845 1003 1004
f 845 1004 844
f 1004 1005 844
f 844 1005 1006
f 844 1006 843
f 1006 1007 843
f 843 1007 1008
f 843 1008 846
f 1008 1009 846
f 846 1009 1010
f 846 1010 847
f 847 1010 30
f 847 30 32
f 31 30 1010
f 31 1010 1011
f 1011 1010 1009
f 1011 1009 1012
f 1009 1008 1012
f 1012 1008 1007
f 1012 1007 2
f 1007 1006 2
f 2 1006 1005
f 2 1005 3
f 1005 1004 3
f 3 1004 1003
f 3 1003 4
f 1003 1002 4
f 4 1002 15
f 4 15 6
f 25 28 1013
f 1013 28 31
f 1013 31 1014
f 1014 31 1011
f 1014 1011 1015
f 1015 1011 1012
f 1015 1012 2
f 13 14 22
f 2 1 1015
f 1015 1 12
f 1015 12 1014
f 1014 12 13
f 1014 13 1013
f 1013 13 22
f 1013 22 25
f 1076 1077 1078
f 1079 1080 1081
f 1079 1081 1082
f 1082 1081 1083
f 1082 1083 1084
f 1083 1085 1084
f 1084 1085 1086
f 1084 1086 1087
f 1086 1088 1087
f 1087 1088 1089
f 1087 1089 1090
f 1090 1089 1091
f 1090 1091 1092
f 1093 1094 1095
f 1095 1094 1092
f 1095 1092 1096
f 1096 1092 1091
f 1097 1098 1099
f 1099 1098 1100
f 1093 1101 1094
f 1094 1101 1102
f 1094 1102 1103
f 1103 1104 1094
f 1094 1104 1105
f 1094 1105 1092
f 1092 1105 1106
f 1092 1106 1090
f 1090 1106 1107
f 1090 1107 1087
f 1087 1107 1108
f 1087 1108 1084
f 1084 1108 1099
f 1084 1099 1082
f 1082 1099 1100
f 1082 1100 1079
f 1077 1109 1110
f 1110 1109 1097
f 1097 1099 1110
f 1110 1099 1108
f 1110 1108 1111
f 1111 1108 1107
f 1111 1107 1112
f 1112 1107 1106
f 1112 1106 1113
f 1113 1106 1105
f 1113 1105 1114
f 1114 1105 1104
f 1114 1104 1115
f 1103 1116 1104
f 1104 1116 1117
f 1104 1117 1115
f 1115 1117 1118
f 1115 1118 1119
f 1077 1110 1078
f 1078 1110 1111
f 1078 1111 1120
f 1120 1111 1112
f 1120 1112 1121
f 1121 1112 1113
f 1121 1113 1122
f 1122 1113 1114
f 1122 1114 1123
f 1123 1114 1115
f 1123 1115 1124
f 1124 1115 1119
f 1124 1119 1125
f 1076 1078 1126
f 1126 1078 1120
f 1126 1120 1127
f 1127 1120 1121
f 1127 1121 1128
f 1128 1121 1122
f 1128 1122 1129
f 1129 1122 1123
f 1129 1123 1130
f 1130 1123 1124
f 1130 1124 1131
f 1131 1124 1125
f 1131 1125 1132
f 1133 1080 1134
f 1134 1080 1079
f 1134 1079 1135
f 1135 1079 1100
f 1135 1100 1136
f 1136 1100 1098
f 1136 1098 1137
f 1137 1098 1097
f 1137 1097 1138
f 1138 1097 1109
f 1138 1109 1139
f 1109 1077 1139
f 1139 1077 1076
f 1139 1076 1140
f 1141 1132 1142
f 1142 1132 1125
f 1142 1125 1143
f 1143 1125 1119
f 1143 1119 1144
f 1144 1119 1118
f 1144 1118 1145
f 1145 1118 1117
f 1145 1117 1146
f 1146 1117 1116
f 1146 1116 1147
f 1147 1116 1103
f 1147 1103 1148
f 1148 1103 1102
f 1148 1102 1149
f 1149 1102 1101
f 1147 1148 1150
f 1148 1149 1151
f 1148 1151 1150
f 1150 1151 1152
f 1150 1152 1153
f 1152 1154 1153
f 1153 1154 1155
f 1153 1155 1156
f 1155 1157 1156
f 1156 1157 1158
f 1156 1158 1159
f 1159 1158 1160
f 1159 1160 1161
f 1162 1163 1164
f 1164 1163 1161
f 1164 1161 1165
f 1165 1161 1160
f 1145 1146 1166
f 1166 1146 1147
f 1147 1150 1166
f 1166 1150 1153
f 1166 1153 1167
f 1167 1153 1156
f 1167 1156 1168
f 1168 1156 1159
f 1168 1159 1169
f 1169 1159 1161
f 1169 1161 1170
f 1170 1161 1163
f 1170 1163 1171
f 1143 1144 1172
f 1172 1144 1145
f 1162 1173 1163
f 1163 1173 1174
f 1163 1174 1171
f 1171 1174 1175
f 1171 1175 1176
f 1145 1166 1172
f 1172 1166 1167
f 1172 1167 1177
f 1177 1167 1168
f 1177 1168 1178
f 1178 1168 1169
f 1178 1169 1179
f 1179 1169 1170
f 1179 1170 1180
f 1180 1170 1171
f 1180 1171 1181
f 1181 1171 1176
f 1181 1176 1182
f 1141 1142 1183
f 1183 1142 1143
f 1143 1172 1183
f 1183 1172 1177
f 1183 1177 1184
f 1184 1177 1178
f 1184 1178 1185
f 1185 1178 1179
f 1185 1179 1186
f 1186 1179 1180
f 1186 1180 1187
f 1187 1180 1181
f 1187 1181 1188
f 1188 1181 1182
f 1188 1182 1189
f 1141 1183 1190
f 1190 1183 1184
f 1190 1184 1191
f 1191 1184 1185
f 1191 1185 1192
f 1192 1185 1186
f 1192 1186 1193
f 1193 1186 1187
f 1193 1187 1194
f 1194 1187 1188
f 1194 1188 1195
f 1195 1188 1189
f 1195 1189 1196
f 1197 1196 1198
f 1198 1196 1189
f 1198 1189 1199
f 1199 1189 1182
f 1199 1182 1200
f 1182 1176 1200
f 1200 1176 1175
f 1200 1175 1201
f 1175 1174 1201
f 1201 1174 1173
f 1201 1173 1202
f 1203 1204 1205
f 1206 1207 1208
f 1208 1207 1209
f 1208 1209 1210
f 1210 1209 1211
f 1210 1211 1212
f 1212 1213 1210
f 1210 1213 1214
f 1210 1214 1205
f 1205 1214 1215
f 1205 1215 1203
f 1216 1217 1218
f 1218 1217 1219
f 1218 1219 1220
f 1220 1219 1221
f 1220 1221 1222
f 1216 1218 1223
f 1223 1218 1224
f 1223 1224 1225
f 1225 1224 1226
f 1226 1224 1227
f 1226 1227 1228
f 1236 1239 1221
f 1236 1221 1240
f 1240 1221 1219
f 1240 1219 1217
f 1259 1260 1207
f 1207 1260 1261
f 1207 1261 1209
f 1209 1261 1211
f 1226 1228 1204
f 1217 1216 1261
f 1261 1216 1211
f 1260 1236 1261
f 1261 1236 1240
f 1261 1240 1217
f 1203 1215 1223
f 1215 1214 1223
f 1223 1214 1213
f 1223 1213 1216
f 1216 1213 1212
f 1216 1212 1211
f 1203 1223 1204
f 1204 1223 1225
f 1204 1225 1226
f 1206 1259 1207
f 1221 1239 1222
f 1228 1227 1140
f 1196 1197 1204
f 1204 1197 1205
f 1131 1132 1076
f 1191 1192 1196
f 1127 1128 1129
f 1127 1129 1126
f 1140 1076 1228
f 1228 1076 1132
f 1228 1132 1204
f 1204 1132 1141
f 1204 1141 1196
f 1196 1141 1190
f 1196 1190 1191
f 1192 1193 1196
f 1196 1193 1194
f 1196 1194 1195
f 1126 1129 1076
f 1076 1129 1130
f 1076 1130 1131
f 1295 1296 1297
f 1298 1299 1300
f 1300 1299 1301
f 1301 1302 1300
f 1300 1302 1303
f 1300 1303 1304
f 1305 1306 1307
f 1307 1306 1308
f 1307 1308 1300
f 1300 1308 1295
f 1300 1295 1298
f 1298 1295 1297
f 1298 1297 1309
f 1310 1311 1307
f 1307 1311 1312
f 1307 1312 1305
f 1313 1314 1315
f 1315 1314 1308
f 1315 1308 1316
f 1316 1308 1306
f 1101 1307 1149
f 1149 1307 1300
f 1173 1162 1299
f 1299 1162 1301
f 1160 1302 1165
f 1165 1302 1301
f 1165 1301 1164
f 1164 1301 1162
f 1160 1158 1302
f 1302 1158 1157
f 1302 1157 1303
f 1157 1155 1303
f 1303 1155 1154
f 1303 1154 1304
f 1149 1300 1151
f 1151 1300 1304
f 1151 1304 1152
f 1152 1304 1154
f 1173 1299 1202
f 1202 1299 1298
f 1202 1298 1309
f 1202 1309 1201
f 1201 1309 1297
f 1201 1297 1200
f 1200 1297 1296
f 1200 1296 1199
f 1199 1296 1198
f 1198 1296 1295
f 1198 1295 1197
f 1206 1208 1220
f 1295 1308 1208
f 1208 1210 1295
f 1295 1210 1205
f 1295 1205 1197
f 1140 1227 1308
f 1308 1227 1224
f 1308 1224 1208
f 1208 1224 1218
f 1208 1218 1220
f 819 818 767
f 1220 1222 1206
f 1206 1222 819
f 1206 819 768
f 768 819 767
f 1308 1314 1140
f 1140 1314 1139
f 1313 1137 1314
f 1314 1137 1138
f 1314 1138 1139
f 1315 1316 1133
f 1133 1134 1315
f 1315 1134 1135
f 1315 1135 1313
f 1313 1135 1136
f 1313 1136 1137
f 1133 1316 1080
f 1080 1316 1306
f 1101 1093 1307
f 1307 1093 1310
f 1093 1095 1310
f 1310 1095 1096
f 1310 1096 1311
f 1088 1312 1089
f 1089 1312 1311
f 1089 1311 1091
f 1091 1311 1096
f 1088 1086 1312
f 1312 1086 1085
f 1312 1085 1305
f 1080 1306 1081
f 1081 1306 1305
f 1081 1305 1083
f 1083 1305 1085
f 69 70 71
f 69 71 72
f 72 71 73
f 72 73 74
f 74 73 75
f 74 75 76
f 76 75 77
f 76 77 78
f 78 77 79
f 78 79 80
f 80 79 81
f 80 81 82
f 82 81 83
f 82 83 84
f 84 83 85
f 84 85 86
f 87 85 83
f 87 83 88
f 88 83 81
f 88 81 89
f 89 81 79
f 89 79 90
f 90 79 77
f 90 77 91
f 91 77 75
f 91 75 92
f 92 75 73
f 92 73 93
f 93 73 71
f 93 71 94
f 94 71 70
f 94 70 95
f 96 87 94
f 94 87 88
f 90 91 92
f 97 98 99
f 99 98 94
f 99 94 95
f 100 96 101
f 101 96 94
f 101 94 102
f 102 94 98
f 88 89 94
f 94 89 90
f 94 90 93
f 93 90 92
f 223 215 216
f 223 216 224
f 224 216 208
f 224 208 225
f 225 208 210
f 225 210 226
f 226 210 212
f 226 212 227
f 227 212 214
f 227 214 228
f 228 214 220
f 228 220 229
f 229 220 203
f 229 203 230
f 230 203 205
f 230 205 231
f 232 223 224
f 232 224 233
f 233 224 225
f 233 225 234
f 234 225 226
f 234 226 235
f 235 226 227
f 235 227 236
f 236 227 228
f 236 228 237
f 237 228 229
f 237 229 238
f 238 229 230
f 238 230 239
f 239 230 231
f 239 231 240
f 239 240 238
f 238 240 232
f 232 240 241
f 241 240 242
f 241 242 243
f 232 233 234
f 244 245 246
f 246 245 241
f 246 241 247
f 247 241 243
f 237 238 236
f 236 238 232
f 236 232 235
f 235 232 234
f 248 249 250
f 251 249 248
f 248 252 253
f 254 252 248
f 248 255 256
f 257 255 248
f 258 257 248
f 253 258 248
f 250 254 248
f 256 255 259
f 259 255 257
f 259 257 258
f 258 253 260
f 260 253 252
f 260 252 254
f 254 250 261
f 261 250 249
f 261 249 251
f 251 262 263
f 263 262 264
f 263 264 265
f 265 266 267
f 267 266 268
f 267 268 269
f 269 270 271
f 271 270 272
f 271 272 256
f 260 273 258
f 258 273 274
f 258 274 259
f 259 274 256
f 256 274 275
f 256 275 271
f 271 275 269
f 269 275 276
f 269 276 267
f 267 276 265
f 265 276 277
f 265 277 263
f 263 277 251
f 251 277 278
f 251 278 261
f 261 278 254
f 254 278 273
f 254 273 260
f 279 280 281
f 282 283 284
f 285 286 287
f 288 289 290
f 291 292 293
f 292 294 295
f 296 297 298
f 294 299 300
f 301 302 303
f 303 302 304
f 303 304 305
f 294 300 295
f 295 300 306
f 295 306 307
f 307 306 308
f 307 308 309
f 309 308 310
f 309 310 311
f 292 295 293
f 293 295 307
f 293 307 312
f 312 307 309
f 312 309 313
f 313 309 311
f 313 311 314
f 315 316 317
f 317 316 318
f 317 318 319
f 319 318 320
f 319 320 281
f 316 297 318
f 318 297 296
f 318 296 320
f 320 296 321
f 290 322 301
f 301 322 323
f 301 323 302
f 291 293 324
f 324 293 312
f 324 312 325
f 325 312 313
f 325 313 326
f 326 313 314
f 326 314 327
f 298 328 296
f 296 328 329
f 296 329 321
f 321 329 330
f 321 330 331
f 281 320 332
f 332 320 321
f 332 321 333
f 333 321 331
f 333 331 334
f 289 335 290
f 290 335 336
f 290 336 322
f 305 337 303
f 303 337 338
f 303 338 301
f 301 338 339
f 301 339 290
f 290 339 287
f 290 287 288
f 288 287 286
f 340 285 341
f 341 285 287
f 341 287 342
f 342 287 339
f 342 339 343
f 343 339 338
f 343 338 344
f 344 338 337
f 344 299 343
f 343 299 294
f 343 294 342
f 342 294 292
f 342 292 341
f 341 292 291
f 341 291 340
f 340 291 345
f 346 347 327
f 327 347 348
f 327 348 326
f 326 348 349
f 326 349 325
f 325 349 350
f 325 350 324
f 324 350 351
f 324 351 291
f 291 351 352
f 291 352 345
f 310 353 311
f 311 353 354
f 311 354 314
f 314 354 355
f 314 355 327
f 327 355 284
f 327 284 346
f 346 284 283
f 356 282 357
f 357 282 284
f 357 284 358
f 358 284 355
f 358 355 359
f 359 355 354
f 359 354 360
f 360 354 353
f 360 315 359
f 359 315 317
f 359 317 358
f 358 317 319
f 358 319 357
f 357 319 281
f 357 281 356
f 356 281 280
f 279 281 361
f 361 281 332
f 361 332 362
f 362 332 333
f 362 333 363
f 363 333 334
f 363 334 364
f 335 289 448
f 448 289 446
f 285 444 286
f 286 444 446
f 286 446 288
f 288 446 289
f 285 340 444
f 444 340 345
f 444 345 442
f 345 352 442
f 442 352 351
f 442 351 440
f 351 350 440
f 440 350 349
f 440 349 437
f 349 348 437
f 437 348 347
f 437 347 435
f 282 433 283
f 283 433 435
f 283 435 346
f 346 435 347
f 282 356 433
f 433 356 280
f 433 280 431
f 280 279 431
f 431 279 361
f 431 361 429
f 364 428 363
f 363 428 429
f 363 429 362
f 362 429 361
f 306 300 276
f 276 300 277
f 277 300 299
f 277 299 344
f 353 310 276
f 276 310 308
f 276 308 306
f 453 454 278
f 278 454 455
f 278 455 456
f 353 276 360
f 360 276 275
f 360 275 315
f 274 457 458
f 459 460 274
f 274 460 461
f 274 461 457
f 462 463 273
f 273 463 464
f 273 464 465
f 458 298 274
f 274 298 297
f 274 297 275
f 275 297 316
f 275 316 315
f 465 466 273
f 273 466 467
f 273 467 274
f 274 467 468
f 274 468 459
f 456 469 278
f 278 469 470
f 278 470 273
f 273 470 471
f 273 471 462
f 344 337 277
f 277 337 305
f 277 305 278
f 278 305 304
f 278 304 453
f 631 614 616
f 631 616 632
f 632 616 618
f 632 618 633
f 633 618 612
f 633 612 634
f 634 612 613
f 634 613 635
f 635 613 605
f 635 605 636
f 636 605 606
f 636 606 637
f 637 606 607
f 637 607 638
f 638 607 608
f 638 608 639
f 640 631 632
f 640 632 641
f 641 632 633
f 641 633 642
f 642 633 634
f 642 634 643
f 643 634 635
f 643 635 644
f 644 635 636
f 644 636 645
f 645 636 637
f 645 637 646
f 646 637 638
f 646 638 647
f 647 638 639
f 647 639 648
f 646 647 648
f 642 643 644
f 648 649 650
f 651 640 648
f 648 640 641
f 648 641 642
f 642 644 648
f 648 644 645
f 648 645 646
f 652 651 653
f 653 651 648
f 653 648 654
f 654 648 650
f 654 650 655
f 728 729 730
f 730 729 731
f 730 731 732
f 728 733 734
f 735 736 737
f 738 729 739
f 739 729 728
f 739 728 740
f 740 728 734
f 740 734 741
f 729 742 731
f 731 742 735
f 731 735 743
f 743 735 737
f 738 744 745
f 738 745 729
f 729 745 746
f 729 746 742
f 742 746 747
f 742 747 735
f 735 747 748
f 735 748 736
f 736 748 749
f 736 749 737
f 737 749 750
f 737 750 743
f 743 750 751
f 743 751 731
f 731 751 752
f 731 752 732
f 705 752 751
f 705 751 704
f 704 751 750
f 704 750 703
f 703 750 749
f 703 749 702
f 702 749 748
f 702 748 708
f 708 748 747
f 708 747 707
f 707 747 746
f 707 746 706
f 706 746 745
f 706 745 711
f 711 745 744
f 711 744 709
f 709 744 873
f 709 873 716
f 716 873 874
f 716 874 714
f 714 874 875
f 714 875 712
f 712 875 876
f 712 876 725
f 725 876 877
f 725 877 723
f 723 877 878
f 723 878 720
f 720 878 879
f 720 879 719
f 719 879 752
f 719 752 705
f 732 752 879
f 732 879 730
f 730 879 878
f 730 878 728
f 728 878 877
f 728 877 733
f 733 877 876
f 733 876 734
f 734 876 875
f 734 875 741
f 741 875 874
f 741 874 740
f 740 874 873
f 740 873 739
f 739 873 744
f 739 744 738
f 648 639 880
f 648 880 649
f 649 880 881
f 649 881 650
f 650 881 882
f 650 882 655
f 655 882 883
f 655 883 654
f 654 883 884
f 654 884 653
f 653 884 885
f 653 885 652
f 652 885 886
f 652 886 651
f 651 886 631
f 651 631 640
f 639 608 609
f 639 609 880
f 880 609 610
f 880 610 881
f 881 610 611
f 881 611 882
f 882 611 628
f 882 628 883
f 883 628 620
f 883 620 884
f 884 620 622
f 884 622 885
f 885 622 624
f 885 624 886
f 886 624 614
f 886 614 631
f 428 364 887
f 428 887 427
f 887 888 427
f 427 888 889
f 427 889 426
f 889 890 426
f 426 890 891
f 426 891 425
f 891 892 425
f 425 892 893
f 425 893 424
f 893 894 424
f 424 894 895
f 424 895 423
f 895 896 423
f 423 896 897
f 423 897 452
f 897 898 452
f 452 898 899
f 452 899 451
f 899 900 451
f 451 900 901
f 451 901 450
f 901 902 450
f 450 902 903
f 450 903 449
f 335 448 904
f 904 448 449
f 904 449 905
f 905 449 903
f 330 329 936
f 936 329 328
f 334 331 937
f 937 331 330
f 887 364 334
f 304 938 453
f 453 938 939
f 453 939 454
f 454 939 940
f 454 940 455
f 455 940 941
f 455 941 456
f 456 941 942
f 456 942 469
f 469 942 943
f 469 943 470
f 470 943 944
f 470 944 471
f 471 944 945
f 471 945 462
f 462 945 946
f 462 946 463
f 463 946 947
f 463 947 464
f 464 947 948
f 464 948 465
f 465 948 949
f 465 949 466
f 466 949 950
f 466 950 467
f 467 950 951
f 467 951 468
f 468 951 952
f 468 952 459
f 459 952 953
f 459 953 460
f 460 953 954
f 460 954 461
f 461 954 955
f 461 955 457
f 457 955 936
f 457 936 458
f 458 936 328
f 458 328 298
f 330 936 937
f 937 936 955
f 937 955 956
f 956 955 954
f 956 954 957
f 957 954 953
f 957 953 958
f 958 953 952
f 958 952 959
f 959 952 951
f 959 951 960
f 960 951 950
f 960 950 961
f 961 950 949
f 961 949 962
f 962 949 948
f 962 948 963
f 963 948 947
f 963 947 964
f 964 947 946
f 964 946 965
f 965 946 945
f 965 945 966
f 966 945 944
f 966 944 967
f 967 944 943
f 967 943 968
f 968 943 942
f 968 942 969
f 969 942 941
f 969 941 970
f 970 941 940
f 970 940 971
f 971 940 939
f 971 939 972
f 972 939 938
f 972 938 973
f 304 302 938
f 938 302 323
f 938 323 973
f 973 323 322
f 973 322 336
f 334 937 887
f 887 937 956
f 887 956 888
f 888 956 957
f 888 957 889
f 889 957 958
f 889 958 890
f 890 958 959
f 890 959 891
f 891 959 960
f 891 960 892
f 892 960 961
f 892 961 893
f 893 961 962
f 893 962 894
f 894 962 963
f 894 963 895
f 895 963 964
f 895 964 896
f 896 964 965
f 896 965 897
f 897 965 966
f 897 966 898
f 898 966 967
f 898 967 899
f 899 967 968
f 899 968 900
f 900 968 969
f 900 969 901
f 901 969 970
f 901 970 902
f 902 970 971
f 902 971 903
f 903 971 972
f 903 972 905
f 905 972 973
f 905 973 904
f 904 973 336
f 904 336 335
f 248 272 270
f 256 272 248
f 248 268 266
f 269 268 248
f 248 262 251
f 264 262 248
f 265 264 248
f 266 265 248
f 270 269 248
f 240 231 974
f 240 974 242
f 242 974 975
f 242 975 243
f 243 975 976
f 243 976 247
f 247 976 977
f 247 977 246
f 246 977 978
f 246 978 244
f 244 978 979
f 244 979 245
f 245 979 980
f 245 980 241
f 241 980 223
f 241 223 232
f 231 205 207
f 231 207 974
f 974 207 200
f 974 200 975
f 975 200 201
f 975 201 976
f 976 201 202
f 976 202 977
f 977 202 197
f 977 197 978
f 978 197 198
f 978 198 979
f 979 198 199
f 979 199 980
f 980 199 215
f 980 215 223
f 95 70 981
f 95 981 99
f 99 981 982
f 99 982 97
f 97 982 983
f 97 983 98
f 98 983 984
f 98 984 102
f 102 984 985
f 102 985 101
f 101 985 986
f 101 986 100
f 100 986 987
f 100 987 96
f 96 987 85
f 96 85 87
f 86 85 987
f 86 987 123
f 123 987 986
f 123 986 111
f 111 986 985
f 111 985 109
f 109 985 984
f 109 984 107
f 107 984 983
f 107 983 105
f 105 983 982
f 105 982 114
f 114 982 981
f 114 981 112
f 112 981 70
f 112 70 69
f 1016 1017 1018
f 1018 1017 1019
f 1020 1021 1019
f 1019 1021 1022
f 1019 1022 1018
f 1023 1024 1025
f 1025 1024 1026
f 1025 1026 1020
f 1020 1026 1027
f 1020 1027 1021
f 1023 1025 1028
f 1028 1025 1029
f 1028 1029 1030
f 1030 1029 1031
f 1031 1029 1032
f 1031 1032 1033
f 1034 1035 1036
f 1036 1037 1034
f 1034 1037 1038
f 1034 1038 1032
f 1032 1038 1039
f 1032 1039 1033
f 1040 1041 1042
f 1042 1041 1043
f 1042 1043 1035
f 1035 1043 1044
f 1035 1044 1036
f 1045 1046 1047
f 1047 1048 1045
f 1045 1048 1049
f 1045 1049 1042
f 1042 1049 1050
f 1042 1050 1040
f 1051 1052 1053
f 1053 1052 1054
f 1053 1054 1055
f 1055 1054 1056
f 1055 1056 1057
f 1057 1056 1046
f 1057 1046 1058
f 1058 1046 1045
f 1058 1045 1059
f 1060 1025 1061
f 1061 1025 1020
f 1061 1020 1062
f 1062 1020 1019
f 1062 1019 1063
f 1063 1019 1017
f 1063 1017 1064
f 1017 1065 1064
f 1064 1065 1066
f 1064 1066 1067
f 1067 1066 1068
f 1067 1068 1069
f 1069 1068 1070
f 1069 1070 1071
f 1071 1070 1072
f 1071 1072 1051
f 1051 1072 1073
f 1051 1073 1052
f 1045 1042 1059
f 1059 1042 1035
f 1059 1035 1074
f 1074 1035 1034
f 1074 1034 1075
f 1075 1034 1032
f 1075 1032 1060
f 1060 1032 1029
f 1060 1029 1025
f 1229 1230 1231
f 1231 1230 1232
f 1233 1234 1232
f 1232 1234 1235
f 1232 1235 1231
f 1236 1237 1233
f 1233 1237 1238
f 1233 1238 1234
f 1233 1239 1236
f 1229 1241 1230
f 1230 1241 1242
f 1242 1241 1243
f 1242 1243 1244
f 1244 1243 1245
f 1244 1245 1246
f 1246 1245 1247
f 1246 1247 1248
f 1248 1247 1249
f 1248 1249 1250
f 1250 1249 819
f 819 1249 818
f 1251 1252 1253
f 1251 1253 1254
f 1253 1255 1254
f 1254 1255 1256
f 1254 1256 1257
f 1257 1256 1258
f 1257 1258 1259
f 1259 1258 1260
f 1262 1252 1263
f 1263 1252 1251
f 1264 1265 1266
f 1264 1266 1267
f 1267 1266 1268
f 1267 1268 1269
f 1269 1268 1270
f 1269 1270 1271
f 1271 1270 1262
f 1271 1262 1263
f 768 767 1264
f 1264 767 1265
f 1237 1236 1258
f 1258 1236 1260
f 1253 1231 1255
f 1255 1231 1235
f 1255 1235 1256
f 1256 1235 1234
f 1256 1234 1258
f 1258 1234 1238
f 1258 1238 1237
f 1036 1044 1241
f 1018 1231 1016
f 1016 1231 1253
f 1016 1253 1272
f 1272 1253 1273
f 1018 1022 1231
f 1231 1022 1021
f 1231 1021 1027
f 1262 1274 1275
f 1276 1277 1253
f 1253 1277 1278
f 1253 1278 1273
f 1279 1280 1252
f 1252 1280 1281
f 1252 1281 1253
f 1253 1281 1282
f 1253 1282 1276
f 1039 1038 1241
f 1241 1038 1037
f 1241 1037 1036
f 1027 1026 1231
f 1231 1026 1024
f 1231 1024 1229
f 1229 1024 1023
f 1229 1023 1028
f 1275 1283 1262
f 1262 1283 1284
f 1262 1284 1285
f 1285 1286 1262
f 1262 1286 1287
f 1262 1287 1252
f 1252 1287 1288
f 1252 1288 1279
f 1028 1030 1229
f 1229 1030 1031
f 1229 1031 1241
f 1241 1031 1033
f 1241 1033 1039
f 1274 1262 1289
f 1289 1262 1270
f 1289 1270 1290
f 1049 1048 1245
f 1245 1048 1047
f 1268 1047 1291
f 1291 1292 1268
f 1268 1292 1293
f 1268 1293 1270
f 1270 1293 1294
f 1270 1294 1290
f 1241 1044 1243
f 1243 1044 1043
f 1043 1041 1243
f 1243 1041 1040
f 1243 1040 1245
f 1245 1040 1050
f 1245 1050 1049
f 1047 1268 1245
f 1245 1268 1266
f 1245 1266 1247
f 1247 1266 1265
f 1247 1265 1249
f 1251 1254 1206
f 1254 1257 1206
f 1206 1257 1259
f 768 1264 1206
f 1206 1264 1267
f 1206 1267 1269
f 1269 1271 1206
f 1206 1271 1263
f 1206 1263 1251
f 1250 819 1222
f 1222 1239 1233
f 1222 1233 1232
f 1232 1230 1222
f 1222 1230 1242
f 1222 1242 1244
f 1244 1246 1222
f 1222 1246 1248
f 1222 1248 1250
f 1249 1265 818
f 818 1265 767
f 1047 1046 1291
f 1291 1046 1056
f 1291 1056 1292
f 1292 1056 1293
f 1293 1056 1054
f 1293 1054 1294
f 1275 1274 1052
f 1052 1274 1289
f 1052 1289 1054
f 1054 1289 1290
f 1054 1290 1294
f 1275 1052 1283
f 1283 1052 1073
f 1283 1073 1284
f 1284 1073 1285
f 1285 1073 1072
f 1285 1072 1286
f 1070 1288 1072
f 1072 1288 1287
f 1072 1287 1286
f 1068 1280 1070
f 1070 1280 1279
f 1070 1279 1288
f 1066 1282 1068
f 1068 1282 1281
f 1068 1281 1280
f 1273 1278 1065
f 1065 1278 1277
f 1065 1277 1066
f 1066 1277 1276
f 1066 1276 1282
f 1273 1065 1272
f 1272 1065 1017
f 1272 1017 1016
